%TF.GenerationSoftware,KiCad,Pcbnew,7.0.11+dfsg-1build4*%
%TF.CreationDate,2026-08-10T02:10:54+00:00*%
%TF.ProjectId,oa35-aio,6f613335-2d61-4696-9f2e-6b696361645f,rev?*%
%TF.SameCoordinates,Original*%
%TF.FileFunction,Copper,L1,Top*%
%TF.FilePolarity,Positive*%
%FSLAX46Y46*%
G04 Gerber Fmt 4.6, Leading zero omitted, Abs format (unit mm)*
G04 Created by KiCad (PCBNEW 7.0.11+dfsg-1build4) date 2026-08-10 02:10:54*
%MOMM*%
%LPD*%
G01*
G04 APERTURE LIST*
G04 Aperture macros list*
%AMRoundRect*
0 Rectangle with rounded corners*
0 $1 Rounding radius*
0 $2 $3 $4 $5 $6 $7 $8 $9 X,Y pos of 4 corners*
0 Add a 4 corners polygon primitive as box body*
4,1,4,$2,$3,$4,$5,$6,$7,$8,$9,$2,$3,0*
0 Add four circle primitives for the rounded corners*
1,1,$1+$1,$2,$3*
1,1,$1+$1,$4,$5*
1,1,$1+$1,$6,$7*
1,1,$1+$1,$8,$9*
0 Add four rect primitives between the rounded corners*
20,1,$1+$1,$2,$3,$4,$5,0*
20,1,$1+$1,$4,$5,$6,$7,0*
20,1,$1+$1,$6,$7,$8,$9,0*
20,1,$1+$1,$8,$9,$2,$3,0*%
%AMFreePoly0*
4,1,17,1.395000,0.765000,0.855000,0.765000,0.855000,0.535000,1.395000,0.535000,1.395000,0.115000,0.855000,0.115000,0.855000,-0.115000,1.395000,-0.115000,1.395000,-0.535000,0.855000,-0.535000,0.855000,-0.765000,1.395000,-0.765000,1.395000,-1.185000,-0.855000,-1.185000,-0.855000,1.185000,1.395000,1.185000,1.395000,0.765000,1.395000,0.765000,$1*%
G04 Aperture macros list end*
%TA.AperFunction,SMDPad,CuDef*%
%ADD10RoundRect,0.100000X-0.225000X-0.100000X0.225000X-0.100000X0.225000X0.100000X-0.225000X0.100000X0*%
%TD*%
%TA.AperFunction,SMDPad,CuDef*%
%ADD11RoundRect,0.250000X0.300000X-0.300000X0.300000X0.300000X-0.300000X0.300000X-0.300000X-0.300000X0*%
%TD*%
%TA.AperFunction,SMDPad,CuDef*%
%ADD12RoundRect,0.250000X-0.300000X-0.300000X0.300000X-0.300000X0.300000X0.300000X-0.300000X0.300000X0*%
%TD*%
%TA.AperFunction,SMDPad,CuDef*%
%ADD13RoundRect,0.105000X0.245000X0.105000X-0.245000X0.105000X-0.245000X-0.105000X0.245000X-0.105000X0*%
%TD*%
%TA.AperFunction,SMDPad,CuDef*%
%ADD14FreePoly0,180.000000*%
%TD*%
%TA.AperFunction,SMDPad,CuDef*%
%ADD15RoundRect,0.105000X-0.105000X0.245000X-0.105000X-0.245000X0.105000X-0.245000X0.105000X0.245000X0*%
%TD*%
%TA.AperFunction,SMDPad,CuDef*%
%ADD16FreePoly0,270.000000*%
%TD*%
%TA.AperFunction,SMDPad,CuDef*%
%ADD17RoundRect,0.105000X0.105000X-0.245000X0.105000X0.245000X-0.105000X0.245000X-0.105000X-0.245000X0*%
%TD*%
%TA.AperFunction,SMDPad,CuDef*%
%ADD18FreePoly0,90.000000*%
%TD*%
%TA.AperFunction,SMDPad,CuDef*%
%ADD19RoundRect,0.105000X-0.245000X-0.105000X0.245000X-0.105000X0.245000X0.105000X-0.245000X0.105000X0*%
%TD*%
%TA.AperFunction,SMDPad,CuDef*%
%ADD20FreePoly0,0.000000*%
%TD*%
%TA.AperFunction,SMDPad,CuDef*%
%ADD21RoundRect,0.140000X0.170000X-0.140000X0.170000X0.140000X-0.170000X0.140000X-0.170000X-0.140000X0*%
%TD*%
%TA.AperFunction,SMDPad,CuDef*%
%ADD22RoundRect,0.140000X-0.140000X-0.170000X0.140000X-0.170000X0.140000X0.170000X-0.140000X0.170000X0*%
%TD*%
%TA.AperFunction,SMDPad,CuDef*%
%ADD23RoundRect,0.140000X0.140000X0.170000X-0.140000X0.170000X-0.140000X-0.170000X0.140000X-0.170000X0*%
%TD*%
%TA.AperFunction,SMDPad,CuDef*%
%ADD24RoundRect,0.140000X-0.170000X0.140000X-0.170000X-0.140000X0.170000X-0.140000X0.170000X0.140000X0*%
%TD*%
%TA.AperFunction,SMDPad,CuDef*%
%ADD25RoundRect,0.250000X-0.250000X-0.475000X0.250000X-0.475000X0.250000X0.475000X-0.250000X0.475000X0*%
%TD*%
%TA.AperFunction,SMDPad,CuDef*%
%ADD26RoundRect,0.250000X0.475000X-0.250000X0.475000X0.250000X-0.475000X0.250000X-0.475000X-0.250000X0*%
%TD*%
%TA.AperFunction,SMDPad,CuDef*%
%ADD27RoundRect,0.150000X-0.587500X-0.150000X0.587500X-0.150000X0.587500X0.150000X-0.587500X0.150000X0*%
%TD*%
%TA.AperFunction,SMDPad,CuDef*%
%ADD28R,1.200000X1.400000*%
%TD*%
%TA.AperFunction,SMDPad,CuDef*%
%ADD29RoundRect,0.093750X-0.093750X-0.106250X0.093750X-0.106250X0.093750X0.106250X-0.093750X0.106250X0*%
%TD*%
%TA.AperFunction,HeatsinkPad*%
%ADD30R,1.000000X1.600000*%
%TD*%
%TA.AperFunction,SMDPad,CuDef*%
%ADD31RoundRect,0.062500X0.062500X-0.325000X0.062500X0.325000X-0.062500X0.325000X-0.062500X-0.325000X0*%
%TD*%
%TA.AperFunction,SMDPad,CuDef*%
%ADD32RoundRect,0.062500X0.325000X-0.062500X0.325000X0.062500X-0.325000X0.062500X-0.325000X-0.062500X0*%
%TD*%
%TA.AperFunction,SMDPad,CuDef*%
%ADD33RoundRect,0.700000X0.700000X-0.700000X0.700000X0.700000X-0.700000X0.700000X-0.700000X-0.700000X0*%
%TD*%
%TA.AperFunction,SMDPad,CuDef*%
%ADD34RoundRect,0.062500X0.325000X0.062500X-0.325000X0.062500X-0.325000X-0.062500X0.325000X-0.062500X0*%
%TD*%
%TA.AperFunction,SMDPad,CuDef*%
%ADD35RoundRect,0.062500X0.062500X0.325000X-0.062500X0.325000X-0.062500X-0.325000X0.062500X-0.325000X0*%
%TD*%
%TA.AperFunction,SMDPad,CuDef*%
%ADD36RoundRect,0.700000X0.700000X0.700000X-0.700000X0.700000X-0.700000X-0.700000X0.700000X-0.700000X0*%
%TD*%
%TA.AperFunction,SMDPad,CuDef*%
%ADD37RoundRect,0.062500X-0.325000X-0.062500X0.325000X-0.062500X0.325000X0.062500X-0.325000X0.062500X0*%
%TD*%
%TA.AperFunction,SMDPad,CuDef*%
%ADD38RoundRect,0.062500X-0.062500X-0.325000X0.062500X-0.325000X0.062500X0.325000X-0.062500X0.325000X0*%
%TD*%
%TA.AperFunction,SMDPad,CuDef*%
%ADD39RoundRect,0.700000X-0.700000X-0.700000X0.700000X-0.700000X0.700000X0.700000X-0.700000X0.700000X0*%
%TD*%
%TA.AperFunction,SMDPad,CuDef*%
%ADD40RoundRect,0.062500X-0.062500X0.325000X-0.062500X-0.325000X0.062500X-0.325000X0.062500X0.325000X0*%
%TD*%
%TA.AperFunction,SMDPad,CuDef*%
%ADD41RoundRect,0.062500X-0.325000X0.062500X-0.325000X-0.062500X0.325000X-0.062500X0.325000X0.062500X0*%
%TD*%
%TA.AperFunction,SMDPad,CuDef*%
%ADD42RoundRect,0.700000X-0.700000X0.700000X-0.700000X-0.700000X0.700000X-0.700000X0.700000X0.700000X0*%
%TD*%
%TA.AperFunction,SMDPad,CuDef*%
%ADD43RoundRect,0.100000X0.130000X0.100000X-0.130000X0.100000X-0.130000X-0.100000X0.130000X-0.100000X0*%
%TD*%
%TA.AperFunction,SMDPad,CuDef*%
%ADD44RoundRect,0.100000X0.100000X-0.130000X0.100000X0.130000X-0.100000X0.130000X-0.100000X-0.130000X0*%
%TD*%
%TA.AperFunction,SMDPad,CuDef*%
%ADD45RoundRect,0.100000X-0.100000X0.130000X-0.100000X-0.130000X0.100000X-0.130000X0.100000X0.130000X0*%
%TD*%
%TA.AperFunction,SMDPad,CuDef*%
%ADD46RoundRect,0.100000X-0.130000X-0.100000X0.130000X-0.100000X0.130000X0.100000X-0.130000X0.100000X0*%
%TD*%
%TA.AperFunction,SMDPad,CuDef*%
%ADD47R,4.000000X3.000000*%
%TD*%
%TA.AperFunction,SMDPad,CuDef*%
%ADD48R,2.000000X2.800000*%
%TD*%
%TA.AperFunction,SMDPad,CuDef*%
%ADD49R,2.800000X2.000000*%
%TD*%
%TA.AperFunction,SMDPad,CuDef*%
%ADD50RoundRect,0.250000X-0.362500X-1.425000X0.362500X-1.425000X0.362500X1.425000X-0.362500X1.425000X0*%
%TD*%
%TA.AperFunction,SMDPad,CuDef*%
%ADD51RoundRect,0.147500X-0.147500X-0.172500X0.147500X-0.172500X0.147500X0.172500X-0.147500X0.172500X0*%
%TD*%
%TA.AperFunction,SMDPad,CuDef*%
%ADD52RoundRect,0.147500X0.172500X-0.147500X0.172500X0.147500X-0.172500X0.147500X-0.172500X-0.147500X0*%
%TD*%
%TA.AperFunction,ComponentPad*%
%ADD53O,1.000000X1.600000*%
%TD*%
%TA.AperFunction,ComponentPad*%
%ADD54O,1.000000X2.100000*%
%TD*%
G04 APERTURE END LIST*
D10*
%TO.P,U1,1*%
%TO.N,GND*%
X150050000Y-111750000D03*
%TO.P,U1,2*%
X150050000Y-112400000D03*
%TO.P,U1,3*%
%TO.N,+3V3*%
X150050000Y-113050000D03*
%TO.P,U1,4*%
%TO.N,VBAT_IN*%
X151950000Y-113050000D03*
%TO.P,U1,5*%
%TO.N,VBAT*%
X151950000Y-112400000D03*
%TO.P,U1,6*%
%TO.N,CURR_RAW*%
X151950000Y-111750000D03*
%TD*%
D11*
%TO.P,D1,1*%
%TO.N,GND*%
X137592000Y-109880000D03*
%TO.P,D1,2*%
%TO.N,VBAT_IN*%
X137592000Y-107080000D03*
%TD*%
D12*
%TO.P,D2,1*%
%TO.N,GND*%
X163430000Y-95184000D03*
%TO.P,D2,2*%
%TO.N,VBAT_IN*%
X166230000Y-95184000D03*
%TD*%
D13*
%TO.P,QAL1,1*%
%TO.N,GND*%
X164250000Y-108755000D03*
%TO.P,QAL1,2*%
X164250000Y-108105000D03*
%TO.P,QAL1,3*%
X164250000Y-107455000D03*
%TO.P,QAL1,4*%
%TO.N,GAL_1*%
X164250000Y-106805000D03*
D14*
%TO.P,QAL1,5*%
%TO.N,PH_A_1*%
X162295000Y-107780000D03*
%TD*%
D13*
%TO.P,QAH1,1*%
%TO.N,PH_A_1*%
X159500000Y-108755000D03*
%TO.P,QAH1,2*%
X159500000Y-108105000D03*
%TO.P,QAH1,3*%
X159500000Y-107455000D03*
%TO.P,QAH1,4*%
%TO.N,GAH_1*%
X159500000Y-106805000D03*
D14*
%TO.P,QAH1,5*%
%TO.N,VBAT*%
X157545000Y-107780000D03*
%TD*%
D13*
%TO.P,QBL1,1*%
%TO.N,GND*%
X164250000Y-105975000D03*
%TO.P,QBL1,2*%
X164250000Y-105325000D03*
%TO.P,QBL1,3*%
X164250000Y-104675000D03*
%TO.P,QBL1,4*%
%TO.N,GBL_1*%
X164250000Y-104025000D03*
D14*
%TO.P,QBL1,5*%
%TO.N,PH_B_1*%
X162295000Y-105000000D03*
%TD*%
D13*
%TO.P,QBH1,1*%
%TO.N,PH_B_1*%
X159500000Y-105975000D03*
%TO.P,QBH1,2*%
X159500000Y-105325000D03*
%TO.P,QBH1,3*%
X159500000Y-104675000D03*
%TO.P,QBH1,4*%
%TO.N,GBH_1*%
X159500000Y-104025000D03*
D14*
%TO.P,QBH1,5*%
%TO.N,VBAT*%
X157545000Y-105000000D03*
%TD*%
D13*
%TO.P,QCL1,1*%
%TO.N,GND*%
X164250000Y-103195000D03*
%TO.P,QCL1,2*%
X164250000Y-102545000D03*
%TO.P,QCL1,3*%
X164250000Y-101895000D03*
%TO.P,QCL1,4*%
%TO.N,GCL_1*%
X164250000Y-101245000D03*
D14*
%TO.P,QCL1,5*%
%TO.N,PH_C_1*%
X162295000Y-102220000D03*
%TD*%
D13*
%TO.P,QCH1,1*%
%TO.N,PH_C_1*%
X159500000Y-103195000D03*
%TO.P,QCH1,2*%
X159500000Y-102545000D03*
%TO.P,QCH1,3*%
X159500000Y-101895000D03*
%TO.P,QCH1,4*%
%TO.N,GCH_1*%
X159500000Y-101245000D03*
D14*
%TO.P,QCH1,5*%
%TO.N,VBAT*%
X157545000Y-102220000D03*
%TD*%
D15*
%TO.P,QAL2,1*%
%TO.N,GND*%
X158755000Y-85750000D03*
%TO.P,QAL2,2*%
X158105000Y-85750000D03*
%TO.P,QAL2,3*%
X157455000Y-85750000D03*
%TO.P,QAL2,4*%
%TO.N,GAL_2*%
X156805000Y-85750000D03*
D16*
%TO.P,QAL2,5*%
%TO.N,PH_A_2*%
X157780000Y-87705000D03*
%TD*%
D15*
%TO.P,QAH2,1*%
%TO.N,PH_A_2*%
X158755000Y-90500000D03*
%TO.P,QAH2,2*%
X158105000Y-90500000D03*
%TO.P,QAH2,3*%
X157455000Y-90500000D03*
%TO.P,QAH2,4*%
%TO.N,GAH_2*%
X156805000Y-90500000D03*
D16*
%TO.P,QAH2,5*%
%TO.N,VBAT*%
X157780000Y-92455000D03*
%TD*%
D15*
%TO.P,QBL2,1*%
%TO.N,GND*%
X155975000Y-85750000D03*
%TO.P,QBL2,2*%
X155325000Y-85750000D03*
%TO.P,QBL2,3*%
X154675000Y-85750000D03*
%TO.P,QBL2,4*%
%TO.N,GBL_2*%
X154025000Y-85750000D03*
D16*
%TO.P,QBL2,5*%
%TO.N,PH_B_2*%
X155000000Y-87705000D03*
%TD*%
D15*
%TO.P,QBH2,1*%
%TO.N,PH_B_2*%
X155975000Y-90500000D03*
%TO.P,QBH2,2*%
X155325000Y-90500000D03*
%TO.P,QBH2,3*%
X154675000Y-90500000D03*
%TO.P,QBH2,4*%
%TO.N,GBH_2*%
X154025000Y-90500000D03*
D16*
%TO.P,QBH2,5*%
%TO.N,VBAT*%
X155000000Y-92455000D03*
%TD*%
D15*
%TO.P,QCL2,1*%
%TO.N,GND*%
X153195000Y-85750000D03*
%TO.P,QCL2,2*%
X152545000Y-85750000D03*
%TO.P,QCL2,3*%
X151895000Y-85750000D03*
%TO.P,QCL2,4*%
%TO.N,GCL_2*%
X151245000Y-85750000D03*
D16*
%TO.P,QCL2,5*%
%TO.N,PH_C_2*%
X152220000Y-87705000D03*
%TD*%
D15*
%TO.P,QCH2,1*%
%TO.N,PH_C_2*%
X153195000Y-90500000D03*
%TO.P,QCH2,2*%
X152545000Y-90500000D03*
%TO.P,QCH2,3*%
X151895000Y-90500000D03*
%TO.P,QCH2,4*%
%TO.N,GCH_2*%
X151245000Y-90500000D03*
D16*
%TO.P,QCH2,5*%
%TO.N,VBAT*%
X152220000Y-92455000D03*
%TD*%
D17*
%TO.P,QAL3,1*%
%TO.N,GND*%
X141245000Y-114250000D03*
%TO.P,QAL3,2*%
X141895000Y-114250000D03*
%TO.P,QAL3,3*%
X142545000Y-114250000D03*
%TO.P,QAL3,4*%
%TO.N,GAL_3*%
X143195000Y-114250000D03*
D18*
%TO.P,QAL3,5*%
%TO.N,PH_A_3*%
X142220000Y-112295000D03*
%TD*%
D17*
%TO.P,QAH3,1*%
%TO.N,PH_A_3*%
X141245000Y-109500000D03*
%TO.P,QAH3,2*%
X141895000Y-109500000D03*
%TO.P,QAH3,3*%
X142545000Y-109500000D03*
%TO.P,QAH3,4*%
%TO.N,GAH_3*%
X143195000Y-109500000D03*
D18*
%TO.P,QAH3,5*%
%TO.N,VBAT*%
X142220000Y-107545000D03*
%TD*%
D17*
%TO.P,QBL3,1*%
%TO.N,GND*%
X144025000Y-114250000D03*
%TO.P,QBL3,2*%
X144675000Y-114250000D03*
%TO.P,QBL3,3*%
X145325000Y-114250000D03*
%TO.P,QBL3,4*%
%TO.N,GBL_3*%
X145975000Y-114250000D03*
D18*
%TO.P,QBL3,5*%
%TO.N,PH_B_3*%
X145000000Y-112295000D03*
%TD*%
D17*
%TO.P,QBH3,1*%
%TO.N,PH_B_3*%
X144025000Y-109500000D03*
%TO.P,QBH3,2*%
X144675000Y-109500000D03*
%TO.P,QBH3,3*%
X145325000Y-109500000D03*
%TO.P,QBH3,4*%
%TO.N,GBH_3*%
X145975000Y-109500000D03*
D18*
%TO.P,QBH3,5*%
%TO.N,VBAT*%
X145000000Y-107545000D03*
%TD*%
D17*
%TO.P,QCL3,1*%
%TO.N,GND*%
X146805000Y-114250000D03*
%TO.P,QCL3,2*%
X147455000Y-114250000D03*
%TO.P,QCL3,3*%
X148105000Y-114250000D03*
%TO.P,QCL3,4*%
%TO.N,GCL_3*%
X148755000Y-114250000D03*
D18*
%TO.P,QCL3,5*%
%TO.N,PH_C_3*%
X147780000Y-112295000D03*
%TD*%
D17*
%TO.P,QCH3,1*%
%TO.N,PH_C_3*%
X146805000Y-109500000D03*
%TO.P,QCH3,2*%
X147455000Y-109500000D03*
%TO.P,QCH3,3*%
X148105000Y-109500000D03*
%TO.P,QCH3,4*%
%TO.N,GCH_3*%
X148755000Y-109500000D03*
D18*
%TO.P,QCH3,5*%
%TO.N,VBAT*%
X147780000Y-107545000D03*
%TD*%
D19*
%TO.P,QAL4,1*%
%TO.N,GND*%
X135750000Y-91245000D03*
%TO.P,QAL4,2*%
X135750000Y-91895000D03*
%TO.P,QAL4,3*%
X135750000Y-92545000D03*
%TO.P,QAL4,4*%
%TO.N,GAL_4*%
X135750000Y-93195000D03*
D20*
%TO.P,QAL4,5*%
%TO.N,PH_A_4*%
X137705000Y-92220000D03*
%TD*%
D19*
%TO.P,QAH4,1*%
%TO.N,PH_A_4*%
X140500000Y-91245000D03*
%TO.P,QAH4,2*%
X140500000Y-91895000D03*
%TO.P,QAH4,3*%
X140500000Y-92545000D03*
%TO.P,QAH4,4*%
%TO.N,GAH_4*%
X140500000Y-93195000D03*
D20*
%TO.P,QAH4,5*%
%TO.N,VBAT*%
X142455000Y-92220000D03*
%TD*%
D19*
%TO.P,QBL4,1*%
%TO.N,GND*%
X135750000Y-94025000D03*
%TO.P,QBL4,2*%
X135750000Y-94675000D03*
%TO.P,QBL4,3*%
X135750000Y-95325000D03*
%TO.P,QBL4,4*%
%TO.N,GBL_4*%
X135750000Y-95975000D03*
D20*
%TO.P,QBL4,5*%
%TO.N,PH_B_4*%
X137705000Y-95000000D03*
%TD*%
D19*
%TO.P,QBH4,1*%
%TO.N,PH_B_4*%
X140500000Y-94025000D03*
%TO.P,QBH4,2*%
X140500000Y-94675000D03*
%TO.P,QBH4,3*%
X140500000Y-95325000D03*
%TO.P,QBH4,4*%
%TO.N,GBH_4*%
X140500000Y-95975000D03*
D20*
%TO.P,QBH4,5*%
%TO.N,VBAT*%
X142455000Y-95000000D03*
%TD*%
D19*
%TO.P,QCL4,1*%
%TO.N,GND*%
X135750000Y-96805000D03*
%TO.P,QCL4,2*%
X135750000Y-97455000D03*
%TO.P,QCL4,3*%
X135750000Y-98105000D03*
%TO.P,QCL4,4*%
%TO.N,GCL_4*%
X135750000Y-98755000D03*
D20*
%TO.P,QCL4,5*%
%TO.N,PH_C_4*%
X137705000Y-97780000D03*
%TD*%
D19*
%TO.P,QCH4,1*%
%TO.N,PH_C_4*%
X140500000Y-96805000D03*
%TO.P,QCH4,2*%
X140500000Y-97455000D03*
%TO.P,QCH4,3*%
X140500000Y-98105000D03*
%TO.P,QCH4,4*%
%TO.N,GCH_4*%
X140500000Y-98755000D03*
D20*
%TO.P,QCH4,5*%
%TO.N,VBAT*%
X142455000Y-97780000D03*
%TD*%
D21*
%TO.P,CBSA1,1*%
%TO.N,PH_A_1*%
X155500000Y-108260000D03*
%TO.P,CBSA1,2*%
%TO.N,BOOTA_1*%
X155500000Y-107300000D03*
%TD*%
%TO.P,CBSB1,1*%
%TO.N,PH_B_1*%
X155500000Y-105480000D03*
%TO.P,CBSB1,2*%
%TO.N,BOOTB_1*%
X155500000Y-104520000D03*
%TD*%
%TO.P,CBSC1,1*%
%TO.N,PH_C_1*%
X155500000Y-102700000D03*
%TO.P,CBSC1,2*%
%TO.N,BOOTC_1*%
X155500000Y-101740000D03*
%TD*%
D22*
%TO.P,CBSA2,1*%
%TO.N,PH_A_2*%
X157300000Y-94500000D03*
%TO.P,CBSA2,2*%
%TO.N,BOOTA_2*%
X158260000Y-94500000D03*
%TD*%
%TO.P,CBSB2,1*%
%TO.N,PH_B_2*%
X154520000Y-94500000D03*
%TO.P,CBSB2,2*%
%TO.N,BOOTB_2*%
X155480000Y-94500000D03*
%TD*%
%TO.P,CBSC2,1*%
%TO.N,PH_C_2*%
X151740000Y-94500000D03*
%TO.P,CBSC2,2*%
%TO.N,BOOTC_2*%
X152700000Y-94500000D03*
%TD*%
D23*
%TO.P,CBSA3,1*%
%TO.N,PH_A_3*%
X142700000Y-105500000D03*
%TO.P,CBSA3,2*%
%TO.N,BOOTA_3*%
X141740000Y-105500000D03*
%TD*%
%TO.P,CBSB3,1*%
%TO.N,PH_B_3*%
X145480000Y-105500000D03*
%TO.P,CBSB3,2*%
%TO.N,BOOTB_3*%
X144520000Y-105500000D03*
%TD*%
%TO.P,CBSC3,1*%
%TO.N,PH_C_3*%
X148260000Y-105500000D03*
%TO.P,CBSC3,2*%
%TO.N,BOOTC_3*%
X147300000Y-105500000D03*
%TD*%
D24*
%TO.P,CBSA4,1*%
%TO.N,PH_A_4*%
X144500000Y-91740000D03*
%TO.P,CBSA4,2*%
%TO.N,BOOTA_4*%
X144500000Y-92700000D03*
%TD*%
%TO.P,CBSB4,1*%
%TO.N,PH_B_4*%
X144500000Y-94520000D03*
%TO.P,CBSB4,2*%
%TO.N,BOOTB_4*%
X144500000Y-95480000D03*
%TD*%
%TO.P,CBSC4,1*%
%TO.N,PH_C_4*%
X144500000Y-97300000D03*
%TO.P,CBSC4,2*%
%TO.N,BOOTC_4*%
X144500000Y-98260000D03*
%TD*%
D21*
%TO.P,C19,1*%
%TO.N,+3V3*%
X151003000Y-110027000D03*
%TO.P,C19,2*%
%TO.N,GND*%
X151003000Y-109067000D03*
%TD*%
D22*
%TO.P,C35,1*%
%TO.N,HSE_IN*%
X139079000Y-105452000D03*
%TO.P,C35,2*%
%TO.N,GND*%
X140039000Y-105452000D03*
%TD*%
%TO.P,C36,1*%
%TO.N,HSE_OUT*%
X136882000Y-105100000D03*
%TO.P,C36,2*%
%TO.N,GND*%
X137842000Y-105100000D03*
%TD*%
D25*
%TO.P,C4,1*%
%TO.N,VBAT*%
X164807000Y-99418000D03*
%TO.P,C4,2*%
%TO.N,GND*%
X166707000Y-99418000D03*
%TD*%
D26*
%TO.P,C1,1*%
%TO.N,VBAT*%
X160622000Y-99543000D03*
%TO.P,C1,2*%
%TO.N,GND*%
X160622000Y-97643000D03*
%TD*%
%TO.P,C2,1*%
%TO.N,VBAT*%
X162687000Y-99766000D03*
%TO.P,C2,2*%
%TO.N,GND*%
X162687000Y-97866000D03*
%TD*%
D25*
%TO.P,C3,1*%
%TO.N,VBAT*%
X159678000Y-95390000D03*
%TO.P,C3,2*%
%TO.N,GND*%
X161578000Y-95390000D03*
%TD*%
D26*
%TO.P,C44,1*%
%TO.N,VBAT_IN*%
X139603000Y-109828000D03*
%TO.P,C44,2*%
%TO.N,GND*%
X139603000Y-107928000D03*
%TD*%
D25*
%TO.P,C5,1*%
%TO.N,VBAT*%
X164947000Y-97315000D03*
%TO.P,C5,2*%
%TO.N,GND*%
X166847000Y-97315000D03*
%TD*%
D27*
%TO.P,Q1,1*%
%TO.N,BEEP_G*%
X163864500Y-91744000D03*
%TO.P,Q1,2*%
%TO.N,GND*%
X163864500Y-93644000D03*
%TO.P,Q1,3*%
%TO.N,PAD_BZ-*%
X165739500Y-92694000D03*
%TD*%
D28*
%TO.P,Y1,1*%
%TO.N,HSE_IN*%
X138423000Y-103404000D03*
%TO.P,Y1,2*%
%TO.N,GND*%
X138423000Y-101204000D03*
%TO.P,Y1,3*%
%TO.N,HSE_OUT*%
X136723000Y-101204000D03*
%TO.P,Y1,4*%
%TO.N,GND*%
X136723000Y-103404000D03*
%TD*%
D29*
%TO.P,U4,1*%
%TO.N,+3V3*%
X149112500Y-99350000D03*
%TO.P,U4,2*%
%TO.N,NC_U4_2*%
X149112500Y-100000000D03*
%TO.P,U4,3*%
%TO.N,GND*%
X149112500Y-100650000D03*
%TO.P,U4,4*%
%TO.N,+5V*%
X150887500Y-100650000D03*
%TO.P,U4,5*%
%TO.N,NC_U4_5*%
X150887500Y-100000000D03*
%TO.P,U4,6*%
%TO.N,+5V*%
X150887500Y-99350000D03*
D30*
%TO.P,U4,7*%
%TO.N,GND*%
X150000000Y-100000000D03*
%TD*%
D31*
%TO.P,U21,1*%
%TO.N,AL_1*%
X151050000Y-106987500D03*
%TO.P,U21,2*%
%TO.N,BL_1*%
X151550000Y-106987500D03*
%TO.P,U21,3*%
%TO.N,CL_1*%
X152050000Y-106987500D03*
%TO.P,U21,4*%
%TO.N,+10V*%
X152550000Y-106987500D03*
%TO.P,U21,5*%
%TO.N,ND5_1*%
X153050000Y-106987500D03*
%TO.P,U21,6*%
%TO.N,GND*%
X153550000Y-106987500D03*
D32*
%TO.P,U21,7*%
%TO.N,ND7_1*%
X154287500Y-106250000D03*
%TO.P,U21,8*%
%TO.N,ND8_1*%
X154287500Y-105750000D03*
%TO.P,U21,9*%
%TO.N,GLC_1*%
X154287500Y-105250000D03*
%TO.P,U21,10*%
%TO.N,GLB_1*%
X154287500Y-104750000D03*
%TO.P,U21,11*%
%TO.N,GLA_1*%
X154287500Y-104250000D03*
%TO.P,U21,12*%
%TO.N,PH_C_1*%
X154287500Y-103750000D03*
D31*
%TO.P,U21,13*%
%TO.N,GHC_1*%
X153550000Y-103012500D03*
%TO.P,U21,14*%
%TO.N,BOOTC_1*%
X153050000Y-103012500D03*
%TO.P,U21,15*%
%TO.N,PH_B_1*%
X152550000Y-103012500D03*
%TO.P,U21,16*%
%TO.N,GHB_1*%
X152050000Y-103012500D03*
%TO.P,U21,17*%
%TO.N,BOOTB_1*%
X151550000Y-103012500D03*
%TO.P,U21,18*%
%TO.N,PH_A_1*%
X151050000Y-103012500D03*
D32*
%TO.P,U21,19*%
%TO.N,GHA_1*%
X150312500Y-103750000D03*
%TO.P,U21,20*%
%TO.N,BOOTA_1*%
X150312500Y-104250000D03*
%TO.P,U21,21*%
%TO.N,ND21_1*%
X150312500Y-104750000D03*
%TO.P,U21,22*%
%TO.N,AH_1*%
X150312500Y-105250000D03*
%TO.P,U21,23*%
%TO.N,BH_1*%
X150312500Y-105750000D03*
%TO.P,U21,24*%
%TO.N,CH_1*%
X150312500Y-106250000D03*
D33*
%TO.P,U21,25*%
%TO.N,GND*%
X152300000Y-105000000D03*
%TD*%
D34*
%TO.P,U31,1*%
%TO.N,AL_2*%
X156987500Y-98950000D03*
%TO.P,U31,2*%
%TO.N,BL_2*%
X156987500Y-98450000D03*
%TO.P,U31,3*%
%TO.N,CL_2*%
X156987500Y-97950000D03*
%TO.P,U31,4*%
%TO.N,+10V*%
X156987500Y-97450000D03*
%TO.P,U31,5*%
%TO.N,ND5_2*%
X156987500Y-96950000D03*
%TO.P,U31,6*%
%TO.N,GND*%
X156987500Y-96450000D03*
D35*
%TO.P,U31,7*%
%TO.N,ND7_2*%
X156250000Y-95712500D03*
%TO.P,U31,8*%
%TO.N,ND8_2*%
X155750000Y-95712500D03*
%TO.P,U31,9*%
%TO.N,GLC_2*%
X155250000Y-95712500D03*
%TO.P,U31,10*%
%TO.N,GLB_2*%
X154750000Y-95712500D03*
%TO.P,U31,11*%
%TO.N,GLA_2*%
X154250000Y-95712500D03*
%TO.P,U31,12*%
%TO.N,PH_C_2*%
X153750000Y-95712500D03*
D34*
%TO.P,U31,13*%
%TO.N,GHC_2*%
X153012500Y-96450000D03*
%TO.P,U31,14*%
%TO.N,BOOTC_2*%
X153012500Y-96950000D03*
%TO.P,U31,15*%
%TO.N,PH_B_2*%
X153012500Y-97450000D03*
%TO.P,U31,16*%
%TO.N,GHB_2*%
X153012500Y-97950000D03*
%TO.P,U31,17*%
%TO.N,BOOTB_2*%
X153012500Y-98450000D03*
%TO.P,U31,18*%
%TO.N,PH_A_2*%
X153012500Y-98950000D03*
D35*
%TO.P,U31,19*%
%TO.N,GHA_2*%
X153750000Y-99687500D03*
%TO.P,U31,20*%
%TO.N,BOOTA_2*%
X154250000Y-99687500D03*
%TO.P,U31,21*%
%TO.N,ND21_2*%
X154750000Y-99687500D03*
%TO.P,U31,22*%
%TO.N,AH_2*%
X155250000Y-99687500D03*
%TO.P,U31,23*%
%TO.N,BH_2*%
X155750000Y-99687500D03*
%TO.P,U31,24*%
%TO.N,CH_2*%
X156250000Y-99687500D03*
D36*
%TO.P,U31,25*%
%TO.N,GND*%
X155000000Y-97700000D03*
%TD*%
D37*
%TO.P,U41,1*%
%TO.N,AL_3*%
X143012500Y-101050000D03*
%TO.P,U41,2*%
%TO.N,BL_3*%
X143012500Y-101550000D03*
%TO.P,U41,3*%
%TO.N,CL_3*%
X143012500Y-102050000D03*
%TO.P,U41,4*%
%TO.N,+10V*%
X143012500Y-102550000D03*
%TO.P,U41,5*%
%TO.N,ND5_3*%
X143012500Y-103050000D03*
%TO.P,U41,6*%
%TO.N,GND*%
X143012500Y-103550000D03*
D38*
%TO.P,U41,7*%
%TO.N,ND7_3*%
X143750000Y-104287500D03*
%TO.P,U41,8*%
%TO.N,ND8_3*%
X144250000Y-104287500D03*
%TO.P,U41,9*%
%TO.N,GLC_3*%
X144750000Y-104287500D03*
%TO.P,U41,10*%
%TO.N,GLB_3*%
X145250000Y-104287500D03*
%TO.P,U41,11*%
%TO.N,GLA_3*%
X145750000Y-104287500D03*
%TO.P,U41,12*%
%TO.N,PH_C_3*%
X146250000Y-104287500D03*
D37*
%TO.P,U41,13*%
%TO.N,GHC_3*%
X146987500Y-103550000D03*
%TO.P,U41,14*%
%TO.N,BOOTC_3*%
X146987500Y-103050000D03*
%TO.P,U41,15*%
%TO.N,PH_B_3*%
X146987500Y-102550000D03*
%TO.P,U41,16*%
%TO.N,GHB_3*%
X146987500Y-102050000D03*
%TO.P,U41,17*%
%TO.N,BOOTB_3*%
X146987500Y-101550000D03*
%TO.P,U41,18*%
%TO.N,PH_A_3*%
X146987500Y-101050000D03*
D38*
%TO.P,U41,19*%
%TO.N,GHA_3*%
X146250000Y-100312500D03*
%TO.P,U41,20*%
%TO.N,BOOTA_3*%
X145750000Y-100312500D03*
%TO.P,U41,21*%
%TO.N,ND21_3*%
X145250000Y-100312500D03*
%TO.P,U41,22*%
%TO.N,AH_3*%
X144750000Y-100312500D03*
%TO.P,U41,23*%
%TO.N,BH_3*%
X144250000Y-100312500D03*
%TO.P,U41,24*%
%TO.N,CH_3*%
X143750000Y-100312500D03*
D39*
%TO.P,U41,25*%
%TO.N,GND*%
X145000000Y-102300000D03*
%TD*%
D40*
%TO.P,U51,1*%
%TO.N,AL_4*%
X148950000Y-93012500D03*
%TO.P,U51,2*%
%TO.N,BL_4*%
X148450000Y-93012500D03*
%TO.P,U51,3*%
%TO.N,CL_4*%
X147950000Y-93012500D03*
%TO.P,U51,4*%
%TO.N,+10V*%
X147450000Y-93012500D03*
%TO.P,U51,5*%
%TO.N,ND5_4*%
X146950000Y-93012500D03*
%TO.P,U51,6*%
%TO.N,GND*%
X146450000Y-93012500D03*
D41*
%TO.P,U51,7*%
%TO.N,ND7_4*%
X145712500Y-93750000D03*
%TO.P,U51,8*%
%TO.N,ND8_4*%
X145712500Y-94250000D03*
%TO.P,U51,9*%
%TO.N,GLC_4*%
X145712500Y-94750000D03*
%TO.P,U51,10*%
%TO.N,GLB_4*%
X145712500Y-95250000D03*
%TO.P,U51,11*%
%TO.N,GLA_4*%
X145712500Y-95750000D03*
%TO.P,U51,12*%
%TO.N,PH_C_4*%
X145712500Y-96250000D03*
D40*
%TO.P,U51,13*%
%TO.N,GHC_4*%
X146450000Y-96987500D03*
%TO.P,U51,14*%
%TO.N,BOOTC_4*%
X146950000Y-96987500D03*
%TO.P,U51,15*%
%TO.N,PH_B_4*%
X147450000Y-96987500D03*
%TO.P,U51,16*%
%TO.N,GHB_4*%
X147950000Y-96987500D03*
%TO.P,U51,17*%
%TO.N,BOOTB_4*%
X148450000Y-96987500D03*
%TO.P,U51,18*%
%TO.N,PH_A_4*%
X148950000Y-96987500D03*
D41*
%TO.P,U51,19*%
%TO.N,GHA_4*%
X149687500Y-96250000D03*
%TO.P,U51,20*%
%TO.N,BOOTA_4*%
X149687500Y-95750000D03*
%TO.P,U51,21*%
%TO.N,ND21_4*%
X149687500Y-95250000D03*
%TO.P,U51,22*%
%TO.N,AH_4*%
X149687500Y-94750000D03*
%TO.P,U51,23*%
%TO.N,BH_4*%
X149687500Y-94250000D03*
%TO.P,U51,24*%
%TO.N,CH_4*%
X149687500Y-93750000D03*
D42*
%TO.P,U51,25*%
%TO.N,GND*%
X147700000Y-95000000D03*
%TD*%
D43*
%TO.P,CVCC1,1*%
%TO.N,+10V*%
X152870000Y-109000000D03*
%TO.P,CVCC1,2*%
%TO.N,GND*%
X152230000Y-109000000D03*
%TD*%
D44*
%TO.P,CVCC2,1*%
%TO.N,+10V*%
X159000000Y-97770000D03*
%TO.P,CVCC2,2*%
%TO.N,GND*%
X159000000Y-97130000D03*
%TD*%
D45*
%TO.P,CVCC3,1*%
%TO.N,+10V*%
X141000000Y-102230000D03*
%TO.P,CVCC3,2*%
%TO.N,GND*%
X141000000Y-102870000D03*
%TD*%
D46*
%TO.P,CVCC4,1*%
%TO.N,+10V*%
X147130000Y-91000000D03*
%TO.P,CVCC4,2*%
%TO.N,GND*%
X147770000Y-91000000D03*
%TD*%
D44*
%TO.P,C20,1*%
%TO.N,+3V3*%
X158991000Y-99919000D03*
%TO.P,C20,2*%
%TO.N,GND*%
X158991000Y-99279000D03*
%TD*%
%TO.P,C21,1*%
%TO.N,+3V3*%
X141020000Y-100921000D03*
%TO.P,C21,2*%
%TO.N,GND*%
X141020000Y-100281000D03*
%TD*%
%TO.P,C22,1*%
%TO.N,+3V3*%
X139926000Y-101916000D03*
%TO.P,C22,2*%
%TO.N,GND*%
X139926000Y-101276000D03*
%TD*%
D46*
%TO.P,C6,1*%
%TO.N,VBAT*%
X161335000Y-110003000D03*
%TO.P,C6,2*%
%TO.N,GND*%
X161975000Y-110003000D03*
%TD*%
%TO.P,C7,1*%
%TO.N,CURR*%
X163173000Y-109997000D03*
%TO.P,C7,2*%
%TO.N,GND*%
X163813000Y-109997000D03*
%TD*%
%TO.P,C37,1*%
%TO.N,ADC_VBAT*%
X134087000Y-102131000D03*
%TO.P,C37,2*%
%TO.N,GND*%
X134727000Y-102131000D03*
%TD*%
D47*
%TO.P,J4,1*%
%TO.N,GND*%
X158800000Y-115300000D03*
%TD*%
%TO.P,J3,1*%
%TO.N,VBAT_IN*%
X153600000Y-115300000D03*
%TD*%
D48*
%TO.P,J10,1*%
%TO.N,PH_A_1*%
X166300000Y-110400000D03*
%TD*%
%TO.P,J11,1*%
%TO.N,PH_B_1*%
X166300000Y-113600000D03*
%TD*%
D49*
%TO.P,J12,1*%
%TO.N,PH_C_1*%
X163600000Y-116300000D03*
%TD*%
%TO.P,J13,1*%
%TO.N,PH_A_2*%
X160400000Y-83700000D03*
%TD*%
%TO.P,J14,1*%
%TO.N,PH_B_2*%
X163600000Y-83700000D03*
%TD*%
D48*
%TO.P,J15,1*%
%TO.N,PH_C_2*%
X166300000Y-86400000D03*
%TD*%
D49*
%TO.P,J16,1*%
%TO.N,PH_A_3*%
X139600000Y-116300000D03*
%TD*%
%TO.P,J17,1*%
%TO.N,PH_B_3*%
X136400000Y-116300000D03*
%TD*%
D48*
%TO.P,J18,1*%
%TO.N,PH_C_3*%
X133699999Y-113600000D03*
%TD*%
%TO.P,J19,1*%
%TO.N,PH_A_4*%
X133699999Y-89600000D03*
%TD*%
%TO.P,J20,1*%
%TO.N,PH_B_4*%
X133699999Y-86400000D03*
%TD*%
D49*
%TO.P,J21,1*%
%TO.N,PH_C_4*%
X136400000Y-83700000D03*
%TD*%
D50*
%TO.P,RS1,1*%
%TO.N,VBAT*%
X153837500Y-111200000D03*
%TO.P,RS1,2*%
%TO.N,VBAT_IN*%
X159762500Y-111200000D03*
%TD*%
D43*
%TO.P,RGAL1,1*%
%TO.N,GLA_1*%
X166220000Y-106805000D03*
%TO.P,RGAL1,2*%
%TO.N,GAL_1*%
X165580000Y-106805000D03*
%TD*%
D44*
%TO.P,RGAH1,1*%
%TO.N,GHA_1*%
X160400000Y-107125000D03*
%TO.P,RGAH1,2*%
%TO.N,GAH_1*%
X160400000Y-106485000D03*
%TD*%
D43*
%TO.P,RGBL1,1*%
%TO.N,GLB_1*%
X166220000Y-104025000D03*
%TO.P,RGBL1,2*%
%TO.N,GBL_1*%
X165580000Y-104025000D03*
%TD*%
D44*
%TO.P,RGBH1,1*%
%TO.N,GHB_1*%
X160400000Y-104345000D03*
%TO.P,RGBH1,2*%
%TO.N,GBH_1*%
X160400000Y-103705000D03*
%TD*%
D43*
%TO.P,RGCL1,1*%
%TO.N,GLC_1*%
X166220000Y-101245000D03*
%TO.P,RGCL1,2*%
%TO.N,GCL_1*%
X165580000Y-101245000D03*
%TD*%
D44*
%TO.P,RGCH1,1*%
%TO.N,GHC_1*%
X160400000Y-101565000D03*
%TO.P,RGCH1,2*%
%TO.N,GCH_1*%
X160400000Y-100925000D03*
%TD*%
%TO.P,RGAL2,1*%
%TO.N,GLA_2*%
X156805000Y-84420000D03*
%TO.P,RGAL2,2*%
%TO.N,GAL_2*%
X156805000Y-83780000D03*
%TD*%
D46*
%TO.P,RGAH2,1*%
%TO.N,GHA_2*%
X156485000Y-89600000D03*
%TO.P,RGAH2,2*%
%TO.N,GAH_2*%
X157125000Y-89600000D03*
%TD*%
D44*
%TO.P,RGBL2,1*%
%TO.N,GLB_2*%
X154025000Y-84420000D03*
%TO.P,RGBL2,2*%
%TO.N,GBL_2*%
X154025000Y-83780000D03*
%TD*%
D46*
%TO.P,RGBH2,1*%
%TO.N,GHB_2*%
X153705000Y-89600000D03*
%TO.P,RGBH2,2*%
%TO.N,GBH_2*%
X154345000Y-89600000D03*
%TD*%
D44*
%TO.P,RGCL2,1*%
%TO.N,GLC_2*%
X151245000Y-84420000D03*
%TO.P,RGCL2,2*%
%TO.N,GCL_2*%
X151245000Y-83780000D03*
%TD*%
D46*
%TO.P,RGCH2,1*%
%TO.N,GHC_2*%
X150925000Y-89600000D03*
%TO.P,RGCH2,2*%
%TO.N,GCH_2*%
X151565000Y-89600000D03*
%TD*%
D45*
%TO.P,RGAL3,1*%
%TO.N,GLA_3*%
X143195000Y-115580000D03*
%TO.P,RGAL3,2*%
%TO.N,GAL_3*%
X143195000Y-116220000D03*
%TD*%
D43*
%TO.P,RGAH3,1*%
%TO.N,GHA_3*%
X143515000Y-110400000D03*
%TO.P,RGAH3,2*%
%TO.N,GAH_3*%
X142875000Y-110400000D03*
%TD*%
D45*
%TO.P,RGBL3,1*%
%TO.N,GLB_3*%
X145975000Y-115580000D03*
%TO.P,RGBL3,2*%
%TO.N,GBL_3*%
X145975000Y-116220000D03*
%TD*%
D43*
%TO.P,RGBH3,1*%
%TO.N,GHB_3*%
X146295000Y-110400000D03*
%TO.P,RGBH3,2*%
%TO.N,GBH_3*%
X145655000Y-110400000D03*
%TD*%
D45*
%TO.P,RGCL3,1*%
%TO.N,GLC_3*%
X148755000Y-115580000D03*
%TO.P,RGCL3,2*%
%TO.N,GCL_3*%
X148755000Y-116220000D03*
%TD*%
D43*
%TO.P,RGCH3,1*%
%TO.N,GHC_3*%
X149075000Y-110400000D03*
%TO.P,RGCH3,2*%
%TO.N,GCH_3*%
X148435000Y-110400000D03*
%TD*%
D44*
%TO.P,R1,1*%
%TO.N,CURR_RAW*%
X150581000Y-115149000D03*
%TO.P,R1,2*%
%TO.N,CURR*%
X150581000Y-114509000D03*
%TD*%
D46*
%TO.P,RGAL4,1*%
%TO.N,GLA_4*%
X133780000Y-93195000D03*
%TO.P,RGAL4,2*%
%TO.N,GAL_4*%
X134420000Y-93195000D03*
%TD*%
D45*
%TO.P,RGAH4,1*%
%TO.N,GHA_4*%
X139600000Y-92875000D03*
%TO.P,RGAH4,2*%
%TO.N,GAH_4*%
X139600000Y-93515000D03*
%TD*%
D46*
%TO.P,RGBL4,1*%
%TO.N,GLB_4*%
X133780000Y-95975000D03*
%TO.P,RGBL4,2*%
%TO.N,GBL_4*%
X134420000Y-95975000D03*
%TD*%
D45*
%TO.P,RGBH4,1*%
%TO.N,GHB_4*%
X139600000Y-95655000D03*
%TO.P,RGBH4,2*%
%TO.N,GBH_4*%
X139600000Y-96295000D03*
%TD*%
D46*
%TO.P,RGCL4,1*%
%TO.N,GLC_4*%
X133780000Y-98755000D03*
%TO.P,RGCL4,2*%
%TO.N,GCL_4*%
X134420000Y-98755000D03*
%TD*%
D45*
%TO.P,RGCH4,1*%
%TO.N,GHC_4*%
X139600000Y-98435000D03*
%TO.P,RGCH4,2*%
%TO.N,GCH_4*%
X139600000Y-99075000D03*
%TD*%
D44*
%TO.P,RCA3,1*%
%TO.N,FBA_3*%
X140124000Y-112203000D03*
%TO.P,RCA3,2*%
%TO.N,FBCOM_3*%
X140124000Y-111563000D03*
%TD*%
%TO.P,RCB3,1*%
%TO.N,FBB_3*%
X140136000Y-114393000D03*
%TO.P,RCB3,2*%
%TO.N,FBCOM_3*%
X140136000Y-113753000D03*
%TD*%
%TO.P,RCC3,1*%
%TO.N,FBC_3*%
X141925000Y-116148000D03*
%TO.P,RCC3,2*%
%TO.N,FBCOM_3*%
X141925000Y-115508000D03*
%TD*%
%TO.P,RCB4,1*%
%TO.N,FBB_4*%
X135713000Y-106121000D03*
%TO.P,RCB4,2*%
%TO.N,FBCOM_4*%
X135713000Y-105481000D03*
%TD*%
%TO.P,RCC4,1*%
%TO.N,FBC_4*%
X135205000Y-103931000D03*
%TO.P,RCC4,2*%
%TO.N,FBCOM_4*%
X135205000Y-103291000D03*
%TD*%
%TO.P,RNA1,1*%
%TO.N,FBA_1*%
X165937000Y-116746999D03*
%TO.P,RNA1,2*%
%TO.N,GND*%
X165937000Y-116106999D03*
%TD*%
D46*
%TO.P,RNA2,1*%
%TO.N,FBA_2*%
X165526000Y-105371000D03*
%TO.P,RNA2,2*%
%TO.N,GND*%
X166166000Y-105371000D03*
%TD*%
D44*
%TO.P,RNA3,1*%
%TO.N,FBA_3*%
X136087000Y-109648000D03*
%TO.P,RNA3,2*%
%TO.N,GND*%
X136087000Y-109008000D03*
%TD*%
D46*
%TO.P,RNA4,1*%
%TO.N,FBA_4*%
X135466000Y-107277000D03*
%TO.P,RNA4,2*%
%TO.N,GND*%
X136106000Y-107277000D03*
%TD*%
%TO.P,RNB1,1*%
%TO.N,FBB_1*%
X165697000Y-107944000D03*
%TO.P,RNB1,2*%
%TO.N,GND*%
X166337000Y-107944000D03*
%TD*%
%TO.P,RNB2,1*%
%TO.N,FBB_2*%
X165593000Y-102807000D03*
%TO.P,RNB2,2*%
%TO.N,GND*%
X166233000Y-102807000D03*
%TD*%
D44*
%TO.P,RNB3,1*%
%TO.N,FBB_3*%
X144352000Y-116275000D03*
%TO.P,RNB3,2*%
%TO.N,GND*%
X144352000Y-115635000D03*
%TD*%
%TO.P,RNB4,1*%
%TO.N,FBB_4*%
X134587000Y-105763000D03*
%TO.P,RNB4,2*%
%TO.N,GND*%
X134587000Y-105123000D03*
%TD*%
%TO.P,RNC1,1*%
%TO.N,FBC_1*%
X150524000Y-116996999D03*
%TO.P,RNC1,2*%
%TO.N,GND*%
X150524000Y-116356999D03*
%TD*%
%TO.P,RNC2,1*%
%TO.N,FBC_2*%
X147598000Y-116207000D03*
%TO.P,RNC2,2*%
%TO.N,GND*%
X147598000Y-115567000D03*
%TD*%
%TO.P,RNC3,1*%
%TO.N,FBC_3*%
X134077000Y-116846000D03*
%TO.P,RNC3,2*%
%TO.N,GND*%
X134077000Y-116206000D03*
%TD*%
%TO.P,RNC4,1*%
%TO.N,FBC_4*%
X134103999Y-103942000D03*
%TO.P,RNC4,2*%
%TO.N,GND*%
X134103999Y-103302000D03*
%TD*%
D46*
%TO.P,R10,1*%
%TO.N,LED0_K*%
X143689000Y-88807000D03*
%TO.P,R10,2*%
%TO.N,LED0*%
X144329000Y-88807000D03*
%TD*%
D44*
%TO.P,R11,1*%
%TO.N,LED1_K*%
X140147000Y-90115000D03*
%TO.P,R11,2*%
%TO.N,LED1*%
X140147000Y-89475000D03*
%TD*%
D46*
%TO.P,R15,1*%
%TO.N,PAD_RSSI*%
X137554000Y-90132000D03*
%TO.P,R15,2*%
%TO.N,ADC_RSSI*%
X138194000Y-90132000D03*
%TD*%
%TO.P,R14,1*%
%TO.N,ADC_RSSI*%
X141241000Y-87848000D03*
%TO.P,R14,2*%
%TO.N,GND*%
X141881000Y-87848000D03*
%TD*%
%TO.P,R16,1*%
%TO.N,BEEP_GATE*%
X159890000Y-93697000D03*
%TO.P,R16,2*%
%TO.N,BEEP_G*%
X160530000Y-93697000D03*
%TD*%
D44*
%TO.P,R17,1*%
%TO.N,BEEP_G*%
X162197000Y-93041000D03*
%TO.P,R17,2*%
%TO.N,GND*%
X162197000Y-92401000D03*
%TD*%
D46*
%TO.P,R18,1*%
%TO.N,LED_STRIP*%
X159914000Y-92562000D03*
%TO.P,R18,2*%
%TO.N,PAD_LED*%
X160554000Y-92562000D03*
%TD*%
D44*
%TO.P,RSIG1,1*%
%TO.N,M1*%
X160064000Y-91483000D03*
%TO.P,RSIG1,2*%
%TO.N,DSHOT_I_1*%
X160064000Y-90843000D03*
%TD*%
D46*
%TO.P,RSIG2,1*%
%TO.N,M2*%
X149476000Y-87701000D03*
%TO.P,RSIG2,2*%
%TO.N,DSHOT_I_2*%
X150116000Y-87701000D03*
%TD*%
D44*
%TO.P,RSIG3,1*%
%TO.N,M3*%
X135014000Y-109279000D03*
%TO.P,RSIG3,2*%
%TO.N,DSHOT_I_3*%
X135014000Y-108639000D03*
%TD*%
%TO.P,RSIG4,1*%
%TO.N,M4*%
X135127000Y-100907000D03*
%TO.P,RSIG4,2*%
%TO.N,DSHOT_I_4*%
X135127000Y-100267000D03*
%TD*%
%TO.P,R12,1*%
%TO.N,VBAT*%
X134041000Y-100657000D03*
%TO.P,R12,2*%
%TO.N,ADC_VBAT*%
X134041000Y-100017000D03*
%TD*%
%TO.P,R13,1*%
%TO.N,ADC_VBAT*%
X132901999Y-101354000D03*
%TO.P,R13,2*%
%TO.N,GND*%
X132901999Y-100714000D03*
%TD*%
D46*
%TO.P,R6,1*%
%TO.N,+5V*%
X133593000Y-107027000D03*
%TO.P,R6,2*%
%TO.N,+5V_LED*%
X134233000Y-107027000D03*
%TD*%
%TO.P,R7,1*%
%TO.N,+3V3*%
X147375000Y-88600000D03*
%TO.P,R7,2*%
%TO.N,+3V3_LED*%
X148015000Y-88600000D03*
%TD*%
D51*
%TO.P,D5,1*%
%TO.N,GND*%
X139955000Y-104095000D03*
%TO.P,D5,2*%
%TO.N,+5V_LED*%
X140925000Y-104095000D03*
%TD*%
%TO.P,D6,1*%
%TO.N,GND*%
X147425000Y-89812000D03*
%TO.P,D6,2*%
%TO.N,+3V3_LED*%
X148395000Y-89812000D03*
%TD*%
D52*
%TO.P,D7,1*%
%TO.N,LED0_K*%
X145897000Y-90711000D03*
%TO.P,D7,2*%
%TO.N,+3V3*%
X145897000Y-89741000D03*
%TD*%
D51*
%TO.P,D8,1*%
%TO.N,LED1_K*%
X143600000Y-90022000D03*
%TO.P,D8,2*%
%TO.N,+3V3*%
X144570000Y-90022000D03*
%TD*%
D53*
%TO.P,J1,S1*%
%TO.N,GND*%
X150140000Y-89620000D03*
D54*
X150140000Y-85440000D03*
D53*
X141500000Y-89620000D03*
D54*
X141500000Y-85440000D03*
%TD*%
M02*
