%TF.GenerationSoftware,KiCad,Pcbnew,7.0.11+dfsg-1build4*%
%TF.CreationDate,2026-08-10T02:10:54+00:00*%
%TF.ProjectId,oa35-aio,6f613335-2d61-4696-9f2e-6b696361645f,rev?*%
%TF.SameCoordinates,Original*%
%TF.FileFunction,Soldermask,Top*%
%TF.FilePolarity,Negative*%
%FSLAX46Y46*%
G04 Gerber Fmt 4.6, Leading zero omitted, Abs format (unit mm)*
G04 Created by KiCad (PCBNEW 7.0.11+dfsg-1build4) date 2026-08-10 02:10:54*
%MOMM*%
%LPD*%
G01*
G04 APERTURE LIST*
G04 Aperture macros list*
%AMRoundRect*
0 Rectangle with rounded corners*
0 $1 Rounding radius*
0 $2 $3 $4 $5 $6 $7 $8 $9 X,Y pos of 4 corners*
0 Add a 4 corners polygon primitive as box body*
4,1,4,$2,$3,$4,$5,$6,$7,$8,$9,$2,$3,0*
0 Add four circle primitives for the rounded corners*
1,1,$1+$1,$2,$3*
1,1,$1+$1,$4,$5*
1,1,$1+$1,$6,$7*
1,1,$1+$1,$8,$9*
0 Add four rect primitives between the rounded corners*
20,1,$1+$1,$2,$3,$4,$5,0*
20,1,$1+$1,$4,$5,$6,$7,0*
20,1,$1+$1,$6,$7,$8,$9,0*
20,1,$1+$1,$8,$9,$2,$3,0*%
%AMFreePoly0*
4,1,17,1.395000,0.765000,0.855000,0.765000,0.855000,0.535000,1.395000,0.535000,1.395000,0.115000,0.855000,0.115000,0.855000,-0.115000,1.395000,-0.115000,1.395000,-0.535000,0.855000,-0.535000,0.855000,-0.765000,1.395000,-0.765000,1.395000,-1.185000,-0.855000,-1.185000,-0.855000,1.185000,1.395000,1.185000,1.395000,0.765000,1.395000,0.765000,$1*%
G04 Aperture macros list end*
%ADD10RoundRect,0.100000X-0.225000X-0.100000X0.225000X-0.100000X0.225000X0.100000X-0.225000X0.100000X0*%
%ADD11RoundRect,0.250000X0.300000X-0.300000X0.300000X0.300000X-0.300000X0.300000X-0.300000X-0.300000X0*%
%ADD12RoundRect,0.250000X-0.300000X-0.300000X0.300000X-0.300000X0.300000X0.300000X-0.300000X0.300000X0*%
%ADD13RoundRect,0.105000X0.245000X0.105000X-0.245000X0.105000X-0.245000X-0.105000X0.245000X-0.105000X0*%
%ADD14FreePoly0,180.000000*%
%ADD15RoundRect,0.105000X-0.105000X0.245000X-0.105000X-0.245000X0.105000X-0.245000X0.105000X0.245000X0*%
%ADD16FreePoly0,270.000000*%
%ADD17RoundRect,0.105000X0.105000X-0.245000X0.105000X0.245000X-0.105000X0.245000X-0.105000X-0.245000X0*%
%ADD18FreePoly0,90.000000*%
%ADD19RoundRect,0.105000X-0.245000X-0.105000X0.245000X-0.105000X0.245000X0.105000X-0.245000X0.105000X0*%
%ADD20FreePoly0,0.000000*%
%ADD21RoundRect,0.140000X0.170000X-0.140000X0.170000X0.140000X-0.170000X0.140000X-0.170000X-0.140000X0*%
%ADD22RoundRect,0.140000X-0.140000X-0.170000X0.140000X-0.170000X0.140000X0.170000X-0.140000X0.170000X0*%
%ADD23RoundRect,0.140000X0.140000X0.170000X-0.140000X0.170000X-0.140000X-0.170000X0.140000X-0.170000X0*%
%ADD24RoundRect,0.140000X-0.170000X0.140000X-0.170000X-0.140000X0.170000X-0.140000X0.170000X0.140000X0*%
%ADD25RoundRect,0.250000X-0.250000X-0.475000X0.250000X-0.475000X0.250000X0.475000X-0.250000X0.475000X0*%
%ADD26RoundRect,0.250000X0.475000X-0.250000X0.475000X0.250000X-0.475000X0.250000X-0.475000X-0.250000X0*%
%ADD27RoundRect,0.150000X-0.587500X-0.150000X0.587500X-0.150000X0.587500X0.150000X-0.587500X0.150000X0*%
%ADD28R,1.200000X1.400000*%
%ADD29RoundRect,0.093750X-0.093750X-0.106250X0.093750X-0.106250X0.093750X0.106250X-0.093750X0.106250X0*%
%ADD30R,1.000000X1.600000*%
%ADD31C,3.000000*%
%ADD32RoundRect,0.062500X0.062500X-0.325000X0.062500X0.325000X-0.062500X0.325000X-0.062500X-0.325000X0*%
%ADD33RoundRect,0.062500X0.325000X-0.062500X0.325000X0.062500X-0.325000X0.062500X-0.325000X-0.062500X0*%
%ADD34RoundRect,0.700000X0.700000X-0.700000X0.700000X0.700000X-0.700000X0.700000X-0.700000X-0.700000X0*%
%ADD35RoundRect,0.062500X0.325000X0.062500X-0.325000X0.062500X-0.325000X-0.062500X0.325000X-0.062500X0*%
%ADD36RoundRect,0.062500X0.062500X0.325000X-0.062500X0.325000X-0.062500X-0.325000X0.062500X-0.325000X0*%
%ADD37RoundRect,0.700000X0.700000X0.700000X-0.700000X0.700000X-0.700000X-0.700000X0.700000X-0.700000X0*%
%ADD38RoundRect,0.062500X-0.325000X-0.062500X0.325000X-0.062500X0.325000X0.062500X-0.325000X0.062500X0*%
%ADD39RoundRect,0.062500X-0.062500X-0.325000X0.062500X-0.325000X0.062500X0.325000X-0.062500X0.325000X0*%
%ADD40RoundRect,0.700000X-0.700000X-0.700000X0.700000X-0.700000X0.700000X0.700000X-0.700000X0.700000X0*%
%ADD41RoundRect,0.062500X-0.062500X0.325000X-0.062500X-0.325000X0.062500X-0.325000X0.062500X0.325000X0*%
%ADD42RoundRect,0.062500X-0.325000X0.062500X-0.325000X-0.062500X0.325000X-0.062500X0.325000X0.062500X0*%
%ADD43RoundRect,0.700000X-0.700000X0.700000X-0.700000X-0.700000X0.700000X-0.700000X0.700000X0.700000X0*%
%ADD44RoundRect,0.100000X0.130000X0.100000X-0.130000X0.100000X-0.130000X-0.100000X0.130000X-0.100000X0*%
%ADD45RoundRect,0.100000X0.100000X-0.130000X0.100000X0.130000X-0.100000X0.130000X-0.100000X-0.130000X0*%
%ADD46RoundRect,0.100000X-0.100000X0.130000X-0.100000X-0.130000X0.100000X-0.130000X0.100000X0.130000X0*%
%ADD47RoundRect,0.100000X-0.130000X-0.100000X0.130000X-0.100000X0.130000X0.100000X-0.130000X0.100000X0*%
%ADD48R,4.000000X3.000000*%
%ADD49R,2.000000X2.800000*%
%ADD50R,2.800000X2.000000*%
%ADD51RoundRect,0.250000X-0.362500X-1.425000X0.362500X-1.425000X0.362500X1.425000X-0.362500X1.425000X0*%
%ADD52RoundRect,0.147500X-0.147500X-0.172500X0.147500X-0.172500X0.147500X0.172500X-0.147500X0.172500X0*%
%ADD53RoundRect,0.147500X0.172500X-0.147500X0.172500X0.147500X-0.172500X0.147500X-0.172500X-0.147500X0*%
%ADD54C,0.650000*%
%ADD55O,1.000000X1.600000*%
%ADD56O,1.000000X2.100000*%
G04 APERTURE END LIST*
D10*
%TO.C,U1*%
X150050000Y-111750000D03*
X150050000Y-112400000D03*
X150050000Y-113050000D03*
X151950000Y-113050000D03*
X151950000Y-112400000D03*
X151950000Y-111750000D03*
%TD*%
D11*
%TO.C,D1*%
X137592000Y-109880000D03*
X137592000Y-107080000D03*
%TD*%
D12*
%TO.C,D2*%
X163430000Y-95184000D03*
X166230000Y-95184000D03*
%TD*%
D13*
%TO.C,QAL1*%
X164250000Y-108755000D03*
X164250000Y-108105000D03*
X164250000Y-107455000D03*
X164250000Y-106805000D03*
D14*
X162295000Y-107780000D03*
%TD*%
D13*
%TO.C,QAH1*%
X159500000Y-108755000D03*
X159500000Y-108105000D03*
X159500000Y-107455000D03*
X159500000Y-106805000D03*
D14*
X157545000Y-107780000D03*
%TD*%
D13*
%TO.C,QBL1*%
X164250000Y-105975000D03*
X164250000Y-105325000D03*
X164250000Y-104675000D03*
X164250000Y-104025000D03*
D14*
X162295000Y-105000000D03*
%TD*%
D13*
%TO.C,QBH1*%
X159500000Y-105975000D03*
X159500000Y-105325000D03*
X159500000Y-104675000D03*
X159500000Y-104025000D03*
D14*
X157545000Y-105000000D03*
%TD*%
D13*
%TO.C,QCL1*%
X164250000Y-103195000D03*
X164250000Y-102545000D03*
X164250000Y-101895000D03*
X164250000Y-101245000D03*
D14*
X162295000Y-102220000D03*
%TD*%
D13*
%TO.C,QCH1*%
X159500000Y-103195000D03*
X159500000Y-102545000D03*
X159500000Y-101895000D03*
X159500000Y-101245000D03*
D14*
X157545000Y-102220000D03*
%TD*%
D15*
%TO.C,QAL2*%
X158755000Y-85750000D03*
X158105000Y-85750000D03*
X157455000Y-85750000D03*
X156805000Y-85750000D03*
D16*
X157780000Y-87705000D03*
%TD*%
D15*
%TO.C,QAH2*%
X158755000Y-90500000D03*
X158105000Y-90500000D03*
X157455000Y-90500000D03*
X156805000Y-90500000D03*
D16*
X157780000Y-92455000D03*
%TD*%
D15*
%TO.C,QBL2*%
X155975000Y-85750000D03*
X155325000Y-85750000D03*
X154675000Y-85750000D03*
X154025000Y-85750000D03*
D16*
X155000000Y-87705000D03*
%TD*%
D15*
%TO.C,QBH2*%
X155975000Y-90500000D03*
X155325000Y-90500000D03*
X154675000Y-90500000D03*
X154025000Y-90500000D03*
D16*
X155000000Y-92455000D03*
%TD*%
D15*
%TO.C,QCL2*%
X153195000Y-85750000D03*
X152545000Y-85750000D03*
X151895000Y-85750000D03*
X151245000Y-85750000D03*
D16*
X152220000Y-87705000D03*
%TD*%
D15*
%TO.C,QCH2*%
X153195000Y-90500000D03*
X152545000Y-90500000D03*
X151895000Y-90500000D03*
X151245000Y-90500000D03*
D16*
X152220000Y-92455000D03*
%TD*%
D17*
%TO.C,QAL3*%
X141245000Y-114250000D03*
X141895000Y-114250000D03*
X142545000Y-114250000D03*
X143195000Y-114250000D03*
D18*
X142220000Y-112295000D03*
%TD*%
D17*
%TO.C,QAH3*%
X141245000Y-109500000D03*
X141895000Y-109500000D03*
X142545000Y-109500000D03*
X143195000Y-109500000D03*
D18*
X142220000Y-107545000D03*
%TD*%
D17*
%TO.C,QBL3*%
X144025000Y-114250000D03*
X144675000Y-114250000D03*
X145325000Y-114250000D03*
X145975000Y-114250000D03*
D18*
X145000000Y-112295000D03*
%TD*%
D17*
%TO.C,QBH3*%
X144025000Y-109500000D03*
X144675000Y-109500000D03*
X145325000Y-109500000D03*
X145975000Y-109500000D03*
D18*
X145000000Y-107545000D03*
%TD*%
D17*
%TO.C,QCL3*%
X146805000Y-114250000D03*
X147455000Y-114250000D03*
X148105000Y-114250000D03*
X148755000Y-114250000D03*
D18*
X147780000Y-112295000D03*
%TD*%
D17*
%TO.C,QCH3*%
X146805000Y-109500000D03*
X147455000Y-109500000D03*
X148105000Y-109500000D03*
X148755000Y-109500000D03*
D18*
X147780000Y-107545000D03*
%TD*%
D19*
%TO.C,QAL4*%
X135750000Y-91245000D03*
X135750000Y-91895000D03*
X135750000Y-92545000D03*
X135750000Y-93195000D03*
D20*
X137705000Y-92220000D03*
%TD*%
D19*
%TO.C,QAH4*%
X140500000Y-91245000D03*
X140500000Y-91895000D03*
X140500000Y-92545000D03*
X140500000Y-93195000D03*
D20*
X142455000Y-92220000D03*
%TD*%
D19*
%TO.C,QBL4*%
X135750000Y-94025000D03*
X135750000Y-94675000D03*
X135750000Y-95325000D03*
X135750000Y-95975000D03*
D20*
X137705000Y-95000000D03*
%TD*%
D19*
%TO.C,QBH4*%
X140500000Y-94025000D03*
X140500000Y-94675000D03*
X140500000Y-95325000D03*
X140500000Y-95975000D03*
D20*
X142455000Y-95000000D03*
%TD*%
D19*
%TO.C,QCL4*%
X135750000Y-96805000D03*
X135750000Y-97455000D03*
X135750000Y-98105000D03*
X135750000Y-98755000D03*
D20*
X137705000Y-97780000D03*
%TD*%
D19*
%TO.C,QCH4*%
X140500000Y-96805000D03*
X140500000Y-97455000D03*
X140500000Y-98105000D03*
X140500000Y-98755000D03*
D20*
X142455000Y-97780000D03*
%TD*%
D21*
%TO.C,CBSA1*%
X155500000Y-108260000D03*
X155500000Y-107300000D03*
%TD*%
%TO.C,CBSB1*%
X155500000Y-105480000D03*
X155500000Y-104520000D03*
%TD*%
%TO.C,CBSC1*%
X155500000Y-102700000D03*
X155500000Y-101740000D03*
%TD*%
D22*
%TO.C,CBSA2*%
X157300000Y-94500000D03*
X158260000Y-94500000D03*
%TD*%
%TO.C,CBSB2*%
X154520000Y-94500000D03*
X155480000Y-94500000D03*
%TD*%
%TO.C,CBSC2*%
X151740000Y-94500000D03*
X152700000Y-94500000D03*
%TD*%
D23*
%TO.C,CBSA3*%
X142700000Y-105500000D03*
X141740000Y-105500000D03*
%TD*%
%TO.C,CBSB3*%
X145480000Y-105500000D03*
X144520000Y-105500000D03*
%TD*%
%TO.C,CBSC3*%
X148260000Y-105500000D03*
X147300000Y-105500000D03*
%TD*%
D24*
%TO.C,CBSA4*%
X144500000Y-91740000D03*
X144500000Y-92700000D03*
%TD*%
%TO.C,CBSB4*%
X144500000Y-94520000D03*
X144500000Y-95480000D03*
%TD*%
%TO.C,CBSC4*%
X144500000Y-97300000D03*
X144500000Y-98260000D03*
%TD*%
D21*
%TO.C,C19*%
X151003000Y-110027000D03*
X151003000Y-109067000D03*
%TD*%
D22*
%TO.C,C35*%
X139079000Y-105452000D03*
X140039000Y-105452000D03*
%TD*%
%TO.C,C36*%
X136882000Y-105100000D03*
X137842000Y-105100000D03*
%TD*%
D25*
%TO.C,C4*%
X164807000Y-99418000D03*
X166707000Y-99418000D03*
%TD*%
D26*
%TO.C,C1*%
X160622000Y-99543000D03*
X160622000Y-97643000D03*
%TD*%
%TO.C,C2*%
X162687000Y-99766000D03*
X162687000Y-97866000D03*
%TD*%
D25*
%TO.C,C3*%
X159678000Y-95390000D03*
X161578000Y-95390000D03*
%TD*%
D26*
%TO.C,C44*%
X139603000Y-109828000D03*
X139603000Y-107928000D03*
%TD*%
D25*
%TO.C,C5*%
X164947000Y-97315000D03*
X166847000Y-97315000D03*
%TD*%
D27*
%TO.C,Q1*%
X163864500Y-91744000D03*
X163864500Y-93644000D03*
X165739500Y-92694000D03*
%TD*%
D28*
%TO.C,Y1*%
X138423000Y-103404000D03*
X138423000Y-101204000D03*
X136723000Y-101204000D03*
X136723000Y-103404000D03*
%TD*%
D29*
%TO.C,U4*%
X149112500Y-99350000D03*
X149112500Y-100000000D03*
X149112500Y-100650000D03*
X150887500Y-100650000D03*
X150887500Y-100000000D03*
X150887500Y-99350000D03*
D30*
X150000000Y-100000000D03*
%TD*%
D31*
%TO.C,H3*%
X137250000Y-112750000D03*
%TD*%
%TO.C,H4*%
X137250000Y-87250000D03*
%TD*%
%TO.C,H2*%
X162750000Y-87250000D03*
%TD*%
%TO.C,H1*%
X162750000Y-112750000D03*
%TD*%
D32*
%TO.C,U21*%
X151050000Y-106987500D03*
X151550000Y-106987500D03*
X152050000Y-106987500D03*
X152550000Y-106987500D03*
X153050000Y-106987500D03*
X153550000Y-106987500D03*
D33*
X154287500Y-106250000D03*
X154287500Y-105750000D03*
X154287500Y-105250000D03*
X154287500Y-104750000D03*
X154287500Y-104250000D03*
X154287500Y-103750000D03*
D32*
X153550000Y-103012500D03*
X153050000Y-103012500D03*
X152550000Y-103012500D03*
X152050000Y-103012500D03*
X151550000Y-103012500D03*
X151050000Y-103012500D03*
D33*
X150312500Y-103750000D03*
X150312500Y-104250000D03*
X150312500Y-104750000D03*
X150312500Y-105250000D03*
X150312500Y-105750000D03*
X150312500Y-106250000D03*
D34*
X152300000Y-105000000D03*
%TD*%
D35*
%TO.C,U31*%
X156987500Y-98950000D03*
X156987500Y-98450000D03*
X156987500Y-97950000D03*
X156987500Y-97450000D03*
X156987500Y-96950000D03*
X156987500Y-96450000D03*
D36*
X156250000Y-95712500D03*
X155750000Y-95712500D03*
X155250000Y-95712500D03*
X154750000Y-95712500D03*
X154250000Y-95712500D03*
X153750000Y-95712500D03*
D35*
X153012500Y-96450000D03*
X153012500Y-96950000D03*
X153012500Y-97450000D03*
X153012500Y-97950000D03*
X153012500Y-98450000D03*
X153012500Y-98950000D03*
D36*
X153750000Y-99687500D03*
X154250000Y-99687500D03*
X154750000Y-99687500D03*
X155250000Y-99687500D03*
X155750000Y-99687500D03*
X156250000Y-99687500D03*
D37*
X155000000Y-97700000D03*
%TD*%
D38*
%TO.C,U41*%
X143012500Y-101050000D03*
X143012500Y-101550000D03*
X143012500Y-102050000D03*
X143012500Y-102550000D03*
X143012500Y-103050000D03*
X143012500Y-103550000D03*
D39*
X143750000Y-104287500D03*
X144250000Y-104287500D03*
X144750000Y-104287500D03*
X145250000Y-104287500D03*
X145750000Y-104287500D03*
X146250000Y-104287500D03*
D38*
X146987500Y-103550000D03*
X146987500Y-103050000D03*
X146987500Y-102550000D03*
X146987500Y-102050000D03*
X146987500Y-101550000D03*
X146987500Y-101050000D03*
D39*
X146250000Y-100312500D03*
X145750000Y-100312500D03*
X145250000Y-100312500D03*
X144750000Y-100312500D03*
X144250000Y-100312500D03*
X143750000Y-100312500D03*
D40*
X145000000Y-102300000D03*
%TD*%
D41*
%TO.C,U51*%
X148950000Y-93012500D03*
X148450000Y-93012500D03*
X147950000Y-93012500D03*
X147450000Y-93012500D03*
X146950000Y-93012500D03*
X146450000Y-93012500D03*
D42*
X145712500Y-93750000D03*
X145712500Y-94250000D03*
X145712500Y-94750000D03*
X145712500Y-95250000D03*
X145712500Y-95750000D03*
X145712500Y-96250000D03*
D41*
X146450000Y-96987500D03*
X146950000Y-96987500D03*
X147450000Y-96987500D03*
X147950000Y-96987500D03*
X148450000Y-96987500D03*
X148950000Y-96987500D03*
D42*
X149687500Y-96250000D03*
X149687500Y-95750000D03*
X149687500Y-95250000D03*
X149687500Y-94750000D03*
X149687500Y-94250000D03*
X149687500Y-93750000D03*
D43*
X147700000Y-95000000D03*
%TD*%
D44*
%TO.C,CVCC1*%
X152870000Y-109000000D03*
X152230000Y-109000000D03*
%TD*%
D45*
%TO.C,CVCC2*%
X159000000Y-97770000D03*
X159000000Y-97130000D03*
%TD*%
D46*
%TO.C,CVCC3*%
X141000000Y-102230000D03*
X141000000Y-102870000D03*
%TD*%
D47*
%TO.C,CVCC4*%
X147130000Y-91000000D03*
X147770000Y-91000000D03*
%TD*%
D45*
%TO.C,C20*%
X158991000Y-99919000D03*
X158991000Y-99279000D03*
%TD*%
%TO.C,C21*%
X141020000Y-100921000D03*
X141020000Y-100281000D03*
%TD*%
%TO.C,C22*%
X139926000Y-101916000D03*
X139926000Y-101276000D03*
%TD*%
D47*
%TO.C,C6*%
X161335000Y-110003000D03*
X161975000Y-110003000D03*
%TD*%
%TO.C,C7*%
X163173000Y-109997000D03*
X163813000Y-109997000D03*
%TD*%
%TO.C,C37*%
X134087000Y-102131000D03*
X134727000Y-102131000D03*
%TD*%
D48*
%TO.C,J4*%
X158800000Y-115300000D03*
%TD*%
%TO.C,J3*%
X153600000Y-115300000D03*
%TD*%
D49*
%TO.C,J10*%
X166300000Y-110400000D03*
%TD*%
%TO.C,J11*%
X166300000Y-113600000D03*
%TD*%
D50*
%TO.C,J12*%
X163600000Y-116300000D03*
%TD*%
%TO.C,J13*%
X160400000Y-83700000D03*
%TD*%
%TO.C,J14*%
X163600000Y-83700000D03*
%TD*%
D49*
%TO.C,J15*%
X166300000Y-86400000D03*
%TD*%
D50*
%TO.C,J16*%
X139600000Y-116300000D03*
%TD*%
%TO.C,J17*%
X136400000Y-116300000D03*
%TD*%
D49*
%TO.C,J18*%
X133699999Y-113600000D03*
%TD*%
%TO.C,J19*%
X133699999Y-89600000D03*
%TD*%
%TO.C,J20*%
X133699999Y-86400000D03*
%TD*%
D50*
%TO.C,J21*%
X136400000Y-83700000D03*
%TD*%
D51*
%TO.C,RS1*%
X153837500Y-111200000D03*
X159762500Y-111200000D03*
%TD*%
D44*
%TO.C,RGAL1*%
X166220000Y-106805000D03*
X165580000Y-106805000D03*
%TD*%
D45*
%TO.C,RGAH1*%
X160400000Y-107125000D03*
X160400000Y-106485000D03*
%TD*%
D44*
%TO.C,RGBL1*%
X166220000Y-104025000D03*
X165580000Y-104025000D03*
%TD*%
D45*
%TO.C,RGBH1*%
X160400000Y-104345000D03*
X160400000Y-103705000D03*
%TD*%
D44*
%TO.C,RGCL1*%
X166220000Y-101245000D03*
X165580000Y-101245000D03*
%TD*%
D45*
%TO.C,RGCH1*%
X160400000Y-101565000D03*
X160400000Y-100925000D03*
%TD*%
%TO.C,RGAL2*%
X156805000Y-84420000D03*
X156805000Y-83780000D03*
%TD*%
D47*
%TO.C,RGAH2*%
X156485000Y-89600000D03*
X157125000Y-89600000D03*
%TD*%
D45*
%TO.C,RGBL2*%
X154025000Y-84420000D03*
X154025000Y-83780000D03*
%TD*%
D47*
%TO.C,RGBH2*%
X153705000Y-89600000D03*
X154345000Y-89600000D03*
%TD*%
D45*
%TO.C,RGCL2*%
X151245000Y-84420000D03*
X151245000Y-83780000D03*
%TD*%
D47*
%TO.C,RGCH2*%
X150925000Y-89600000D03*
X151565000Y-89600000D03*
%TD*%
D46*
%TO.C,RGAL3*%
X143195000Y-115580000D03*
X143195000Y-116220000D03*
%TD*%
D44*
%TO.C,RGAH3*%
X143515000Y-110400000D03*
X142875000Y-110400000D03*
%TD*%
D46*
%TO.C,RGBL3*%
X145975000Y-115580000D03*
X145975000Y-116220000D03*
%TD*%
D44*
%TO.C,RGBH3*%
X146295000Y-110400000D03*
X145655000Y-110400000D03*
%TD*%
D46*
%TO.C,RGCL3*%
X148755000Y-115580000D03*
X148755000Y-116220000D03*
%TD*%
D44*
%TO.C,RGCH3*%
X149075000Y-110400000D03*
X148435000Y-110400000D03*
%TD*%
D45*
%TO.C,R1*%
X150581000Y-115149000D03*
X150581000Y-114509000D03*
%TD*%
D47*
%TO.C,RGAL4*%
X133780000Y-93195000D03*
X134420000Y-93195000D03*
%TD*%
D46*
%TO.C,RGAH4*%
X139600000Y-92875000D03*
X139600000Y-93515000D03*
%TD*%
D47*
%TO.C,RGBL4*%
X133780000Y-95975000D03*
X134420000Y-95975000D03*
%TD*%
D46*
%TO.C,RGBH4*%
X139600000Y-95655000D03*
X139600000Y-96295000D03*
%TD*%
D47*
%TO.C,RGCL4*%
X133780000Y-98755000D03*
X134420000Y-98755000D03*
%TD*%
D46*
%TO.C,RGCH4*%
X139600000Y-98435000D03*
X139600000Y-99075000D03*
%TD*%
D45*
%TO.C,RCA3*%
X140124000Y-112203000D03*
X140124000Y-111563000D03*
%TD*%
%TO.C,RCB3*%
X140136000Y-114393000D03*
X140136000Y-113753000D03*
%TD*%
%TO.C,RCC3*%
X141925000Y-116148000D03*
X141925000Y-115508000D03*
%TD*%
%TO.C,RCB4*%
X135713000Y-106121000D03*
X135713000Y-105481000D03*
%TD*%
%TO.C,RCC4*%
X135205000Y-103931000D03*
X135205000Y-103291000D03*
%TD*%
%TO.C,RNA1*%
X165937000Y-116746999D03*
X165937000Y-116106999D03*
%TD*%
D47*
%TO.C,RNA2*%
X165526000Y-105371000D03*
X166166000Y-105371000D03*
%TD*%
D45*
%TO.C,RNA3*%
X136087000Y-109648000D03*
X136087000Y-109008000D03*
%TD*%
D47*
%TO.C,RNA4*%
X135466000Y-107277000D03*
X136106000Y-107277000D03*
%TD*%
%TO.C,RNB1*%
X165697000Y-107944000D03*
X166337000Y-107944000D03*
%TD*%
%TO.C,RNB2*%
X165593000Y-102807000D03*
X166233000Y-102807000D03*
%TD*%
D45*
%TO.C,RNB3*%
X144352000Y-116275000D03*
X144352000Y-115635000D03*
%TD*%
%TO.C,RNB4*%
X134587000Y-105763000D03*
X134587000Y-105123000D03*
%TD*%
%TO.C,RNC1*%
X150524000Y-116996999D03*
X150524000Y-116356999D03*
%TD*%
%TO.C,RNC2*%
X147598000Y-116207000D03*
X147598000Y-115567000D03*
%TD*%
%TO.C,RNC3*%
X134077000Y-116846000D03*
X134077000Y-116206000D03*
%TD*%
%TO.C,RNC4*%
X134103999Y-103942000D03*
X134103999Y-103302000D03*
%TD*%
D47*
%TO.C,R10*%
X143689000Y-88807000D03*
X144329000Y-88807000D03*
%TD*%
D45*
%TO.C,R11*%
X140147000Y-90115000D03*
X140147000Y-89475000D03*
%TD*%
D47*
%TO.C,R15*%
X137554000Y-90132000D03*
X138194000Y-90132000D03*
%TD*%
%TO.C,R14*%
X141241000Y-87848000D03*
X141881000Y-87848000D03*
%TD*%
%TO.C,R16*%
X159890000Y-93697000D03*
X160530000Y-93697000D03*
%TD*%
D45*
%TO.C,R17*%
X162197000Y-93041000D03*
X162197000Y-92401000D03*
%TD*%
D47*
%TO.C,R18*%
X159914000Y-92562000D03*
X160554000Y-92562000D03*
%TD*%
D45*
%TO.C,RSIG1*%
X160064000Y-91483000D03*
X160064000Y-90843000D03*
%TD*%
D47*
%TO.C,RSIG2*%
X149476000Y-87701000D03*
X150116000Y-87701000D03*
%TD*%
D45*
%TO.C,RSIG3*%
X135014000Y-109279000D03*
X135014000Y-108639000D03*
%TD*%
%TO.C,RSIG4*%
X135127000Y-100907000D03*
X135127000Y-100267000D03*
%TD*%
%TO.C,R12*%
X134041000Y-100657000D03*
X134041000Y-100017000D03*
%TD*%
%TO.C,R13*%
X132901999Y-101354000D03*
X132901999Y-100714000D03*
%TD*%
D47*
%TO.C,R6*%
X133593000Y-107027000D03*
X134233000Y-107027000D03*
%TD*%
%TO.C,R7*%
X147375000Y-88600000D03*
X148015000Y-88600000D03*
%TD*%
D52*
%TO.C,D5*%
X139955000Y-104095000D03*
X140925000Y-104095000D03*
%TD*%
%TO.C,D6*%
X147425000Y-89812000D03*
X148395000Y-89812000D03*
%TD*%
D53*
%TO.C,D7*%
X145897000Y-90711000D03*
X145897000Y-89741000D03*
%TD*%
D52*
%TO.C,D8*%
X143600000Y-90022000D03*
X144570000Y-90022000D03*
%TD*%
D54*
%TO.C,J1*%
X148710000Y-85970000D03*
X142930000Y-85970000D03*
D55*
X150140000Y-89620000D03*
D56*
X150140000Y-85440000D03*
D55*
X141500000Y-89620000D03*
D56*
X141500000Y-85440000D03*
%TD*%
M02*
