%TF.GenerationSoftware,KiCad,Pcbnew,7.0.11+dfsg-1build4*%
%TF.CreationDate,2026-08-10T02:10:54+00:00*%
%TF.ProjectId,oa35-aio,6f613335-2d61-4696-9f2e-6b696361645f,rev?*%
%TF.SameCoordinates,Original*%
%TF.FileFunction,Drillmap*%
%TF.FilePolarity,Positive*%
%FSLAX45Y45*%
G04 Gerber Fmt 4.5, Leading zero omitted, Abs format (unit mm)*
G04 Created by KiCad (PCBNEW 7.0.11+dfsg-1build4) date 2026-08-10 02:10:54*
%MOMM*%
%LPD*%
G01*
G04 APERTURE LIST*
%ADD10C,0.100000*%
%ADD11C,0.200000*%
%ADD12C,0.300000*%
G04 APERTURE END LIST*
D10*
X16800000Y-8400000D02*
X16800000Y-11600000D01*
X13200000Y-11600000D02*
G75*
G03*
X13400000Y-11800000I200000J0D01*
G01*
X13200000Y-11600000D02*
X13200000Y-8400000D01*
X16800000Y-8400000D02*
G75*
G03*
X16600000Y-8200000I-200000J0D01*
G01*
X13400000Y-8200000D02*
X16600000Y-8200000D01*
X16600000Y-11800000D02*
G75*
G03*
X16800000Y-11600000I0J200000D01*
G01*
X16600000Y-11800000D02*
X13400000Y-11800000D01*
X13400000Y-8200000D02*
G75*
G03*
X13200000Y-8400000I0J-200000D01*
G01*
D11*
D10*
X14260500Y-8564500D02*
X14325500Y-8629500D01*
X14325500Y-8564500D02*
X14260500Y-8629500D01*
X14838500Y-8564500D02*
X14903500Y-8629500D01*
X14903500Y-8564500D02*
X14838500Y-8629500D01*
D12*
X13875000Y-8725000D02*
G75*
G03*
X13575000Y-8725000I-150000J0D01*
G01*
X13575000Y-8725000D02*
G75*
G03*
X13875000Y-8725000I150000J0D01*
G01*
X13875000Y-11275000D02*
G75*
G03*
X13575000Y-11275000I-150000J0D01*
G01*
X13575000Y-11275000D02*
G75*
G03*
X13875000Y-11275000I150000J0D01*
G01*
X16425000Y-8725000D02*
G75*
G03*
X16125000Y-8725000I-150000J0D01*
G01*
X16125000Y-8725000D02*
G75*
G03*
X16425000Y-8725000I150000J0D01*
G01*
X16425000Y-11275000D02*
G75*
G03*
X16125000Y-11275000I-150000J0D01*
G01*
X16125000Y-11275000D02*
G75*
G03*
X16425000Y-11275000I150000J0D01*
G01*
D11*
X13455777Y-12116484D02*
X13455777Y-11916484D01*
X13455777Y-11916484D02*
X13503396Y-11916484D01*
X13503396Y-11916484D02*
X13531967Y-11926008D01*
X13531967Y-11926008D02*
X13551015Y-11945055D01*
X13551015Y-11945055D02*
X13560539Y-11964103D01*
X13560539Y-11964103D02*
X13570062Y-12002198D01*
X13570062Y-12002198D02*
X13570062Y-12030769D01*
X13570062Y-12030769D02*
X13560539Y-12068865D01*
X13560539Y-12068865D02*
X13551015Y-12087912D01*
X13551015Y-12087912D02*
X13531967Y-12106960D01*
X13531967Y-12106960D02*
X13503396Y-12116484D01*
X13503396Y-12116484D02*
X13455777Y-12116484D01*
X13655777Y-12116484D02*
X13655777Y-11983150D01*
X13655777Y-12021246D02*
X13665301Y-12002198D01*
X13665301Y-12002198D02*
X13674824Y-11992674D01*
X13674824Y-11992674D02*
X13693872Y-11983150D01*
X13693872Y-11983150D02*
X13712920Y-11983150D01*
X13779586Y-12116484D02*
X13779586Y-11983150D01*
X13779586Y-11916484D02*
X13770062Y-11926008D01*
X13770062Y-11926008D02*
X13779586Y-11935531D01*
X13779586Y-11935531D02*
X13789110Y-11926008D01*
X13789110Y-11926008D02*
X13779586Y-11916484D01*
X13779586Y-11916484D02*
X13779586Y-11935531D01*
X13903396Y-12116484D02*
X13884348Y-12106960D01*
X13884348Y-12106960D02*
X13874824Y-12087912D01*
X13874824Y-12087912D02*
X13874824Y-11916484D01*
X14008158Y-12116484D02*
X13989110Y-12106960D01*
X13989110Y-12106960D02*
X13979586Y-12087912D01*
X13979586Y-12087912D02*
X13979586Y-11916484D01*
X14236729Y-12116484D02*
X14236729Y-11916484D01*
X14236729Y-11916484D02*
X14303396Y-12059341D01*
X14303396Y-12059341D02*
X14370062Y-11916484D01*
X14370062Y-11916484D02*
X14370062Y-12116484D01*
X14551015Y-12116484D02*
X14551015Y-12011722D01*
X14551015Y-12011722D02*
X14541491Y-11992674D01*
X14541491Y-11992674D02*
X14522443Y-11983150D01*
X14522443Y-11983150D02*
X14484348Y-11983150D01*
X14484348Y-11983150D02*
X14465301Y-11992674D01*
X14551015Y-12106960D02*
X14531967Y-12116484D01*
X14531967Y-12116484D02*
X14484348Y-12116484D01*
X14484348Y-12116484D02*
X14465301Y-12106960D01*
X14465301Y-12106960D02*
X14455777Y-12087912D01*
X14455777Y-12087912D02*
X14455777Y-12068865D01*
X14455777Y-12068865D02*
X14465301Y-12049817D01*
X14465301Y-12049817D02*
X14484348Y-12040293D01*
X14484348Y-12040293D02*
X14531967Y-12040293D01*
X14531967Y-12040293D02*
X14551015Y-12030769D01*
X14646253Y-11983150D02*
X14646253Y-12183150D01*
X14646253Y-11992674D02*
X14665301Y-11983150D01*
X14665301Y-11983150D02*
X14703396Y-11983150D01*
X14703396Y-11983150D02*
X14722443Y-11992674D01*
X14722443Y-11992674D02*
X14731967Y-12002198D01*
X14731967Y-12002198D02*
X14741491Y-12021246D01*
X14741491Y-12021246D02*
X14741491Y-12078388D01*
X14741491Y-12078388D02*
X14731967Y-12097436D01*
X14731967Y-12097436D02*
X14722443Y-12106960D01*
X14722443Y-12106960D02*
X14703396Y-12116484D01*
X14703396Y-12116484D02*
X14665301Y-12116484D01*
X14665301Y-12116484D02*
X14646253Y-12106960D01*
X14827205Y-12097436D02*
X14836729Y-12106960D01*
X14836729Y-12106960D02*
X14827205Y-12116484D01*
X14827205Y-12116484D02*
X14817682Y-12106960D01*
X14817682Y-12106960D02*
X14827205Y-12097436D01*
X14827205Y-12097436D02*
X14827205Y-12116484D01*
X14827205Y-11992674D02*
X14836729Y-12002198D01*
X14836729Y-12002198D02*
X14827205Y-12011722D01*
X14827205Y-12011722D02*
X14817682Y-12002198D01*
X14817682Y-12002198D02*
X14827205Y-11992674D01*
X14827205Y-11992674D02*
X14827205Y-12011722D01*
D10*
X13130000Y-12412500D02*
X13195000Y-12477500D01*
X13195000Y-12412500D02*
X13130000Y-12477500D01*
D11*
X13493872Y-12336484D02*
X13512920Y-12336484D01*
X13512920Y-12336484D02*
X13531967Y-12346008D01*
X13531967Y-12346008D02*
X13541491Y-12355531D01*
X13541491Y-12355531D02*
X13551015Y-12374579D01*
X13551015Y-12374579D02*
X13560539Y-12412674D01*
X13560539Y-12412674D02*
X13560539Y-12460293D01*
X13560539Y-12460293D02*
X13551015Y-12498388D01*
X13551015Y-12498388D02*
X13541491Y-12517436D01*
X13541491Y-12517436D02*
X13531967Y-12526960D01*
X13531967Y-12526960D02*
X13512920Y-12536484D01*
X13512920Y-12536484D02*
X13493872Y-12536484D01*
X13493872Y-12536484D02*
X13474824Y-12526960D01*
X13474824Y-12526960D02*
X13465301Y-12517436D01*
X13465301Y-12517436D02*
X13455777Y-12498388D01*
X13455777Y-12498388D02*
X13446253Y-12460293D01*
X13446253Y-12460293D02*
X13446253Y-12412674D01*
X13446253Y-12412674D02*
X13455777Y-12374579D01*
X13455777Y-12374579D02*
X13465301Y-12355531D01*
X13465301Y-12355531D02*
X13474824Y-12346008D01*
X13474824Y-12346008D02*
X13493872Y-12336484D01*
X13646253Y-12517436D02*
X13655777Y-12526960D01*
X13655777Y-12526960D02*
X13646253Y-12536484D01*
X13646253Y-12536484D02*
X13636729Y-12526960D01*
X13636729Y-12526960D02*
X13646253Y-12517436D01*
X13646253Y-12517436D02*
X13646253Y-12536484D01*
X13827205Y-12336484D02*
X13789110Y-12336484D01*
X13789110Y-12336484D02*
X13770062Y-12346008D01*
X13770062Y-12346008D02*
X13760539Y-12355531D01*
X13760539Y-12355531D02*
X13741491Y-12384103D01*
X13741491Y-12384103D02*
X13731967Y-12422198D01*
X13731967Y-12422198D02*
X13731967Y-12498388D01*
X13731967Y-12498388D02*
X13741491Y-12517436D01*
X13741491Y-12517436D02*
X13751015Y-12526960D01*
X13751015Y-12526960D02*
X13770062Y-12536484D01*
X13770062Y-12536484D02*
X13808158Y-12536484D01*
X13808158Y-12536484D02*
X13827205Y-12526960D01*
X13827205Y-12526960D02*
X13836729Y-12517436D01*
X13836729Y-12517436D02*
X13846253Y-12498388D01*
X13846253Y-12498388D02*
X13846253Y-12450769D01*
X13846253Y-12450769D02*
X13836729Y-12431722D01*
X13836729Y-12431722D02*
X13827205Y-12422198D01*
X13827205Y-12422198D02*
X13808158Y-12412674D01*
X13808158Y-12412674D02*
X13770062Y-12412674D01*
X13770062Y-12412674D02*
X13751015Y-12422198D01*
X13751015Y-12422198D02*
X13741491Y-12431722D01*
X13741491Y-12431722D02*
X13731967Y-12450769D01*
X14027205Y-12336484D02*
X13931967Y-12336484D01*
X13931967Y-12336484D02*
X13922443Y-12431722D01*
X13922443Y-12431722D02*
X13931967Y-12422198D01*
X13931967Y-12422198D02*
X13951015Y-12412674D01*
X13951015Y-12412674D02*
X13998634Y-12412674D01*
X13998634Y-12412674D02*
X14017682Y-12422198D01*
X14017682Y-12422198D02*
X14027205Y-12431722D01*
X14027205Y-12431722D02*
X14036729Y-12450769D01*
X14036729Y-12450769D02*
X14036729Y-12498388D01*
X14036729Y-12498388D02*
X14027205Y-12517436D01*
X14027205Y-12517436D02*
X14017682Y-12526960D01*
X14017682Y-12526960D02*
X13998634Y-12536484D01*
X13998634Y-12536484D02*
X13951015Y-12536484D01*
X13951015Y-12536484D02*
X13931967Y-12526960D01*
X13931967Y-12526960D02*
X13922443Y-12517436D01*
X14160539Y-12336484D02*
X14179586Y-12336484D01*
X14179586Y-12336484D02*
X14198634Y-12346008D01*
X14198634Y-12346008D02*
X14208158Y-12355531D01*
X14208158Y-12355531D02*
X14217682Y-12374579D01*
X14217682Y-12374579D02*
X14227205Y-12412674D01*
X14227205Y-12412674D02*
X14227205Y-12460293D01*
X14227205Y-12460293D02*
X14217682Y-12498388D01*
X14217682Y-12498388D02*
X14208158Y-12517436D01*
X14208158Y-12517436D02*
X14198634Y-12526960D01*
X14198634Y-12526960D02*
X14179586Y-12536484D01*
X14179586Y-12536484D02*
X14160539Y-12536484D01*
X14160539Y-12536484D02*
X14141491Y-12526960D01*
X14141491Y-12526960D02*
X14131967Y-12517436D01*
X14131967Y-12517436D02*
X14122443Y-12498388D01*
X14122443Y-12498388D02*
X14112920Y-12460293D01*
X14112920Y-12460293D02*
X14112920Y-12412674D01*
X14112920Y-12412674D02*
X14122443Y-12374579D01*
X14122443Y-12374579D02*
X14131967Y-12355531D01*
X14131967Y-12355531D02*
X14141491Y-12346008D01*
X14141491Y-12346008D02*
X14160539Y-12336484D01*
X14312920Y-12536484D02*
X14312920Y-12403150D01*
X14312920Y-12422198D02*
X14322443Y-12412674D01*
X14322443Y-12412674D02*
X14341491Y-12403150D01*
X14341491Y-12403150D02*
X14370063Y-12403150D01*
X14370063Y-12403150D02*
X14389110Y-12412674D01*
X14389110Y-12412674D02*
X14398634Y-12431722D01*
X14398634Y-12431722D02*
X14398634Y-12536484D01*
X14398634Y-12431722D02*
X14408158Y-12412674D01*
X14408158Y-12412674D02*
X14427205Y-12403150D01*
X14427205Y-12403150D02*
X14455777Y-12403150D01*
X14455777Y-12403150D02*
X14474824Y-12412674D01*
X14474824Y-12412674D02*
X14484348Y-12431722D01*
X14484348Y-12431722D02*
X14484348Y-12536484D01*
X14579586Y-12536484D02*
X14579586Y-12403150D01*
X14579586Y-12422198D02*
X14589110Y-12412674D01*
X14589110Y-12412674D02*
X14608158Y-12403150D01*
X14608158Y-12403150D02*
X14636729Y-12403150D01*
X14636729Y-12403150D02*
X14655777Y-12412674D01*
X14655777Y-12412674D02*
X14665301Y-12431722D01*
X14665301Y-12431722D02*
X14665301Y-12536484D01*
X14665301Y-12431722D02*
X14674824Y-12412674D01*
X14674824Y-12412674D02*
X14693872Y-12403150D01*
X14693872Y-12403150D02*
X14722443Y-12403150D01*
X14722443Y-12403150D02*
X14741491Y-12412674D01*
X14741491Y-12412674D02*
X14751015Y-12431722D01*
X14751015Y-12431722D02*
X14751015Y-12536484D01*
X15141491Y-12326960D02*
X14970063Y-12584103D01*
X15398634Y-12336484D02*
X15417682Y-12336484D01*
X15417682Y-12336484D02*
X15436729Y-12346008D01*
X15436729Y-12346008D02*
X15446253Y-12355531D01*
X15446253Y-12355531D02*
X15455777Y-12374579D01*
X15455777Y-12374579D02*
X15465301Y-12412674D01*
X15465301Y-12412674D02*
X15465301Y-12460293D01*
X15465301Y-12460293D02*
X15455777Y-12498388D01*
X15455777Y-12498388D02*
X15446253Y-12517436D01*
X15446253Y-12517436D02*
X15436729Y-12526960D01*
X15436729Y-12526960D02*
X15417682Y-12536484D01*
X15417682Y-12536484D02*
X15398634Y-12536484D01*
X15398634Y-12536484D02*
X15379586Y-12526960D01*
X15379586Y-12526960D02*
X15370063Y-12517436D01*
X15370063Y-12517436D02*
X15360539Y-12498388D01*
X15360539Y-12498388D02*
X15351015Y-12460293D01*
X15351015Y-12460293D02*
X15351015Y-12412674D01*
X15351015Y-12412674D02*
X15360539Y-12374579D01*
X15360539Y-12374579D02*
X15370063Y-12355531D01*
X15370063Y-12355531D02*
X15379586Y-12346008D01*
X15379586Y-12346008D02*
X15398634Y-12336484D01*
X15551015Y-12517436D02*
X15560539Y-12526960D01*
X15560539Y-12526960D02*
X15551015Y-12536484D01*
X15551015Y-12536484D02*
X15541491Y-12526960D01*
X15541491Y-12526960D02*
X15551015Y-12517436D01*
X15551015Y-12517436D02*
X15551015Y-12536484D01*
X15684348Y-12336484D02*
X15703396Y-12336484D01*
X15703396Y-12336484D02*
X15722444Y-12346008D01*
X15722444Y-12346008D02*
X15731967Y-12355531D01*
X15731967Y-12355531D02*
X15741491Y-12374579D01*
X15741491Y-12374579D02*
X15751015Y-12412674D01*
X15751015Y-12412674D02*
X15751015Y-12460293D01*
X15751015Y-12460293D02*
X15741491Y-12498388D01*
X15741491Y-12498388D02*
X15731967Y-12517436D01*
X15731967Y-12517436D02*
X15722444Y-12526960D01*
X15722444Y-12526960D02*
X15703396Y-12536484D01*
X15703396Y-12536484D02*
X15684348Y-12536484D01*
X15684348Y-12536484D02*
X15665301Y-12526960D01*
X15665301Y-12526960D02*
X15655777Y-12517436D01*
X15655777Y-12517436D02*
X15646253Y-12498388D01*
X15646253Y-12498388D02*
X15636729Y-12460293D01*
X15636729Y-12460293D02*
X15636729Y-12412674D01*
X15636729Y-12412674D02*
X15646253Y-12374579D01*
X15646253Y-12374579D02*
X15655777Y-12355531D01*
X15655777Y-12355531D02*
X15665301Y-12346008D01*
X15665301Y-12346008D02*
X15684348Y-12336484D01*
X15827206Y-12355531D02*
X15836729Y-12346008D01*
X15836729Y-12346008D02*
X15855777Y-12336484D01*
X15855777Y-12336484D02*
X15903396Y-12336484D01*
X15903396Y-12336484D02*
X15922444Y-12346008D01*
X15922444Y-12346008D02*
X15931967Y-12355531D01*
X15931967Y-12355531D02*
X15941491Y-12374579D01*
X15941491Y-12374579D02*
X15941491Y-12393627D01*
X15941491Y-12393627D02*
X15931967Y-12422198D01*
X15931967Y-12422198D02*
X15817682Y-12536484D01*
X15817682Y-12536484D02*
X15941491Y-12536484D01*
X16122444Y-12336484D02*
X16027206Y-12336484D01*
X16027206Y-12336484D02*
X16017682Y-12431722D01*
X16017682Y-12431722D02*
X16027206Y-12422198D01*
X16027206Y-12422198D02*
X16046253Y-12412674D01*
X16046253Y-12412674D02*
X16093872Y-12412674D01*
X16093872Y-12412674D02*
X16112920Y-12422198D01*
X16112920Y-12422198D02*
X16122444Y-12431722D01*
X16122444Y-12431722D02*
X16131967Y-12450769D01*
X16131967Y-12450769D02*
X16131967Y-12498388D01*
X16131967Y-12498388D02*
X16122444Y-12517436D01*
X16122444Y-12517436D02*
X16112920Y-12526960D01*
X16112920Y-12526960D02*
X16093872Y-12536484D01*
X16093872Y-12536484D02*
X16046253Y-12536484D01*
X16046253Y-12536484D02*
X16027206Y-12526960D01*
X16027206Y-12526960D02*
X16017682Y-12517436D01*
X16303396Y-12336484D02*
X16265301Y-12336484D01*
X16265301Y-12336484D02*
X16246253Y-12346008D01*
X16246253Y-12346008D02*
X16236729Y-12355531D01*
X16236729Y-12355531D02*
X16217682Y-12384103D01*
X16217682Y-12384103D02*
X16208158Y-12422198D01*
X16208158Y-12422198D02*
X16208158Y-12498388D01*
X16208158Y-12498388D02*
X16217682Y-12517436D01*
X16217682Y-12517436D02*
X16227206Y-12526960D01*
X16227206Y-12526960D02*
X16246253Y-12536484D01*
X16246253Y-12536484D02*
X16284348Y-12536484D01*
X16284348Y-12536484D02*
X16303396Y-12526960D01*
X16303396Y-12526960D02*
X16312920Y-12517436D01*
X16312920Y-12517436D02*
X16322444Y-12498388D01*
X16322444Y-12498388D02*
X16322444Y-12450769D01*
X16322444Y-12450769D02*
X16312920Y-12431722D01*
X16312920Y-12431722D02*
X16303396Y-12422198D01*
X16303396Y-12422198D02*
X16284348Y-12412674D01*
X16284348Y-12412674D02*
X16246253Y-12412674D01*
X16246253Y-12412674D02*
X16227206Y-12422198D01*
X16227206Y-12422198D02*
X16217682Y-12431722D01*
X16217682Y-12431722D02*
X16208158Y-12450769D01*
X16398634Y-12336484D02*
X16398634Y-12374579D01*
X16474825Y-12336484D02*
X16474825Y-12374579D01*
X16770063Y-12612674D02*
X16760539Y-12603150D01*
X16760539Y-12603150D02*
X16741491Y-12574579D01*
X16741491Y-12574579D02*
X16731968Y-12555531D01*
X16731968Y-12555531D02*
X16722444Y-12526960D01*
X16722444Y-12526960D02*
X16712920Y-12479341D01*
X16712920Y-12479341D02*
X16712920Y-12441246D01*
X16712920Y-12441246D02*
X16722444Y-12393627D01*
X16722444Y-12393627D02*
X16731968Y-12365055D01*
X16731968Y-12365055D02*
X16741491Y-12346008D01*
X16741491Y-12346008D02*
X16760539Y-12317436D01*
X16760539Y-12317436D02*
X16770063Y-12307912D01*
X16836730Y-12355531D02*
X16846253Y-12346008D01*
X16846253Y-12346008D02*
X16865301Y-12336484D01*
X16865301Y-12336484D02*
X16912920Y-12336484D01*
X16912920Y-12336484D02*
X16931968Y-12346008D01*
X16931968Y-12346008D02*
X16941491Y-12355531D01*
X16941491Y-12355531D02*
X16951015Y-12374579D01*
X16951015Y-12374579D02*
X16951015Y-12393627D01*
X16951015Y-12393627D02*
X16941491Y-12422198D01*
X16941491Y-12422198D02*
X16827206Y-12536484D01*
X16827206Y-12536484D02*
X16951015Y-12536484D01*
X17189111Y-12536484D02*
X17189111Y-12336484D01*
X17274825Y-12536484D02*
X17274825Y-12431722D01*
X17274825Y-12431722D02*
X17265301Y-12412674D01*
X17265301Y-12412674D02*
X17246253Y-12403150D01*
X17246253Y-12403150D02*
X17217682Y-12403150D01*
X17217682Y-12403150D02*
X17198634Y-12412674D01*
X17198634Y-12412674D02*
X17189111Y-12422198D01*
X17398634Y-12536484D02*
X17379587Y-12526960D01*
X17379587Y-12526960D02*
X17370063Y-12517436D01*
X17370063Y-12517436D02*
X17360539Y-12498388D01*
X17360539Y-12498388D02*
X17360539Y-12441246D01*
X17360539Y-12441246D02*
X17370063Y-12422198D01*
X17370063Y-12422198D02*
X17379587Y-12412674D01*
X17379587Y-12412674D02*
X17398634Y-12403150D01*
X17398634Y-12403150D02*
X17427206Y-12403150D01*
X17427206Y-12403150D02*
X17446253Y-12412674D01*
X17446253Y-12412674D02*
X17455777Y-12422198D01*
X17455777Y-12422198D02*
X17465301Y-12441246D01*
X17465301Y-12441246D02*
X17465301Y-12498388D01*
X17465301Y-12498388D02*
X17455777Y-12517436D01*
X17455777Y-12517436D02*
X17446253Y-12526960D01*
X17446253Y-12526960D02*
X17427206Y-12536484D01*
X17427206Y-12536484D02*
X17398634Y-12536484D01*
X17579587Y-12536484D02*
X17560539Y-12526960D01*
X17560539Y-12526960D02*
X17551015Y-12507912D01*
X17551015Y-12507912D02*
X17551015Y-12336484D01*
X17731968Y-12526960D02*
X17712920Y-12536484D01*
X17712920Y-12536484D02*
X17674825Y-12536484D01*
X17674825Y-12536484D02*
X17655777Y-12526960D01*
X17655777Y-12526960D02*
X17646253Y-12507912D01*
X17646253Y-12507912D02*
X17646253Y-12431722D01*
X17646253Y-12431722D02*
X17655777Y-12412674D01*
X17655777Y-12412674D02*
X17674825Y-12403150D01*
X17674825Y-12403150D02*
X17712920Y-12403150D01*
X17712920Y-12403150D02*
X17731968Y-12412674D01*
X17731968Y-12412674D02*
X17741492Y-12431722D01*
X17741492Y-12431722D02*
X17741492Y-12450769D01*
X17741492Y-12450769D02*
X17646253Y-12469817D01*
X17817682Y-12526960D02*
X17836730Y-12536484D01*
X17836730Y-12536484D02*
X17874825Y-12536484D01*
X17874825Y-12536484D02*
X17893873Y-12526960D01*
X17893873Y-12526960D02*
X17903396Y-12507912D01*
X17903396Y-12507912D02*
X17903396Y-12498388D01*
X17903396Y-12498388D02*
X17893873Y-12479341D01*
X17893873Y-12479341D02*
X17874825Y-12469817D01*
X17874825Y-12469817D02*
X17846253Y-12469817D01*
X17846253Y-12469817D02*
X17827206Y-12460293D01*
X17827206Y-12460293D02*
X17817682Y-12441246D01*
X17817682Y-12441246D02*
X17817682Y-12431722D01*
X17817682Y-12431722D02*
X17827206Y-12412674D01*
X17827206Y-12412674D02*
X17846253Y-12403150D01*
X17846253Y-12403150D02*
X17874825Y-12403150D01*
X17874825Y-12403150D02*
X17893873Y-12412674D01*
X17970063Y-12612674D02*
X17979587Y-12603150D01*
X17979587Y-12603150D02*
X17998634Y-12574579D01*
X17998634Y-12574579D02*
X18008158Y-12555531D01*
X18008158Y-12555531D02*
X18017682Y-12526960D01*
X18017682Y-12526960D02*
X18027206Y-12479341D01*
X18027206Y-12479341D02*
X18027206Y-12441246D01*
X18027206Y-12441246D02*
X18017682Y-12393627D01*
X18017682Y-12393627D02*
X18008158Y-12365055D01*
X18008158Y-12365055D02*
X17998634Y-12346008D01*
X17998634Y-12346008D02*
X17979587Y-12317436D01*
X17979587Y-12317436D02*
X17970063Y-12307912D01*
X18331968Y-12612674D02*
X18322444Y-12603150D01*
X18322444Y-12603150D02*
X18303396Y-12574579D01*
X18303396Y-12574579D02*
X18293873Y-12555531D01*
X18293873Y-12555531D02*
X18284349Y-12526960D01*
X18284349Y-12526960D02*
X18274825Y-12479341D01*
X18274825Y-12479341D02*
X18274825Y-12441246D01*
X18274825Y-12441246D02*
X18284349Y-12393627D01*
X18284349Y-12393627D02*
X18293873Y-12365055D01*
X18293873Y-12365055D02*
X18303396Y-12346008D01*
X18303396Y-12346008D02*
X18322444Y-12317436D01*
X18322444Y-12317436D02*
X18331968Y-12307912D01*
X18408158Y-12403150D02*
X18408158Y-12536484D01*
X18408158Y-12422198D02*
X18417682Y-12412674D01*
X18417682Y-12412674D02*
X18436730Y-12403150D01*
X18436730Y-12403150D02*
X18465301Y-12403150D01*
X18465301Y-12403150D02*
X18484349Y-12412674D01*
X18484349Y-12412674D02*
X18493873Y-12431722D01*
X18493873Y-12431722D02*
X18493873Y-12536484D01*
X18617682Y-12536484D02*
X18598634Y-12526960D01*
X18598634Y-12526960D02*
X18589111Y-12517436D01*
X18589111Y-12517436D02*
X18579587Y-12498388D01*
X18579587Y-12498388D02*
X18579587Y-12441246D01*
X18579587Y-12441246D02*
X18589111Y-12422198D01*
X18589111Y-12422198D02*
X18598634Y-12412674D01*
X18598634Y-12412674D02*
X18617682Y-12403150D01*
X18617682Y-12403150D02*
X18646254Y-12403150D01*
X18646254Y-12403150D02*
X18665301Y-12412674D01*
X18665301Y-12412674D02*
X18674825Y-12422198D01*
X18674825Y-12422198D02*
X18684349Y-12441246D01*
X18684349Y-12441246D02*
X18684349Y-12498388D01*
X18684349Y-12498388D02*
X18674825Y-12517436D01*
X18674825Y-12517436D02*
X18665301Y-12526960D01*
X18665301Y-12526960D02*
X18646254Y-12536484D01*
X18646254Y-12536484D02*
X18617682Y-12536484D01*
X18741492Y-12403150D02*
X18817682Y-12403150D01*
X18770063Y-12336484D02*
X18770063Y-12507912D01*
X18770063Y-12507912D02*
X18779587Y-12526960D01*
X18779587Y-12526960D02*
X18798634Y-12536484D01*
X18798634Y-12536484D02*
X18817682Y-12536484D01*
X19036730Y-12403150D02*
X19036730Y-12603150D01*
X19036730Y-12412674D02*
X19055777Y-12403150D01*
X19055777Y-12403150D02*
X19093873Y-12403150D01*
X19093873Y-12403150D02*
X19112920Y-12412674D01*
X19112920Y-12412674D02*
X19122444Y-12422198D01*
X19122444Y-12422198D02*
X19131968Y-12441246D01*
X19131968Y-12441246D02*
X19131968Y-12498388D01*
X19131968Y-12498388D02*
X19122444Y-12517436D01*
X19122444Y-12517436D02*
X19112920Y-12526960D01*
X19112920Y-12526960D02*
X19093873Y-12536484D01*
X19093873Y-12536484D02*
X19055777Y-12536484D01*
X19055777Y-12536484D02*
X19036730Y-12526960D01*
X19246254Y-12536484D02*
X19227206Y-12526960D01*
X19227206Y-12526960D02*
X19217682Y-12507912D01*
X19217682Y-12507912D02*
X19217682Y-12336484D01*
X19408158Y-12536484D02*
X19408158Y-12431722D01*
X19408158Y-12431722D02*
X19398635Y-12412674D01*
X19398635Y-12412674D02*
X19379587Y-12403150D01*
X19379587Y-12403150D02*
X19341492Y-12403150D01*
X19341492Y-12403150D02*
X19322444Y-12412674D01*
X19408158Y-12526960D02*
X19389111Y-12536484D01*
X19389111Y-12536484D02*
X19341492Y-12536484D01*
X19341492Y-12536484D02*
X19322444Y-12526960D01*
X19322444Y-12526960D02*
X19312920Y-12507912D01*
X19312920Y-12507912D02*
X19312920Y-12488865D01*
X19312920Y-12488865D02*
X19322444Y-12469817D01*
X19322444Y-12469817D02*
X19341492Y-12460293D01*
X19341492Y-12460293D02*
X19389111Y-12460293D01*
X19389111Y-12460293D02*
X19408158Y-12450769D01*
X19474825Y-12403150D02*
X19551015Y-12403150D01*
X19503396Y-12336484D02*
X19503396Y-12507912D01*
X19503396Y-12507912D02*
X19512920Y-12526960D01*
X19512920Y-12526960D02*
X19531968Y-12536484D01*
X19531968Y-12536484D02*
X19551015Y-12536484D01*
X19693873Y-12526960D02*
X19674825Y-12536484D01*
X19674825Y-12536484D02*
X19636730Y-12536484D01*
X19636730Y-12536484D02*
X19617682Y-12526960D01*
X19617682Y-12526960D02*
X19608158Y-12507912D01*
X19608158Y-12507912D02*
X19608158Y-12431722D01*
X19608158Y-12431722D02*
X19617682Y-12412674D01*
X19617682Y-12412674D02*
X19636730Y-12403150D01*
X19636730Y-12403150D02*
X19674825Y-12403150D01*
X19674825Y-12403150D02*
X19693873Y-12412674D01*
X19693873Y-12412674D02*
X19703396Y-12431722D01*
X19703396Y-12431722D02*
X19703396Y-12450769D01*
X19703396Y-12450769D02*
X19608158Y-12469817D01*
X19874825Y-12536484D02*
X19874825Y-12336484D01*
X19874825Y-12526960D02*
X19855777Y-12536484D01*
X19855777Y-12536484D02*
X19817682Y-12536484D01*
X19817682Y-12536484D02*
X19798635Y-12526960D01*
X19798635Y-12526960D02*
X19789111Y-12517436D01*
X19789111Y-12517436D02*
X19779587Y-12498388D01*
X19779587Y-12498388D02*
X19779587Y-12441246D01*
X19779587Y-12441246D02*
X19789111Y-12422198D01*
X19789111Y-12422198D02*
X19798635Y-12412674D01*
X19798635Y-12412674D02*
X19817682Y-12403150D01*
X19817682Y-12403150D02*
X19855777Y-12403150D01*
X19855777Y-12403150D02*
X19874825Y-12412674D01*
X19951016Y-12612674D02*
X19960539Y-12603150D01*
X19960539Y-12603150D02*
X19979587Y-12574579D01*
X19979587Y-12574579D02*
X19989111Y-12555531D01*
X19989111Y-12555531D02*
X19998635Y-12526960D01*
X19998635Y-12526960D02*
X20008158Y-12479341D01*
X20008158Y-12479341D02*
X20008158Y-12441246D01*
X20008158Y-12441246D02*
X19998635Y-12393627D01*
X19998635Y-12393627D02*
X19989111Y-12365055D01*
X19989111Y-12365055D02*
X19979587Y-12346008D01*
X19979587Y-12346008D02*
X19960539Y-12317436D01*
X19960539Y-12317436D02*
X19951016Y-12307912D01*
X13195000Y-12709000D02*
G75*
G03*
X12995000Y-12709000I-100000J0D01*
G01*
X12995000Y-12709000D02*
G75*
G03*
X13195000Y-12709000I100000J0D01*
G01*
X13436729Y-12600484D02*
X13560539Y-12600484D01*
X13560539Y-12600484D02*
X13493872Y-12676674D01*
X13493872Y-12676674D02*
X13522443Y-12676674D01*
X13522443Y-12676674D02*
X13541491Y-12686198D01*
X13541491Y-12686198D02*
X13551015Y-12695722D01*
X13551015Y-12695722D02*
X13560539Y-12714769D01*
X13560539Y-12714769D02*
X13560539Y-12762388D01*
X13560539Y-12762388D02*
X13551015Y-12781436D01*
X13551015Y-12781436D02*
X13541491Y-12790960D01*
X13541491Y-12790960D02*
X13522443Y-12800484D01*
X13522443Y-12800484D02*
X13465301Y-12800484D01*
X13465301Y-12800484D02*
X13446253Y-12790960D01*
X13446253Y-12790960D02*
X13436729Y-12781436D01*
X13646253Y-12781436D02*
X13655777Y-12790960D01*
X13655777Y-12790960D02*
X13646253Y-12800484D01*
X13646253Y-12800484D02*
X13636729Y-12790960D01*
X13636729Y-12790960D02*
X13646253Y-12781436D01*
X13646253Y-12781436D02*
X13646253Y-12800484D01*
X13779586Y-12600484D02*
X13798634Y-12600484D01*
X13798634Y-12600484D02*
X13817682Y-12610008D01*
X13817682Y-12610008D02*
X13827205Y-12619531D01*
X13827205Y-12619531D02*
X13836729Y-12638579D01*
X13836729Y-12638579D02*
X13846253Y-12676674D01*
X13846253Y-12676674D02*
X13846253Y-12724293D01*
X13846253Y-12724293D02*
X13836729Y-12762388D01*
X13836729Y-12762388D02*
X13827205Y-12781436D01*
X13827205Y-12781436D02*
X13817682Y-12790960D01*
X13817682Y-12790960D02*
X13798634Y-12800484D01*
X13798634Y-12800484D02*
X13779586Y-12800484D01*
X13779586Y-12800484D02*
X13760539Y-12790960D01*
X13760539Y-12790960D02*
X13751015Y-12781436D01*
X13751015Y-12781436D02*
X13741491Y-12762388D01*
X13741491Y-12762388D02*
X13731967Y-12724293D01*
X13731967Y-12724293D02*
X13731967Y-12676674D01*
X13731967Y-12676674D02*
X13741491Y-12638579D01*
X13741491Y-12638579D02*
X13751015Y-12619531D01*
X13751015Y-12619531D02*
X13760539Y-12610008D01*
X13760539Y-12610008D02*
X13779586Y-12600484D01*
X13970062Y-12600484D02*
X13989110Y-12600484D01*
X13989110Y-12600484D02*
X14008158Y-12610008D01*
X14008158Y-12610008D02*
X14017682Y-12619531D01*
X14017682Y-12619531D02*
X14027205Y-12638579D01*
X14027205Y-12638579D02*
X14036729Y-12676674D01*
X14036729Y-12676674D02*
X14036729Y-12724293D01*
X14036729Y-12724293D02*
X14027205Y-12762388D01*
X14027205Y-12762388D02*
X14017682Y-12781436D01*
X14017682Y-12781436D02*
X14008158Y-12790960D01*
X14008158Y-12790960D02*
X13989110Y-12800484D01*
X13989110Y-12800484D02*
X13970062Y-12800484D01*
X13970062Y-12800484D02*
X13951015Y-12790960D01*
X13951015Y-12790960D02*
X13941491Y-12781436D01*
X13941491Y-12781436D02*
X13931967Y-12762388D01*
X13931967Y-12762388D02*
X13922443Y-12724293D01*
X13922443Y-12724293D02*
X13922443Y-12676674D01*
X13922443Y-12676674D02*
X13931967Y-12638579D01*
X13931967Y-12638579D02*
X13941491Y-12619531D01*
X13941491Y-12619531D02*
X13951015Y-12610008D01*
X13951015Y-12610008D02*
X13970062Y-12600484D01*
X14160539Y-12600484D02*
X14179586Y-12600484D01*
X14179586Y-12600484D02*
X14198634Y-12610008D01*
X14198634Y-12610008D02*
X14208158Y-12619531D01*
X14208158Y-12619531D02*
X14217682Y-12638579D01*
X14217682Y-12638579D02*
X14227205Y-12676674D01*
X14227205Y-12676674D02*
X14227205Y-12724293D01*
X14227205Y-12724293D02*
X14217682Y-12762388D01*
X14217682Y-12762388D02*
X14208158Y-12781436D01*
X14208158Y-12781436D02*
X14198634Y-12790960D01*
X14198634Y-12790960D02*
X14179586Y-12800484D01*
X14179586Y-12800484D02*
X14160539Y-12800484D01*
X14160539Y-12800484D02*
X14141491Y-12790960D01*
X14141491Y-12790960D02*
X14131967Y-12781436D01*
X14131967Y-12781436D02*
X14122443Y-12762388D01*
X14122443Y-12762388D02*
X14112920Y-12724293D01*
X14112920Y-12724293D02*
X14112920Y-12676674D01*
X14112920Y-12676674D02*
X14122443Y-12638579D01*
X14122443Y-12638579D02*
X14131967Y-12619531D01*
X14131967Y-12619531D02*
X14141491Y-12610008D01*
X14141491Y-12610008D02*
X14160539Y-12600484D01*
X14312920Y-12800484D02*
X14312920Y-12667150D01*
X14312920Y-12686198D02*
X14322443Y-12676674D01*
X14322443Y-12676674D02*
X14341491Y-12667150D01*
X14341491Y-12667150D02*
X14370063Y-12667150D01*
X14370063Y-12667150D02*
X14389110Y-12676674D01*
X14389110Y-12676674D02*
X14398634Y-12695722D01*
X14398634Y-12695722D02*
X14398634Y-12800484D01*
X14398634Y-12695722D02*
X14408158Y-12676674D01*
X14408158Y-12676674D02*
X14427205Y-12667150D01*
X14427205Y-12667150D02*
X14455777Y-12667150D01*
X14455777Y-12667150D02*
X14474824Y-12676674D01*
X14474824Y-12676674D02*
X14484348Y-12695722D01*
X14484348Y-12695722D02*
X14484348Y-12800484D01*
X14579586Y-12800484D02*
X14579586Y-12667150D01*
X14579586Y-12686198D02*
X14589110Y-12676674D01*
X14589110Y-12676674D02*
X14608158Y-12667150D01*
X14608158Y-12667150D02*
X14636729Y-12667150D01*
X14636729Y-12667150D02*
X14655777Y-12676674D01*
X14655777Y-12676674D02*
X14665301Y-12695722D01*
X14665301Y-12695722D02*
X14665301Y-12800484D01*
X14665301Y-12695722D02*
X14674824Y-12676674D01*
X14674824Y-12676674D02*
X14693872Y-12667150D01*
X14693872Y-12667150D02*
X14722443Y-12667150D01*
X14722443Y-12667150D02*
X14741491Y-12676674D01*
X14741491Y-12676674D02*
X14751015Y-12695722D01*
X14751015Y-12695722D02*
X14751015Y-12800484D01*
X15141491Y-12590960D02*
X14970063Y-12848103D01*
X15398634Y-12600484D02*
X15417682Y-12600484D01*
X15417682Y-12600484D02*
X15436729Y-12610008D01*
X15436729Y-12610008D02*
X15446253Y-12619531D01*
X15446253Y-12619531D02*
X15455777Y-12638579D01*
X15455777Y-12638579D02*
X15465301Y-12676674D01*
X15465301Y-12676674D02*
X15465301Y-12724293D01*
X15465301Y-12724293D02*
X15455777Y-12762388D01*
X15455777Y-12762388D02*
X15446253Y-12781436D01*
X15446253Y-12781436D02*
X15436729Y-12790960D01*
X15436729Y-12790960D02*
X15417682Y-12800484D01*
X15417682Y-12800484D02*
X15398634Y-12800484D01*
X15398634Y-12800484D02*
X15379586Y-12790960D01*
X15379586Y-12790960D02*
X15370063Y-12781436D01*
X15370063Y-12781436D02*
X15360539Y-12762388D01*
X15360539Y-12762388D02*
X15351015Y-12724293D01*
X15351015Y-12724293D02*
X15351015Y-12676674D01*
X15351015Y-12676674D02*
X15360539Y-12638579D01*
X15360539Y-12638579D02*
X15370063Y-12619531D01*
X15370063Y-12619531D02*
X15379586Y-12610008D01*
X15379586Y-12610008D02*
X15398634Y-12600484D01*
X15551015Y-12781436D02*
X15560539Y-12790960D01*
X15560539Y-12790960D02*
X15551015Y-12800484D01*
X15551015Y-12800484D02*
X15541491Y-12790960D01*
X15541491Y-12790960D02*
X15551015Y-12781436D01*
X15551015Y-12781436D02*
X15551015Y-12800484D01*
X15751015Y-12800484D02*
X15636729Y-12800484D01*
X15693872Y-12800484D02*
X15693872Y-12600484D01*
X15693872Y-12600484D02*
X15674825Y-12629055D01*
X15674825Y-12629055D02*
X15655777Y-12648103D01*
X15655777Y-12648103D02*
X15636729Y-12657627D01*
X15941491Y-12800484D02*
X15827206Y-12800484D01*
X15884348Y-12800484D02*
X15884348Y-12600484D01*
X15884348Y-12600484D02*
X15865301Y-12629055D01*
X15865301Y-12629055D02*
X15846253Y-12648103D01*
X15846253Y-12648103D02*
X15827206Y-12657627D01*
X16055777Y-12686198D02*
X16036729Y-12676674D01*
X16036729Y-12676674D02*
X16027206Y-12667150D01*
X16027206Y-12667150D02*
X16017682Y-12648103D01*
X16017682Y-12648103D02*
X16017682Y-12638579D01*
X16017682Y-12638579D02*
X16027206Y-12619531D01*
X16027206Y-12619531D02*
X16036729Y-12610008D01*
X16036729Y-12610008D02*
X16055777Y-12600484D01*
X16055777Y-12600484D02*
X16093872Y-12600484D01*
X16093872Y-12600484D02*
X16112920Y-12610008D01*
X16112920Y-12610008D02*
X16122444Y-12619531D01*
X16122444Y-12619531D02*
X16131967Y-12638579D01*
X16131967Y-12638579D02*
X16131967Y-12648103D01*
X16131967Y-12648103D02*
X16122444Y-12667150D01*
X16122444Y-12667150D02*
X16112920Y-12676674D01*
X16112920Y-12676674D02*
X16093872Y-12686198D01*
X16093872Y-12686198D02*
X16055777Y-12686198D01*
X16055777Y-12686198D02*
X16036729Y-12695722D01*
X16036729Y-12695722D02*
X16027206Y-12705246D01*
X16027206Y-12705246D02*
X16017682Y-12724293D01*
X16017682Y-12724293D02*
X16017682Y-12762388D01*
X16017682Y-12762388D02*
X16027206Y-12781436D01*
X16027206Y-12781436D02*
X16036729Y-12790960D01*
X16036729Y-12790960D02*
X16055777Y-12800484D01*
X16055777Y-12800484D02*
X16093872Y-12800484D01*
X16093872Y-12800484D02*
X16112920Y-12790960D01*
X16112920Y-12790960D02*
X16122444Y-12781436D01*
X16122444Y-12781436D02*
X16131967Y-12762388D01*
X16131967Y-12762388D02*
X16131967Y-12724293D01*
X16131967Y-12724293D02*
X16122444Y-12705246D01*
X16122444Y-12705246D02*
X16112920Y-12695722D01*
X16112920Y-12695722D02*
X16093872Y-12686198D01*
X16322444Y-12800484D02*
X16208158Y-12800484D01*
X16265301Y-12800484D02*
X16265301Y-12600484D01*
X16265301Y-12600484D02*
X16246253Y-12629055D01*
X16246253Y-12629055D02*
X16227206Y-12648103D01*
X16227206Y-12648103D02*
X16208158Y-12657627D01*
X16398634Y-12600484D02*
X16398634Y-12638579D01*
X16474825Y-12600484D02*
X16474825Y-12638579D01*
X16770063Y-12876674D02*
X16760539Y-12867150D01*
X16760539Y-12867150D02*
X16741491Y-12838579D01*
X16741491Y-12838579D02*
X16731968Y-12819531D01*
X16731968Y-12819531D02*
X16722444Y-12790960D01*
X16722444Y-12790960D02*
X16712920Y-12743341D01*
X16712920Y-12743341D02*
X16712920Y-12705246D01*
X16712920Y-12705246D02*
X16722444Y-12657627D01*
X16722444Y-12657627D02*
X16731968Y-12629055D01*
X16731968Y-12629055D02*
X16741491Y-12610008D01*
X16741491Y-12610008D02*
X16760539Y-12581436D01*
X16760539Y-12581436D02*
X16770063Y-12571912D01*
X16931968Y-12667150D02*
X16931968Y-12800484D01*
X16884349Y-12590960D02*
X16836730Y-12733817D01*
X16836730Y-12733817D02*
X16960539Y-12733817D01*
X17189111Y-12800484D02*
X17189111Y-12600484D01*
X17274825Y-12800484D02*
X17274825Y-12695722D01*
X17274825Y-12695722D02*
X17265301Y-12676674D01*
X17265301Y-12676674D02*
X17246253Y-12667150D01*
X17246253Y-12667150D02*
X17217682Y-12667150D01*
X17217682Y-12667150D02*
X17198634Y-12676674D01*
X17198634Y-12676674D02*
X17189111Y-12686198D01*
X17398634Y-12800484D02*
X17379587Y-12790960D01*
X17379587Y-12790960D02*
X17370063Y-12781436D01*
X17370063Y-12781436D02*
X17360539Y-12762388D01*
X17360539Y-12762388D02*
X17360539Y-12705246D01*
X17360539Y-12705246D02*
X17370063Y-12686198D01*
X17370063Y-12686198D02*
X17379587Y-12676674D01*
X17379587Y-12676674D02*
X17398634Y-12667150D01*
X17398634Y-12667150D02*
X17427206Y-12667150D01*
X17427206Y-12667150D02*
X17446253Y-12676674D01*
X17446253Y-12676674D02*
X17455777Y-12686198D01*
X17455777Y-12686198D02*
X17465301Y-12705246D01*
X17465301Y-12705246D02*
X17465301Y-12762388D01*
X17465301Y-12762388D02*
X17455777Y-12781436D01*
X17455777Y-12781436D02*
X17446253Y-12790960D01*
X17446253Y-12790960D02*
X17427206Y-12800484D01*
X17427206Y-12800484D02*
X17398634Y-12800484D01*
X17579587Y-12800484D02*
X17560539Y-12790960D01*
X17560539Y-12790960D02*
X17551015Y-12771912D01*
X17551015Y-12771912D02*
X17551015Y-12600484D01*
X17731968Y-12790960D02*
X17712920Y-12800484D01*
X17712920Y-12800484D02*
X17674825Y-12800484D01*
X17674825Y-12800484D02*
X17655777Y-12790960D01*
X17655777Y-12790960D02*
X17646253Y-12771912D01*
X17646253Y-12771912D02*
X17646253Y-12695722D01*
X17646253Y-12695722D02*
X17655777Y-12676674D01*
X17655777Y-12676674D02*
X17674825Y-12667150D01*
X17674825Y-12667150D02*
X17712920Y-12667150D01*
X17712920Y-12667150D02*
X17731968Y-12676674D01*
X17731968Y-12676674D02*
X17741492Y-12695722D01*
X17741492Y-12695722D02*
X17741492Y-12714769D01*
X17741492Y-12714769D02*
X17646253Y-12733817D01*
X17817682Y-12790960D02*
X17836730Y-12800484D01*
X17836730Y-12800484D02*
X17874825Y-12800484D01*
X17874825Y-12800484D02*
X17893873Y-12790960D01*
X17893873Y-12790960D02*
X17903396Y-12771912D01*
X17903396Y-12771912D02*
X17903396Y-12762388D01*
X17903396Y-12762388D02*
X17893873Y-12743341D01*
X17893873Y-12743341D02*
X17874825Y-12733817D01*
X17874825Y-12733817D02*
X17846253Y-12733817D01*
X17846253Y-12733817D02*
X17827206Y-12724293D01*
X17827206Y-12724293D02*
X17817682Y-12705246D01*
X17817682Y-12705246D02*
X17817682Y-12695722D01*
X17817682Y-12695722D02*
X17827206Y-12676674D01*
X17827206Y-12676674D02*
X17846253Y-12667150D01*
X17846253Y-12667150D02*
X17874825Y-12667150D01*
X17874825Y-12667150D02*
X17893873Y-12676674D01*
X17970063Y-12876674D02*
X17979587Y-12867150D01*
X17979587Y-12867150D02*
X17998634Y-12838579D01*
X17998634Y-12838579D02*
X18008158Y-12819531D01*
X18008158Y-12819531D02*
X18017682Y-12790960D01*
X18017682Y-12790960D02*
X18027206Y-12743341D01*
X18027206Y-12743341D02*
X18027206Y-12705246D01*
X18027206Y-12705246D02*
X18017682Y-12657627D01*
X18017682Y-12657627D02*
X18008158Y-12629055D01*
X18008158Y-12629055D02*
X17998634Y-12610008D01*
X17998634Y-12610008D02*
X17979587Y-12581436D01*
X17979587Y-12581436D02*
X17970063Y-12571912D01*
X18331968Y-12876674D02*
X18322444Y-12867150D01*
X18322444Y-12867150D02*
X18303396Y-12838579D01*
X18303396Y-12838579D02*
X18293873Y-12819531D01*
X18293873Y-12819531D02*
X18284349Y-12790960D01*
X18284349Y-12790960D02*
X18274825Y-12743341D01*
X18274825Y-12743341D02*
X18274825Y-12705246D01*
X18274825Y-12705246D02*
X18284349Y-12657627D01*
X18284349Y-12657627D02*
X18293873Y-12629055D01*
X18293873Y-12629055D02*
X18303396Y-12610008D01*
X18303396Y-12610008D02*
X18322444Y-12581436D01*
X18322444Y-12581436D02*
X18331968Y-12571912D01*
X18408158Y-12667150D02*
X18408158Y-12800484D01*
X18408158Y-12686198D02*
X18417682Y-12676674D01*
X18417682Y-12676674D02*
X18436730Y-12667150D01*
X18436730Y-12667150D02*
X18465301Y-12667150D01*
X18465301Y-12667150D02*
X18484349Y-12676674D01*
X18484349Y-12676674D02*
X18493873Y-12695722D01*
X18493873Y-12695722D02*
X18493873Y-12800484D01*
X18617682Y-12800484D02*
X18598634Y-12790960D01*
X18598634Y-12790960D02*
X18589111Y-12781436D01*
X18589111Y-12781436D02*
X18579587Y-12762388D01*
X18579587Y-12762388D02*
X18579587Y-12705246D01*
X18579587Y-12705246D02*
X18589111Y-12686198D01*
X18589111Y-12686198D02*
X18598634Y-12676674D01*
X18598634Y-12676674D02*
X18617682Y-12667150D01*
X18617682Y-12667150D02*
X18646254Y-12667150D01*
X18646254Y-12667150D02*
X18665301Y-12676674D01*
X18665301Y-12676674D02*
X18674825Y-12686198D01*
X18674825Y-12686198D02*
X18684349Y-12705246D01*
X18684349Y-12705246D02*
X18684349Y-12762388D01*
X18684349Y-12762388D02*
X18674825Y-12781436D01*
X18674825Y-12781436D02*
X18665301Y-12790960D01*
X18665301Y-12790960D02*
X18646254Y-12800484D01*
X18646254Y-12800484D02*
X18617682Y-12800484D01*
X18741492Y-12667150D02*
X18817682Y-12667150D01*
X18770063Y-12600484D02*
X18770063Y-12771912D01*
X18770063Y-12771912D02*
X18779587Y-12790960D01*
X18779587Y-12790960D02*
X18798634Y-12800484D01*
X18798634Y-12800484D02*
X18817682Y-12800484D01*
X19036730Y-12667150D02*
X19036730Y-12867150D01*
X19036730Y-12676674D02*
X19055777Y-12667150D01*
X19055777Y-12667150D02*
X19093873Y-12667150D01*
X19093873Y-12667150D02*
X19112920Y-12676674D01*
X19112920Y-12676674D02*
X19122444Y-12686198D01*
X19122444Y-12686198D02*
X19131968Y-12705246D01*
X19131968Y-12705246D02*
X19131968Y-12762388D01*
X19131968Y-12762388D02*
X19122444Y-12781436D01*
X19122444Y-12781436D02*
X19112920Y-12790960D01*
X19112920Y-12790960D02*
X19093873Y-12800484D01*
X19093873Y-12800484D02*
X19055777Y-12800484D01*
X19055777Y-12800484D02*
X19036730Y-12790960D01*
X19246254Y-12800484D02*
X19227206Y-12790960D01*
X19227206Y-12790960D02*
X19217682Y-12771912D01*
X19217682Y-12771912D02*
X19217682Y-12600484D01*
X19408158Y-12800484D02*
X19408158Y-12695722D01*
X19408158Y-12695722D02*
X19398635Y-12676674D01*
X19398635Y-12676674D02*
X19379587Y-12667150D01*
X19379587Y-12667150D02*
X19341492Y-12667150D01*
X19341492Y-12667150D02*
X19322444Y-12676674D01*
X19408158Y-12790960D02*
X19389111Y-12800484D01*
X19389111Y-12800484D02*
X19341492Y-12800484D01*
X19341492Y-12800484D02*
X19322444Y-12790960D01*
X19322444Y-12790960D02*
X19312920Y-12771912D01*
X19312920Y-12771912D02*
X19312920Y-12752865D01*
X19312920Y-12752865D02*
X19322444Y-12733817D01*
X19322444Y-12733817D02*
X19341492Y-12724293D01*
X19341492Y-12724293D02*
X19389111Y-12724293D01*
X19389111Y-12724293D02*
X19408158Y-12714769D01*
X19474825Y-12667150D02*
X19551015Y-12667150D01*
X19503396Y-12600484D02*
X19503396Y-12771912D01*
X19503396Y-12771912D02*
X19512920Y-12790960D01*
X19512920Y-12790960D02*
X19531968Y-12800484D01*
X19531968Y-12800484D02*
X19551015Y-12800484D01*
X19693873Y-12790960D02*
X19674825Y-12800484D01*
X19674825Y-12800484D02*
X19636730Y-12800484D01*
X19636730Y-12800484D02*
X19617682Y-12790960D01*
X19617682Y-12790960D02*
X19608158Y-12771912D01*
X19608158Y-12771912D02*
X19608158Y-12695722D01*
X19608158Y-12695722D02*
X19617682Y-12676674D01*
X19617682Y-12676674D02*
X19636730Y-12667150D01*
X19636730Y-12667150D02*
X19674825Y-12667150D01*
X19674825Y-12667150D02*
X19693873Y-12676674D01*
X19693873Y-12676674D02*
X19703396Y-12695722D01*
X19703396Y-12695722D02*
X19703396Y-12714769D01*
X19703396Y-12714769D02*
X19608158Y-12733817D01*
X19874825Y-12800484D02*
X19874825Y-12600484D01*
X19874825Y-12790960D02*
X19855777Y-12800484D01*
X19855777Y-12800484D02*
X19817682Y-12800484D01*
X19817682Y-12800484D02*
X19798635Y-12790960D01*
X19798635Y-12790960D02*
X19789111Y-12781436D01*
X19789111Y-12781436D02*
X19779587Y-12762388D01*
X19779587Y-12762388D02*
X19779587Y-12705246D01*
X19779587Y-12705246D02*
X19789111Y-12686198D01*
X19789111Y-12686198D02*
X19798635Y-12676674D01*
X19798635Y-12676674D02*
X19817682Y-12667150D01*
X19817682Y-12667150D02*
X19855777Y-12667150D01*
X19855777Y-12667150D02*
X19874825Y-12676674D01*
X19951016Y-12876674D02*
X19960539Y-12867150D01*
X19960539Y-12867150D02*
X19979587Y-12838579D01*
X19979587Y-12838579D02*
X19989111Y-12819531D01*
X19989111Y-12819531D02*
X19998635Y-12790960D01*
X19998635Y-12790960D02*
X20008158Y-12743341D01*
X20008158Y-12743341D02*
X20008158Y-12705246D01*
X20008158Y-12705246D02*
X19998635Y-12657627D01*
X19998635Y-12657627D02*
X19989111Y-12629055D01*
X19989111Y-12629055D02*
X19979587Y-12610008D01*
X19979587Y-12610008D02*
X19960539Y-12581436D01*
X19960539Y-12581436D02*
X19951016Y-12571912D01*
M02*
