%TF.GenerationSoftware,KiCad,Pcbnew,7.0.11+dfsg-1build4*%
%TF.CreationDate,2026-08-10T02:10:54+00:00*%
%TF.ProjectId,oa35-aio,6f613335-2d61-4696-9f2e-6b696361645f,rev?*%
%TF.SameCoordinates,Original*%
%TF.FileFunction,Copper,L6,Bot*%
%TF.FilePolarity,Positive*%
%FSLAX46Y46*%
G04 Gerber Fmt 4.6, Leading zero omitted, Abs format (unit mm)*
G04 Created by KiCad (PCBNEW 7.0.11+dfsg-1build4) date 2026-08-10 02:10:54*
%MOMM*%
%LPD*%
G01*
G04 APERTURE LIST*
G04 Aperture macros list*
%AMRoundRect*
0 Rectangle with rounded corners*
0 $1 Rounding radius*
0 $2 $3 $4 $5 $6 $7 $8 $9 X,Y pos of 4 corners*
0 Add a 4 corners polygon primitive as box body*
4,1,4,$2,$3,$4,$5,$6,$7,$8,$9,$2,$3,0*
0 Add four circle primitives for the rounded corners*
1,1,$1+$1,$2,$3*
1,1,$1+$1,$4,$5*
1,1,$1+$1,$6,$7*
1,1,$1+$1,$8,$9*
0 Add four rect primitives between the rounded corners*
20,1,$1+$1,$2,$3,$4,$5,0*
20,1,$1+$1,$4,$5,$6,$7,0*
20,1,$1+$1,$6,$7,$8,$9,0*
20,1,$1+$1,$8,$9,$2,$3,0*%
G04 Aperture macros list end*
%TA.AperFunction,SMDPad,CuDef*%
%ADD10RoundRect,0.050000X-0.150000X-0.300000X0.150000X-0.300000X0.150000X0.300000X-0.150000X0.300000X0*%
%TD*%
%TA.AperFunction,SMDPad,CuDef*%
%ADD11R,0.350000X0.500000*%
%TD*%
%TA.AperFunction,SMDPad,CuDef*%
%ADD12RoundRect,0.140000X-0.140000X-0.170000X0.140000X-0.170000X0.140000X0.170000X-0.140000X0.170000X0*%
%TD*%
%TA.AperFunction,SMDPad,CuDef*%
%ADD13RoundRect,0.140000X0.170000X-0.140000X0.170000X0.140000X-0.170000X0.140000X-0.170000X-0.140000X0*%
%TD*%
%TA.AperFunction,SMDPad,CuDef*%
%ADD14RoundRect,0.150000X-0.650000X-0.150000X0.650000X-0.150000X0.650000X0.150000X-0.650000X0.150000X0*%
%TD*%
%TA.AperFunction,SMDPad,CuDef*%
%ADD15RoundRect,0.250000X0.475000X-0.250000X0.475000X0.250000X-0.475000X0.250000X-0.475000X-0.250000X0*%
%TD*%
%TA.AperFunction,SMDPad,CuDef*%
%ADD16RoundRect,0.250000X-0.250000X-0.475000X0.250000X-0.475000X0.250000X0.475000X-0.250000X0.475000X0*%
%TD*%
%TA.AperFunction,SMDPad,CuDef*%
%ADD17R,0.600000X1.450000*%
%TD*%
%TA.AperFunction,SMDPad,CuDef*%
%ADD18R,0.300000X1.450000*%
%TD*%
%TA.AperFunction,ComponentPad*%
%ADD19O,1.000000X1.600000*%
%TD*%
%TA.AperFunction,ComponentPad*%
%ADD20O,1.000000X2.100000*%
%TD*%
%TA.AperFunction,SMDPad,CuDef*%
%ADD21RoundRect,0.093750X-0.093750X-0.106250X0.093750X-0.106250X0.093750X0.106250X-0.093750X0.106250X0*%
%TD*%
%TA.AperFunction,HeatsinkPad*%
%ADD22R,1.000000X1.600000*%
%TD*%
%TA.AperFunction,SMDPad,CuDef*%
%ADD23R,1.600000X1.200000*%
%TD*%
%TA.AperFunction,SMDPad,CuDef*%
%ADD24R,1.200000X1.600000*%
%TD*%
%TA.AperFunction,SMDPad,CuDef*%
%ADD25R,2.200000X1.600000*%
%TD*%
%TA.AperFunction,SMDPad,CuDef*%
%ADD26R,1.600000X2.200000*%
%TD*%
%TA.AperFunction,SMDPad,CuDef*%
%ADD27RoundRect,0.100000X-0.130000X-0.100000X0.130000X-0.100000X0.130000X0.100000X-0.130000X0.100000X0*%
%TD*%
%TA.AperFunction,SMDPad,CuDef*%
%ADD28RoundRect,0.100000X0.100000X-0.130000X0.100000X0.130000X-0.100000X0.130000X-0.100000X-0.130000X0*%
%TD*%
%TA.AperFunction,SMDPad,CuDef*%
%ADD29RoundRect,0.087500X-0.207500X-0.087500X0.207500X-0.087500X0.207500X0.087500X-0.207500X0.087500X0*%
%TD*%
%TA.AperFunction,SMDPad,CuDef*%
%ADD30RoundRect,0.087500X-0.087500X-0.207500X0.087500X-0.207500X0.087500X0.207500X-0.087500X0.207500X0*%
%TD*%
%TA.AperFunction,SMDPad,CuDef*%
%ADD31R,2.600000X1.100000*%
%TD*%
%TA.AperFunction,SMDPad,CuDef*%
%ADD32RoundRect,0.075000X-0.700000X-0.075000X0.700000X-0.075000X0.700000X0.075000X-0.700000X0.075000X0*%
%TD*%
%TA.AperFunction,SMDPad,CuDef*%
%ADD33RoundRect,0.075000X-0.075000X-0.700000X0.075000X-0.700000X0.075000X0.700000X-0.075000X0.700000X0*%
%TD*%
%TA.AperFunction,SMDPad,CuDef*%
%ADD34RoundRect,0.062500X0.062500X-0.350000X0.062500X0.350000X-0.062500X0.350000X-0.062500X-0.350000X0*%
%TD*%
%TA.AperFunction,SMDPad,CuDef*%
%ADD35RoundRect,0.062500X0.350000X-0.062500X0.350000X0.062500X-0.350000X0.062500X-0.350000X-0.062500X0*%
%TD*%
%TA.AperFunction,HeatsinkPad*%
%ADD36R,2.400000X2.400000*%
%TD*%
%TA.AperFunction,SMDPad,CuDef*%
%ADD37RoundRect,0.062500X-0.350000X-0.062500X0.350000X-0.062500X0.350000X0.062500X-0.350000X0.062500X0*%
%TD*%
%TA.AperFunction,SMDPad,CuDef*%
%ADD38RoundRect,0.062500X-0.062500X-0.350000X0.062500X-0.350000X0.062500X0.350000X-0.062500X0.350000X0*%
%TD*%
%TA.AperFunction,SMDPad,CuDef*%
%ADD39RoundRect,0.062500X0.350000X0.062500X-0.350000X0.062500X-0.350000X-0.062500X0.350000X-0.062500X0*%
%TD*%
%TA.AperFunction,SMDPad,CuDef*%
%ADD40RoundRect,0.062500X0.062500X0.350000X-0.062500X0.350000X-0.062500X-0.350000X0.062500X-0.350000X0*%
%TD*%
%TA.AperFunction,SMDPad,CuDef*%
%ADD41RoundRect,0.062500X-0.062500X0.350000X-0.062500X-0.350000X0.062500X-0.350000X0.062500X0.350000X0*%
%TD*%
%TA.AperFunction,SMDPad,CuDef*%
%ADD42RoundRect,0.062500X-0.350000X0.062500X-0.350000X-0.062500X0.350000X-0.062500X0.350000X0.062500X0*%
%TD*%
%TA.AperFunction,SMDPad,CuDef*%
%ADD43RoundRect,0.150000X-0.512500X-0.150000X0.512500X-0.150000X0.512500X0.150000X-0.512500X0.150000X0*%
%TD*%
%TA.AperFunction,SMDPad,CuDef*%
%ADD44RoundRect,0.150000X0.625000X-0.150000X0.625000X0.150000X-0.625000X0.150000X-0.625000X-0.150000X0*%
%TD*%
%TA.AperFunction,SMDPad,CuDef*%
%ADD45RoundRect,0.250000X0.650000X-0.350000X0.650000X0.350000X-0.650000X0.350000X-0.650000X-0.350000X0*%
%TD*%
%TA.AperFunction,SMDPad,CuDef*%
%ADD46RoundRect,0.135000X-0.135000X-0.185000X0.135000X-0.185000X0.135000X0.185000X-0.135000X0.185000X0*%
%TD*%
G04 APERTURE END LIST*
D10*
%TO.P,D3,1*%
%TO.N,+5V*%
X165265000Y-85475000D03*
%TO.P,D3,2*%
%TO.N,+5V_BUCK*%
X165965000Y-85475000D03*
%TD*%
%TO.P,D4,1*%
%TO.N,+5V*%
X151620000Y-83292000D03*
%TO.P,D4,2*%
%TO.N,VBUS*%
X152320000Y-83292000D03*
%TD*%
D11*
%TO.P,U8,1*%
%TO.N,GND*%
X145825000Y-92600000D03*
%TO.P,U8,2*%
%TO.N,+3V3*%
X146475000Y-92600000D03*
%TO.P,U8,3*%
%TO.N,I2C_SDA*%
X147125000Y-92600000D03*
%TO.P,U8,4*%
%TO.N,I2C_SCL*%
X147775000Y-92600000D03*
%TO.P,U8,5*%
%TO.N,GND*%
X147775000Y-91000000D03*
%TO.P,U8,6*%
%TO.N,+3V3*%
X147125000Y-91000000D03*
%TO.P,U8,7*%
%TO.N,GND*%
X146475000Y-91000000D03*
%TO.P,U8,8*%
%TO.N,+3V3*%
X145825000Y-91000000D03*
%TD*%
D12*
%TO.P,C23,1*%
%TO.N,+3V3E*%
X153888000Y-110573000D03*
%TO.P,C23,2*%
%TO.N,GND*%
X154848000Y-110573000D03*
%TD*%
%TO.P,C30,1*%
%TO.N,+3V3*%
X139974000Y-106936000D03*
%TO.P,C30,2*%
%TO.N,GND*%
X140934000Y-106936000D03*
%TD*%
%TO.P,C31,1*%
%TO.N,VCAP*%
X157523000Y-109208000D03*
%TO.P,C31,2*%
%TO.N,GND*%
X158483000Y-109208000D03*
%TD*%
%TO.P,C33,1*%
%TO.N,+3V3A*%
X156108000Y-110741000D03*
%TO.P,C33,2*%
%TO.N,GND*%
X157068000Y-110741000D03*
%TD*%
D13*
%TO.P,C43,1*%
%TO.N,VBUS*%
X139899000Y-86135000D03*
%TO.P,C43,2*%
%TO.N,GND*%
X139899000Y-85175000D03*
%TD*%
D14*
%TO.P,U9,1*%
%TO.N,FLASH_CS*%
X147400000Y-116805000D03*
%TO.P,U9,2*%
%TO.N,FLASH_MISO*%
X147400000Y-115535000D03*
%TO.P,U9,3*%
%TO.N,+3V3*%
X147400000Y-114265000D03*
%TO.P,U9,4*%
%TO.N,GND*%
X147400000Y-112995000D03*
%TO.P,U9,5*%
%TO.N,FLASH_MOSI*%
X154600000Y-112995000D03*
%TO.P,U9,6*%
%TO.N,FLASH_SCK*%
X154600000Y-114265000D03*
%TO.P,U9,7*%
%TO.N,+3V3*%
X154600000Y-115535000D03*
%TO.P,U9,8*%
X154600000Y-116805000D03*
%TD*%
D15*
%TO.P,C10,1*%
%TO.N,+10V*%
X166300000Y-100950000D03*
%TO.P,C10,2*%
%TO.N,GND*%
X166300000Y-99050000D03*
%TD*%
D16*
%TO.P,C13,1*%
%TO.N,+5V_BUCK*%
X159349000Y-91270000D03*
%TO.P,C13,2*%
%TO.N,GND*%
X161249000Y-91270000D03*
%TD*%
D15*
%TO.P,C14,1*%
%TO.N,+5V_BUCK*%
X163173000Y-92792000D03*
%TO.P,C14,2*%
%TO.N,GND*%
X163173000Y-90892000D03*
%TD*%
D16*
%TO.P,C16,1*%
%TO.N,+5V*%
X153138000Y-85090000D03*
%TO.P,C16,2*%
%TO.N,GND*%
X155038000Y-85090000D03*
%TD*%
%TO.P,C9,1*%
%TO.N,+10V*%
X159952000Y-109497000D03*
%TO.P,C9,2*%
%TO.N,GND*%
X161852000Y-109497000D03*
%TD*%
D17*
%TO.P,J1,A1*%
%TO.N,GND*%
X149070000Y-84525000D03*
%TO.P,J1,A4*%
%TO.N,VBUS*%
X148270000Y-84525000D03*
D18*
%TO.P,J1,A5*%
%TO.N,CC1*%
X147070000Y-84525000D03*
%TO.P,J1,A6*%
%TO.N,USB_DP*%
X146070000Y-84525000D03*
%TO.P,J1,A7*%
%TO.N,USB_DM*%
X145570000Y-84525000D03*
%TO.P,J1,A8*%
%TO.N,N/C*%
X144570000Y-84525000D03*
D17*
%TO.P,J1,A9*%
%TO.N,VBUS*%
X143370000Y-84525000D03*
%TO.P,J1,A12*%
%TO.N,GND*%
X142570000Y-84525000D03*
%TO.P,J1,B1*%
X142570000Y-84525000D03*
%TO.P,J1,B4*%
%TO.N,VBUS*%
X143370000Y-84525000D03*
D18*
%TO.P,J1,B5*%
%TO.N,CC2*%
X144070000Y-84525000D03*
%TO.P,J1,B6*%
%TO.N,USB_DP*%
X145070000Y-84525000D03*
%TO.P,J1,B7*%
%TO.N,USB_DM*%
X146570000Y-84525000D03*
%TO.P,J1,B8*%
%TO.N,N/C*%
X147570000Y-84525000D03*
D17*
%TO.P,J1,B9*%
%TO.N,VBUS*%
X148270000Y-84525000D03*
%TO.P,J1,B12*%
%TO.N,GND*%
X149070000Y-84525000D03*
D19*
%TO.P,J1,S1*%
X150140000Y-89620000D03*
D20*
X150140000Y-85440000D03*
D19*
X141500000Y-89620000D03*
D20*
X141500000Y-85440000D03*
%TD*%
D21*
%TO.P,U5,1*%
%TO.N,+3V3E*%
X153480500Y-109423000D03*
%TO.P,U5,2*%
X153480500Y-108773000D03*
%TO.P,U5,3*%
%TO.N,GND*%
X153480500Y-108123000D03*
%TO.P,U5,4*%
%TO.N,+10V*%
X155255500Y-108123000D03*
%TO.P,U5,5*%
%TO.N,GND*%
X155255500Y-108773000D03*
%TO.P,U5,6*%
%TO.N,+10V*%
X155255500Y-109423000D03*
D22*
%TO.P,U5,7*%
%TO.N,GND*%
X154368000Y-108773000D03*
%TD*%
D23*
%TO.P,TP11,1*%
%TO.N,SWDIO_3*%
X141000000Y-112000000D03*
%TD*%
%TO.P,TP12,1*%
%TO.N,SWCLK_3*%
X141000000Y-113600000D03*
%TD*%
%TO.P,TP13,1*%
%TO.N,SWDIO_4*%
X135500000Y-93600000D03*
%TD*%
%TO.P,TP14,1*%
%TO.N,SWCLK_4*%
X135500000Y-92000000D03*
%TD*%
D24*
%TO.P,TP2,1*%
%TO.N,SWCLK*%
X142400000Y-103900000D03*
%TD*%
D23*
%TO.P,TP10,1*%
%TO.N,SWCLK_2*%
X159000000Y-86400000D03*
%TD*%
D24*
%TO.P,TP1,1*%
%TO.N,SWDIO*%
X140600000Y-103900000D03*
%TD*%
%TO.P,TP3,1*%
%TO.N,NRST*%
X140600000Y-101700000D03*
%TD*%
%TO.P,TP4,1*%
%TO.N,BOOT0*%
X142400000Y-101700000D03*
%TD*%
%TO.P,TP5,1*%
%TO.N,+3V3*%
X140600000Y-99500000D03*
%TD*%
%TO.P,TP6,1*%
%TO.N,GND*%
X142400000Y-99500000D03*
%TD*%
D23*
%TO.P,TP7,1*%
%TO.N,SWDIO_1*%
X164500000Y-104600000D03*
%TD*%
%TO.P,TP8,1*%
%TO.N,SWCLK_1*%
X164500000Y-103000000D03*
%TD*%
%TO.P,TP9,1*%
%TO.N,SWDIO_2*%
X159000000Y-88000000D03*
%TD*%
D25*
%TO.P,P2,1*%
%TO.N,GND*%
X137400000Y-83400000D03*
%TD*%
%TO.P,P3,1*%
%TO.N,UART2_RX*%
X142000000Y-116600000D03*
%TD*%
%TO.P,P4,1*%
%TO.N,UART2_TX*%
X144600000Y-116600000D03*
%TD*%
%TO.P,P5,1*%
%TO.N,+5V*%
X157400000Y-83400000D03*
%TD*%
%TO.P,P6,1*%
%TO.N,GND*%
X160000000Y-83400000D03*
%TD*%
%TO.P,P7,1*%
%TO.N,UART4_RX*%
X162600000Y-83400000D03*
%TD*%
%TO.P,P1,1*%
%TO.N,+5V*%
X134800000Y-83400000D03*
%TD*%
%TO.P,P8,1*%
%TO.N,UART4_TX*%
X165200000Y-83400000D03*
%TD*%
D26*
%TO.P,P9,1*%
%TO.N,UART6_RX*%
X166600000Y-87600000D03*
%TD*%
%TO.P,P10,1*%
%TO.N,UART6_TX*%
X166600000Y-90200000D03*
%TD*%
%TO.P,P11,1*%
%TO.N,UART1_RX*%
X166600000Y-92800000D03*
%TD*%
%TO.P,P12,1*%
%TO.N,UART1_TX*%
X166600000Y-95400000D03*
%TD*%
%TO.P,P13,1*%
%TO.N,PAD_LED*%
X166600000Y-107200000D03*
%TD*%
%TO.P,P14,1*%
%TO.N,PAD_BZ-*%
X166600000Y-109800000D03*
%TD*%
%TO.P,P15,1*%
%TO.N,+5V*%
X166600000Y-112400000D03*
%TD*%
%TO.P,P16,1*%
%TO.N,PAD_RSSI*%
X133400000Y-87600000D03*
%TD*%
%TO.P,P17,1*%
%TO.N,I2C_SCL*%
X133400000Y-90200000D03*
%TD*%
%TO.P,P18,1*%
%TO.N,I2C_SDA*%
X133400000Y-92800000D03*
%TD*%
%TO.P,P19,1*%
%TO.N,+3V3*%
X133400000Y-107200000D03*
%TD*%
%TO.P,P20,1*%
%TO.N,GND*%
X133400000Y-109800000D03*
%TD*%
%TO.P,P21,1*%
%TO.N,VBAT*%
X133400000Y-112400000D03*
%TD*%
D25*
%TO.P,P22,1*%
%TO.N,GND*%
X136800000Y-116600000D03*
%TD*%
D27*
%TO.P,C11,1*%
%TO.N,+10V*%
X158778000Y-93613000D03*
%TO.P,C11,2*%
%TO.N,GND*%
X159418000Y-93613000D03*
%TD*%
D28*
%TO.P,C12,1*%
%TO.N,BST_5V*%
X160595000Y-93543000D03*
%TO.P,C12,2*%
%TO.N,SW_5V*%
X160595000Y-92903000D03*
%TD*%
D27*
%TO.P,C15,1*%
%TO.N,+5V_BUCK*%
X159280000Y-89601000D03*
%TO.P,C15,2*%
%TO.N,GND*%
X159920000Y-89601000D03*
%TD*%
D28*
%TO.P,C17,1*%
%TO.N,+5V*%
X164886000Y-93049000D03*
%TO.P,C17,2*%
%TO.N,GND*%
X164886000Y-92409000D03*
%TD*%
D27*
%TO.P,C18,1*%
%TO.N,+5V*%
X165790000Y-97397000D03*
%TO.P,C18,2*%
%TO.N,GND*%
X166430000Y-97397000D03*
%TD*%
D28*
%TO.P,C24,1*%
%TO.N,+3V3E*%
X156327000Y-109496000D03*
%TO.P,C24,2*%
%TO.N,GND*%
X156327000Y-108856000D03*
%TD*%
D27*
%TO.P,C25,1*%
%TO.N,+3V3*%
X148876000Y-91839000D03*
%TO.P,C25,2*%
%TO.N,GND*%
X149516000Y-91839000D03*
%TD*%
%TO.P,C26,1*%
%TO.N,+3V3*%
X144100000Y-91944000D03*
%TO.P,C26,2*%
%TO.N,GND*%
X144740000Y-91944000D03*
%TD*%
%TO.P,C27,1*%
%TO.N,+3V3*%
X141199000Y-105667000D03*
%TO.P,C27,2*%
%TO.N,GND*%
X141839000Y-105667000D03*
%TD*%
D28*
%TO.P,C28,1*%
%TO.N,+3V3*%
X139029000Y-101123000D03*
%TO.P,C28,2*%
%TO.N,GND*%
X139029000Y-100483000D03*
%TD*%
%TO.P,C29,1*%
%TO.N,+3V3*%
X139066000Y-99117000D03*
%TO.P,C29,2*%
%TO.N,GND*%
X139066000Y-98477000D03*
%TD*%
%TO.P,C32,1*%
%TO.N,NRST*%
X139103999Y-103671000D03*
%TO.P,C32,2*%
%TO.N,GND*%
X139103999Y-103031000D03*
%TD*%
D27*
%TO.P,C34,1*%
%TO.N,+3V3A*%
X139282000Y-105579000D03*
%TO.P,C34,2*%
%TO.N,GND*%
X139922000Y-105579000D03*
%TD*%
%TO.P,C38,1*%
%TO.N,+3V3*%
X145015000Y-113781000D03*
%TO.P,C38,2*%
%TO.N,GND*%
X145655000Y-113781000D03*
%TD*%
D28*
%TO.P,C39,1*%
%TO.N,+3V3*%
X156269000Y-112835000D03*
%TO.P,C39,2*%
%TO.N,GND*%
X156269000Y-112195000D03*
%TD*%
%TO.P,C40,1*%
%TO.N,+3V3*%
X139889000Y-88091000D03*
%TO.P,C40,2*%
%TO.N,GND*%
X139889000Y-87451000D03*
%TD*%
%TO.P,C41,1*%
%TO.N,+3V3*%
X156385000Y-115624000D03*
%TO.P,C41,2*%
%TO.N,GND*%
X156385000Y-114984000D03*
%TD*%
D27*
%TO.P,C42,1*%
%TO.N,VBUS*%
X144209000Y-82914999D03*
%TO.P,C42,2*%
%TO.N,GND*%
X144849000Y-82914999D03*
%TD*%
D28*
%TO.P,C8,1*%
%TO.N,BST_GD*%
X166161000Y-103052000D03*
%TO.P,C8,2*%
%TO.N,SW_GD*%
X166161000Y-102412000D03*
%TD*%
%TO.P,CRST1,1*%
%TO.N,NRST_1*%
X164352000Y-107255000D03*
%TO.P,CRST1,2*%
%TO.N,GND*%
X164352000Y-106615000D03*
%TD*%
D27*
%TO.P,CRST2,1*%
%TO.N,NRST_2*%
X156624000Y-85431000D03*
%TO.P,CRST2,2*%
%TO.N,GND*%
X157264000Y-85431000D03*
%TD*%
D28*
%TO.P,CRST3,1*%
%TO.N,NRST_3*%
X141021000Y-109715000D03*
%TO.P,CRST3,2*%
%TO.N,GND*%
X141021000Y-109075000D03*
%TD*%
%TO.P,CRST4,1*%
%TO.N,NRST_4*%
X135638000Y-96014000D03*
%TO.P,CRST4,2*%
%TO.N,GND*%
X135638000Y-95374000D03*
%TD*%
D27*
%TO.P,CVDA1,1*%
%TO.N,VDDA_1*%
X163447000Y-109222000D03*
%TO.P,CVDA1,2*%
%TO.N,GND*%
X164087000Y-109222000D03*
%TD*%
D28*
%TO.P,CVDA2,1*%
%TO.N,VDDA_2*%
X151531000Y-85524000D03*
%TO.P,CVDA2,2*%
%TO.N,GND*%
X151531000Y-84884000D03*
%TD*%
D27*
%TO.P,CVDA3,1*%
%TO.N,VDDA_3*%
X143207000Y-113946000D03*
%TO.P,CVDA3,2*%
%TO.N,GND*%
X143847000Y-113946000D03*
%TD*%
D28*
%TO.P,CVDA4,1*%
%TO.N,VDDA_4*%
X134335000Y-95822000D03*
%TO.P,CVDA4,2*%
%TO.N,GND*%
X134335000Y-95182000D03*
%TD*%
%TO.P,CVDD1,1*%
%TO.N,+3V3E*%
X166186000Y-104920000D03*
%TO.P,CVDD1,2*%
%TO.N,GND*%
X166186000Y-104280000D03*
%TD*%
D27*
%TO.P,CVDD2,1*%
%TO.N,+3V3E*%
X153581000Y-83498000D03*
%TO.P,CVDD2,2*%
%TO.N,GND*%
X154221000Y-83498000D03*
%TD*%
D28*
%TO.P,CVDD3,1*%
%TO.N,+3V3E*%
X139897000Y-109118000D03*
%TO.P,CVDD3,2*%
%TO.N,GND*%
X139897000Y-108478000D03*
%TD*%
%TO.P,CVDD4,1*%
%TO.N,+3V3E*%
X135534000Y-90484000D03*
%TO.P,CVDD4,2*%
%TO.N,GND*%
X135534000Y-89844000D03*
%TD*%
D29*
%TO.P,U7,1*%
%TO.N,GYRO_MISO*%
X148835000Y-108650000D03*
%TO.P,U7,2*%
%TO.N,NC_U7_2*%
X148835000Y-109150000D03*
%TO.P,U7,3*%
%TO.N,GND*%
X148835000Y-109650000D03*
%TO.P,U7,4*%
%TO.N,GYRO_INT*%
X148835000Y-110150000D03*
D30*
%TO.P,U7,5*%
%TO.N,+3V3*%
X149500000Y-110315000D03*
%TO.P,U7,6*%
%TO.N,GND*%
X150000000Y-110315000D03*
%TO.P,U7,7*%
%TO.N,NC_U7_7*%
X150500000Y-110315000D03*
D29*
%TO.P,U7,8*%
%TO.N,+3V3*%
X151165000Y-110150000D03*
%TO.P,U7,9*%
%TO.N,NC_U7_9*%
X151165000Y-109650000D03*
%TO.P,U7,10*%
%TO.N,NC_U7_10*%
X151165000Y-109150000D03*
%TO.P,U7,11*%
%TO.N,NC_U7_11*%
X151165000Y-108650000D03*
D30*
%TO.P,U7,12*%
%TO.N,GYRO_CS*%
X150500000Y-108485000D03*
%TO.P,U7,13*%
%TO.N,GYRO_SCK*%
X150000000Y-108485000D03*
%TO.P,U7,14*%
%TO.N,GYRO_MOSI*%
X149500000Y-108485000D03*
%TD*%
D31*
%TO.P,L2,1*%
%TO.N,SW_5V*%
X163600000Y-96950000D03*
%TO.P,L2,2*%
%TO.N,+5V_BUCK*%
X163600000Y-94650000D03*
%TD*%
%TO.P,L1,1*%
%TO.N,SW_GD*%
X163600000Y-101150000D03*
%TO.P,L1,2*%
%TO.N,+10V*%
X163600000Y-98850000D03*
%TD*%
D27*
%TO.P,R19,1*%
%TO.N,+3V3*%
X144993000Y-114865000D03*
%TO.P,R19,2*%
%TO.N,GYRO_CS*%
X145633000Y-114865000D03*
%TD*%
D28*
%TO.P,R2,1*%
%TO.N,+10V*%
X158398000Y-111064000D03*
%TO.P,R2,2*%
%TO.N,FB_GD*%
X158398000Y-110424000D03*
%TD*%
D27*
%TO.P,R20,1*%
%TO.N,+3V3*%
X147779000Y-82894000D03*
%TO.P,R20,2*%
%TO.N,I2C_SCL*%
X148419000Y-82894000D03*
%TD*%
%TO.P,R21,1*%
%TO.N,+3V3*%
X149537000Y-82911000D03*
%TO.P,R21,2*%
%TO.N,I2C_SDA*%
X150177000Y-82911000D03*
%TD*%
%TO.P,R22,1*%
%TO.N,+3V3*%
X156348000Y-116868000D03*
%TO.P,R22,2*%
%TO.N,FLASH_CS*%
X156988000Y-116868000D03*
%TD*%
D28*
%TO.P,R3,1*%
%TO.N,FB_GD*%
X164884000Y-90727000D03*
%TO.P,R3,2*%
%TO.N,GND*%
X164884000Y-90087000D03*
%TD*%
D27*
%TO.P,R4,1*%
%TO.N,+5V_BUCK*%
X163724000Y-110305000D03*
%TO.P,R4,2*%
%TO.N,FB_5V*%
X164364000Y-110305000D03*
%TD*%
%TO.P,R5,1*%
%TO.N,FB_5V*%
X159682000Y-111192000D03*
%TO.P,R5,2*%
%TO.N,GND*%
X160322000Y-111192000D03*
%TD*%
%TO.P,R8,1*%
%TO.N,BOOT0*%
X153435000Y-111818000D03*
%TO.P,R8,2*%
%TO.N,GND*%
X154075000Y-111818000D03*
%TD*%
D28*
%TO.P,R9,1*%
%TO.N,+3V3*%
X138817000Y-108743000D03*
%TO.P,R9,2*%
%TO.N,+3V3A*%
X138817000Y-108103000D03*
%TD*%
D27*
%TO.P,RBT01,1*%
%TO.N,BOOT0_1*%
X159280000Y-112357000D03*
%TO.P,RBT01,2*%
%TO.N,GND*%
X159920000Y-112357000D03*
%TD*%
%TO.P,RBT02,1*%
%TO.N,BOOT0_2*%
X142408000Y-82862000D03*
%TO.P,RBT02,2*%
%TO.N,GND*%
X143048000Y-82862000D03*
%TD*%
%TO.P,RBT03,1*%
%TO.N,BOOT0_3*%
X139113000Y-110405000D03*
%TO.P,RBT03,2*%
%TO.N,GND*%
X139753000Y-110405000D03*
%TD*%
D28*
%TO.P,RBT04,1*%
%TO.N,BOOT0_4*%
X133077000Y-95623000D03*
%TO.P,RBT04,2*%
%TO.N,GND*%
X133077000Y-94983000D03*
%TD*%
D27*
%TO.P,RRST1,1*%
%TO.N,+3V3E*%
X157517000Y-112367000D03*
%TO.P,RRST1,2*%
%TO.N,NRST_1*%
X158157000Y-112367000D03*
%TD*%
D28*
%TO.P,RRST2,1*%
%TO.N,+3V3E*%
X140052000Y-83674000D03*
%TO.P,RRST2,2*%
%TO.N,NRST_2*%
X140052000Y-83034000D03*
%TD*%
D27*
%TO.P,RRST3,1*%
%TO.N,+3V3E*%
X137291000Y-110201000D03*
%TO.P,RRST3,2*%
%TO.N,NRST_3*%
X137931000Y-110201000D03*
%TD*%
%TO.P,RRST4,1*%
%TO.N,+3V3E*%
X135339000Y-106688000D03*
%TO.P,RRST4,2*%
%TO.N,NRST_4*%
X135979000Y-106688000D03*
%TD*%
%TO.P,RVDA1,1*%
%TO.N,+3V3E*%
X159580000Y-113585000D03*
%TO.P,RVDA1,2*%
%TO.N,VDDA_1*%
X160220000Y-113585000D03*
%TD*%
%TO.P,RVDA2,1*%
%TO.N,+3V3E*%
X157475000Y-113638000D03*
%TO.P,RVDA2,2*%
%TO.N,VDDA_2*%
X158115000Y-113638000D03*
%TD*%
D28*
%TO.P,RVDA3,1*%
%TO.N,+3V3E*%
X137697000Y-108923000D03*
%TO.P,RVDA3,2*%
%TO.N,VDDA_3*%
X137697000Y-108283000D03*
%TD*%
D27*
%TO.P,RVDA4,1*%
%TO.N,+3V3E*%
X135236000Y-107912000D03*
%TO.P,RVDA4,2*%
%TO.N,VDDA_4*%
X135876000Y-107912000D03*
%TD*%
%TO.P,RBA1,1*%
%TO.N,PH_A_1*%
X158535000Y-114782000D03*
%TO.P,RBA1,2*%
%TO.N,FBA_1*%
X159175000Y-114782000D03*
%TD*%
D28*
%TO.P,RBA2,1*%
%TO.N,PH_A_2*%
X160377000Y-115329000D03*
%TO.P,RBA2,2*%
%TO.N,FBA_2*%
X160377000Y-114689000D03*
%TD*%
%TO.P,RBA3,1*%
%TO.N,PH_A_3*%
X136228000Y-110003000D03*
%TO.P,RBA3,2*%
%TO.N,FBA_3*%
X136228000Y-109363000D03*
%TD*%
%TO.P,RBA4,1*%
%TO.N,PH_A_4*%
X135130000Y-109713000D03*
%TO.P,RBA4,2*%
%TO.N,FBA_4*%
X135130000Y-109073000D03*
%TD*%
D27*
%TO.P,RBB1,1*%
%TO.N,PH_B_1*%
X162138000Y-115301000D03*
%TO.P,RBB1,2*%
%TO.N,FBB_1*%
X162778000Y-115301000D03*
%TD*%
%TO.P,RBB2,1*%
%TO.N,PH_B_2*%
X158414000Y-115952000D03*
%TO.P,RBB2,2*%
%TO.N,FBB_2*%
X159054000Y-115952000D03*
%TD*%
%TO.P,RBB3,1*%
%TO.N,PH_B_3*%
X139154000Y-115075000D03*
%TO.P,RBB3,2*%
%TO.N,FBB_3*%
X139794000Y-115075000D03*
%TD*%
%TO.P,RBB4,1*%
%TO.N,PH_B_4*%
X134071000Y-114482000D03*
%TO.P,RBB4,2*%
%TO.N,FBB_4*%
X134711000Y-114482000D03*
%TD*%
%TO.P,RBC1,1*%
%TO.N,PH_C_1*%
X165285000Y-114533000D03*
%TO.P,RBC1,2*%
%TO.N,FBC_1*%
X165925000Y-114533000D03*
%TD*%
%TO.P,RBC2,1*%
%TO.N,PH_C_2*%
X160224000Y-116563000D03*
%TO.P,RBC2,2*%
%TO.N,FBC_2*%
X160864000Y-116563000D03*
%TD*%
D28*
%TO.P,RBC3,1*%
%TO.N,PH_C_3*%
X139921000Y-116935000D03*
%TO.P,RBC3,2*%
%TO.N,FBC_3*%
X139921000Y-116295000D03*
%TD*%
D27*
%TO.P,RBC4,1*%
%TO.N,PH_C_4*%
X133432000Y-115588000D03*
%TO.P,RBC4,2*%
%TO.N,FBC_4*%
X134072000Y-115588000D03*
%TD*%
%TO.P,RCA1,1*%
%TO.N,FBA_1*%
X158104000Y-117099000D03*
%TO.P,RCA1,2*%
%TO.N,FBCOM_1*%
X158744000Y-117099000D03*
%TD*%
%TO.P,RCB1,1*%
%TO.N,FBB_1*%
X162082000Y-116366000D03*
%TO.P,RCB1,2*%
%TO.N,FBCOM_1*%
X162722000Y-116366000D03*
%TD*%
D28*
%TO.P,RCC1,1*%
%TO.N,FBC_1*%
X163968000Y-115831000D03*
%TO.P,RCC1,2*%
%TO.N,FBCOM_1*%
X163968000Y-115191000D03*
%TD*%
%TO.P,RCA2,1*%
%TO.N,FBA_2*%
X165239000Y-116222000D03*
%TO.P,RCA2,2*%
%TO.N,FBCOM_2*%
X165239000Y-115582000D03*
%TD*%
%TO.P,RCB2,1*%
%TO.N,FBB_2*%
X166477000Y-116252000D03*
%TO.P,RCB2,2*%
%TO.N,FBCOM_2*%
X166477000Y-115612000D03*
%TD*%
D27*
%TO.P,RCC2,1*%
%TO.N,FBC_2*%
X134074000Y-116776000D03*
%TO.P,RCC2,2*%
%TO.N,FBCOM_2*%
X134714000Y-116776000D03*
%TD*%
D28*
%TO.P,RCA4,1*%
%TO.N,FBA_4*%
X138777000Y-116853000D03*
%TO.P,RCA4,2*%
%TO.N,FBCOM_4*%
X138777000Y-116213000D03*
%TD*%
D32*
%TO.P,U6,1*%
%TO.N,+3V3*%
X144325000Y-103750000D03*
%TO.P,U6,2*%
%TO.N,BEEP_GATE*%
X144325000Y-103250000D03*
%TO.P,U6,3*%
%TO.N,LED0*%
X144325000Y-102750000D03*
%TO.P,U6,4*%
%TO.N,LED1*%
X144325000Y-102250000D03*
%TO.P,U6,5*%
%TO.N,HSE_IN*%
X144325000Y-101750000D03*
%TO.P,U6,6*%
%TO.N,HSE_OUT*%
X144325000Y-101250000D03*
%TO.P,U6,7*%
%TO.N,NRST*%
X144325000Y-100750000D03*
%TO.P,U6,8*%
%TO.N,NC_PC0*%
X144325000Y-100250000D03*
%TO.P,U6,9*%
%TO.N,ADC_VBAT*%
X144325000Y-99750000D03*
%TO.P,U6,10*%
%TO.N,CURR*%
X144325000Y-99250000D03*
%TO.P,U6,11*%
%TO.N,ADC_RSSI*%
X144325000Y-98750000D03*
%TO.P,U6,12*%
%TO.N,GND*%
X144325000Y-98250000D03*
%TO.P,U6,13*%
%TO.N,+3V3A*%
X144325000Y-97750000D03*
%TO.P,U6,14*%
%TO.N,UART4_TX*%
X144325000Y-97250000D03*
%TO.P,U6,15*%
%TO.N,UART4_RX*%
X144325000Y-96750000D03*
%TO.P,U6,16*%
%TO.N,UART2_TX*%
X144325000Y-96250000D03*
D33*
%TO.P,U6,17*%
%TO.N,UART2_RX*%
X146250000Y-94325000D03*
%TO.P,U6,18*%
%TO.N,GND*%
X146750000Y-94325000D03*
%TO.P,U6,19*%
%TO.N,+3V3*%
X147250000Y-94325000D03*
%TO.P,U6,20*%
%TO.N,GYRO_CS*%
X147750000Y-94325000D03*
%TO.P,U6,21*%
%TO.N,GYRO_SCK*%
X148250000Y-94325000D03*
%TO.P,U6,22*%
%TO.N,GYRO_MISO*%
X148750000Y-94325000D03*
%TO.P,U6,23*%
%TO.N,GYRO_MOSI*%
X149250000Y-94325000D03*
%TO.P,U6,24*%
%TO.N,GYRO_INT*%
X149750000Y-94325000D03*
%TO.P,U6,25*%
%TO.N,NC_PC5*%
X150250000Y-94325000D03*
%TO.P,U6,26*%
%TO.N,M1*%
X150750000Y-94325000D03*
%TO.P,U6,27*%
%TO.N,M2*%
X151250000Y-94325000D03*
%TO.P,U6,28*%
%TO.N,NC_PB2*%
X151750000Y-94325000D03*
%TO.P,U6,29*%
%TO.N,NC_PB10*%
X152250000Y-94325000D03*
%TO.P,U6,30*%
%TO.N,VCAP*%
X152750000Y-94325000D03*
%TO.P,U6,31*%
%TO.N,GND*%
X153250000Y-94325000D03*
%TO.P,U6,32*%
%TO.N,+3V3*%
X153750000Y-94325000D03*
D32*
%TO.P,U6,33*%
%TO.N,NC_PB12*%
X155675000Y-96250000D03*
%TO.P,U6,34*%
%TO.N,NC_PB13*%
X155675000Y-96750000D03*
%TO.P,U6,35*%
%TO.N,NC_PB14*%
X155675000Y-97250000D03*
%TO.P,U6,36*%
%TO.N,NC_PB15*%
X155675000Y-97750000D03*
%TO.P,U6,37*%
%TO.N,UART6_TX*%
X155675000Y-98250000D03*
%TO.P,U6,38*%
%TO.N,UART6_RX*%
X155675000Y-98750000D03*
%TO.P,U6,39*%
%TO.N,NC_PC8*%
X155675000Y-99250000D03*
%TO.P,U6,40*%
%TO.N,NC_PC9*%
X155675000Y-99750000D03*
%TO.P,U6,41*%
%TO.N,LED_STRIP*%
X155675000Y-100250000D03*
%TO.P,U6,42*%
%TO.N,UART1_TX*%
X155675000Y-100750000D03*
%TO.P,U6,43*%
%TO.N,UART1_RX*%
X155675000Y-101250000D03*
%TO.P,U6,44*%
%TO.N,USB_DM*%
X155675000Y-101750000D03*
%TO.P,U6,45*%
%TO.N,USB_DP*%
X155675000Y-102250000D03*
%TO.P,U6,46*%
%TO.N,SWDIO*%
X155675000Y-102750000D03*
%TO.P,U6,47*%
%TO.N,GND*%
X155675000Y-103250000D03*
%TO.P,U6,48*%
%TO.N,+3V3*%
X155675000Y-103750000D03*
D33*
%TO.P,U6,49*%
%TO.N,SWCLK*%
X153750000Y-105675000D03*
%TO.P,U6,50*%
%TO.N,FLASH_CS*%
X153250000Y-105675000D03*
%TO.P,U6,51*%
%TO.N,FLASH_SCK*%
X152750000Y-105675000D03*
%TO.P,U6,52*%
%TO.N,FLASH_MISO*%
X152250000Y-105675000D03*
%TO.P,U6,53*%
%TO.N,FLASH_MOSI*%
X151750000Y-105675000D03*
%TO.P,U6,54*%
%TO.N,NC_PD2*%
X151250000Y-105675000D03*
%TO.P,U6,55*%
%TO.N,NC_PB3*%
X150750000Y-105675000D03*
%TO.P,U6,56*%
%TO.N,M3*%
X150250000Y-105675000D03*
%TO.P,U6,57*%
%TO.N,M4*%
X149750000Y-105675000D03*
%TO.P,U6,58*%
%TO.N,I2C_SCL*%
X149250000Y-105675000D03*
%TO.P,U6,59*%
%TO.N,I2C_SDA*%
X148750000Y-105675000D03*
%TO.P,U6,60*%
%TO.N,BOOT0*%
X148250000Y-105675000D03*
%TO.P,U6,61*%
%TO.N,NC_PB8*%
X147750000Y-105675000D03*
%TO.P,U6,62*%
%TO.N,NC_PB9*%
X147250000Y-105675000D03*
%TO.P,U6,63*%
%TO.N,GND*%
X146750000Y-105675000D03*
%TO.P,U6,64*%
%TO.N,+3V3*%
X146250000Y-105675000D03*
%TD*%
D34*
%TO.P,U20,1*%
%TO.N,BOOT0_1*%
X161600000Y-106937500D03*
%TO.P,U20,2*%
%TO.N,NC2_1*%
X161200000Y-106937500D03*
%TO.P,U20,3*%
%TO.N,NC3_1*%
X160800000Y-106937500D03*
%TO.P,U20,4*%
%TO.N,NRST_1*%
X160400000Y-106937500D03*
%TO.P,U20,5*%
%TO.N,VDDA_1*%
X160000000Y-106937500D03*
%TO.P,U20,6*%
%TO.N,FBA_1*%
X159600000Y-106937500D03*
%TO.P,U20,7*%
%TO.N,FBCOM_1*%
X159200000Y-106937500D03*
D35*
%TO.P,U20,8*%
%TO.N,NC8_1*%
X158462500Y-106200000D03*
%TO.P,U20,9*%
%TO.N,NC9_1*%
X158462500Y-105800000D03*
%TO.P,U20,10*%
%TO.N,FBB_1*%
X158462500Y-105400000D03*
%TO.P,U20,11*%
%TO.N,FBC_1*%
X158462500Y-105000000D03*
%TO.P,U20,12*%
%TO.N,NC12_1*%
X158462500Y-104600000D03*
%TO.P,U20,13*%
%TO.N,CL_1*%
X158462500Y-104200000D03*
%TO.P,U20,14*%
%TO.N,BL_1*%
X158462500Y-103800000D03*
D34*
%TO.P,U20,15*%
%TO.N,AL_1*%
X159200000Y-103062500D03*
%TO.P,U20,16*%
%TO.N,GND*%
X159600000Y-103062500D03*
%TO.P,U20,17*%
%TO.N,+3V3E*%
X160000000Y-103062500D03*
%TO.P,U20,18*%
%TO.N,CH_1*%
X160400000Y-103062500D03*
%TO.P,U20,19*%
%TO.N,BH_1*%
X160800000Y-103062500D03*
%TO.P,U20,20*%
%TO.N,AH_1*%
X161200000Y-103062500D03*
%TO.P,U20,21*%
%TO.N,SWDIO_1*%
X161600000Y-103062500D03*
D35*
%TO.P,U20,22*%
%TO.N,SWCLK_1*%
X162337500Y-103800000D03*
%TO.P,U20,23*%
%TO.N,NC23_1*%
X162337500Y-104200000D03*
%TO.P,U20,24*%
%TO.N,NC24_1*%
X162337500Y-104600000D03*
%TO.P,U20,25*%
%TO.N,DSHOT_I_1*%
X162337500Y-105000000D03*
%TO.P,U20,26*%
%TO.N,NC26_1*%
X162337500Y-105400000D03*
%TO.P,U20,27*%
%TO.N,NC27_1*%
X162337500Y-105800000D03*
%TO.P,U20,28*%
%TO.N,NC28_1*%
X162337500Y-106200000D03*
D36*
%TO.P,U20,29*%
%TO.N,GND*%
X160400000Y-105000000D03*
%TD*%
D37*
%TO.P,U30,1*%
%TO.N,BOOT0_2*%
X153062500Y-90800000D03*
%TO.P,U30,2*%
%TO.N,NC2_2*%
X153062500Y-90400000D03*
%TO.P,U30,3*%
%TO.N,NC3_2*%
X153062500Y-90000000D03*
%TO.P,U30,4*%
%TO.N,NRST_2*%
X153062500Y-89600000D03*
%TO.P,U30,5*%
%TO.N,VDDA_2*%
X153062500Y-89200000D03*
%TO.P,U30,6*%
%TO.N,FBA_2*%
X153062500Y-88800000D03*
%TO.P,U30,7*%
%TO.N,FBCOM_2*%
X153062500Y-88400000D03*
D38*
%TO.P,U30,8*%
%TO.N,NC8_2*%
X153800000Y-87662500D03*
%TO.P,U30,9*%
%TO.N,NC9_2*%
X154200000Y-87662500D03*
%TO.P,U30,10*%
%TO.N,FBB_2*%
X154600000Y-87662500D03*
%TO.P,U30,11*%
%TO.N,FBC_2*%
X155000000Y-87662500D03*
%TO.P,U30,12*%
%TO.N,NC12_2*%
X155400000Y-87662500D03*
%TO.P,U30,13*%
%TO.N,CL_2*%
X155800000Y-87662500D03*
%TO.P,U30,14*%
%TO.N,BL_2*%
X156200000Y-87662500D03*
D37*
%TO.P,U30,15*%
%TO.N,AL_2*%
X156937500Y-88400000D03*
%TO.P,U30,16*%
%TO.N,GND*%
X156937500Y-88800000D03*
%TO.P,U30,17*%
%TO.N,+3V3E*%
X156937500Y-89200000D03*
%TO.P,U30,18*%
%TO.N,CH_2*%
X156937500Y-89600000D03*
%TO.P,U30,19*%
%TO.N,BH_2*%
X156937500Y-90000000D03*
%TO.P,U30,20*%
%TO.N,AH_2*%
X156937500Y-90400000D03*
%TO.P,U30,21*%
%TO.N,SWDIO_2*%
X156937500Y-90800000D03*
D38*
%TO.P,U30,22*%
%TO.N,SWCLK_2*%
X156200000Y-91537500D03*
%TO.P,U30,23*%
%TO.N,NC23_2*%
X155800000Y-91537500D03*
%TO.P,U30,24*%
%TO.N,NC24_2*%
X155400000Y-91537500D03*
%TO.P,U30,25*%
%TO.N,DSHOT_I_2*%
X155000000Y-91537500D03*
%TO.P,U30,26*%
%TO.N,NC26_2*%
X154600000Y-91537500D03*
%TO.P,U30,27*%
%TO.N,NC27_2*%
X154200000Y-91537500D03*
%TO.P,U30,28*%
%TO.N,NC28_2*%
X153800000Y-91537500D03*
D36*
%TO.P,U30,29*%
%TO.N,GND*%
X155000000Y-89600000D03*
%TD*%
D39*
%TO.P,U40,1*%
%TO.N,BOOT0_3*%
X146937500Y-108600000D03*
%TO.P,U40,2*%
%TO.N,NC2_3*%
X146937500Y-109000000D03*
%TO.P,U40,3*%
%TO.N,NC3_3*%
X146937500Y-109400000D03*
%TO.P,U40,4*%
%TO.N,NRST_3*%
X146937500Y-109800000D03*
%TO.P,U40,5*%
%TO.N,VDDA_3*%
X146937500Y-110200000D03*
%TO.P,U40,6*%
%TO.N,FBA_3*%
X146937500Y-110600000D03*
%TO.P,U40,7*%
%TO.N,FBCOM_3*%
X146937500Y-111000000D03*
D40*
%TO.P,U40,8*%
%TO.N,NC8_3*%
X146200000Y-111737500D03*
%TO.P,U40,9*%
%TO.N,NC9_3*%
X145800000Y-111737500D03*
%TO.P,U40,10*%
%TO.N,FBB_3*%
X145400000Y-111737500D03*
%TO.P,U40,11*%
%TO.N,FBC_3*%
X145000000Y-111737500D03*
%TO.P,U40,12*%
%TO.N,NC12_3*%
X144600000Y-111737500D03*
%TO.P,U40,13*%
%TO.N,CL_3*%
X144200000Y-111737500D03*
%TO.P,U40,14*%
%TO.N,BL_3*%
X143800000Y-111737500D03*
D39*
%TO.P,U40,15*%
%TO.N,AL_3*%
X143062500Y-111000000D03*
%TO.P,U40,16*%
%TO.N,GND*%
X143062500Y-110600000D03*
%TO.P,U40,17*%
%TO.N,+3V3E*%
X143062500Y-110200000D03*
%TO.P,U40,18*%
%TO.N,CH_3*%
X143062500Y-109800000D03*
%TO.P,U40,19*%
%TO.N,BH_3*%
X143062500Y-109400000D03*
%TO.P,U40,20*%
%TO.N,AH_3*%
X143062500Y-109000000D03*
%TO.P,U40,21*%
%TO.N,SWDIO_3*%
X143062500Y-108600000D03*
D40*
%TO.P,U40,22*%
%TO.N,SWCLK_3*%
X143800000Y-107862500D03*
%TO.P,U40,23*%
%TO.N,NC23_3*%
X144200000Y-107862500D03*
%TO.P,U40,24*%
%TO.N,NC24_3*%
X144600000Y-107862500D03*
%TO.P,U40,25*%
%TO.N,DSHOT_I_3*%
X145000000Y-107862500D03*
%TO.P,U40,26*%
%TO.N,NC26_3*%
X145400000Y-107862500D03*
%TO.P,U40,27*%
%TO.N,NC27_3*%
X145800000Y-107862500D03*
%TO.P,U40,28*%
%TO.N,NC28_3*%
X146200000Y-107862500D03*
D36*
%TO.P,U40,29*%
%TO.N,GND*%
X145000000Y-109800000D03*
%TD*%
D41*
%TO.P,U50,1*%
%TO.N,BOOT0_4*%
X138400000Y-92362500D03*
%TO.P,U50,2*%
%TO.N,NC2_4*%
X138800000Y-92362500D03*
%TO.P,U50,3*%
%TO.N,NC3_4*%
X139200000Y-92362500D03*
%TO.P,U50,4*%
%TO.N,NRST_4*%
X139600000Y-92362500D03*
%TO.P,U50,5*%
%TO.N,VDDA_4*%
X140000000Y-92362500D03*
%TO.P,U50,6*%
%TO.N,FBA_4*%
X140400000Y-92362500D03*
%TO.P,U50,7*%
%TO.N,FBCOM_4*%
X140800000Y-92362500D03*
D42*
%TO.P,U50,8*%
%TO.N,NC8_4*%
X141537500Y-93100000D03*
%TO.P,U50,9*%
%TO.N,NC9_4*%
X141537500Y-93500000D03*
%TO.P,U50,10*%
%TO.N,FBB_4*%
X141537500Y-93900000D03*
%TO.P,U50,11*%
%TO.N,FBC_4*%
X141537500Y-94300000D03*
%TO.P,U50,12*%
%TO.N,NC12_4*%
X141537500Y-94700000D03*
%TO.P,U50,13*%
%TO.N,CL_4*%
X141537500Y-95100000D03*
%TO.P,U50,14*%
%TO.N,BL_4*%
X141537500Y-95500000D03*
D41*
%TO.P,U50,15*%
%TO.N,AL_4*%
X140800000Y-96237500D03*
%TO.P,U50,16*%
%TO.N,GND*%
X140400000Y-96237500D03*
%TO.P,U50,17*%
%TO.N,+3V3E*%
X140000000Y-96237500D03*
%TO.P,U50,18*%
%TO.N,CH_4*%
X139600000Y-96237500D03*
%TO.P,U50,19*%
%TO.N,BH_4*%
X139200000Y-96237500D03*
%TO.P,U50,20*%
%TO.N,AH_4*%
X138800000Y-96237500D03*
%TO.P,U50,21*%
%TO.N,SWDIO_4*%
X138400000Y-96237500D03*
D42*
%TO.P,U50,22*%
%TO.N,SWCLK_4*%
X137662500Y-95500000D03*
%TO.P,U50,23*%
%TO.N,NC23_4*%
X137662500Y-95100000D03*
%TO.P,U50,24*%
%TO.N,NC24_4*%
X137662500Y-94700000D03*
%TO.P,U50,25*%
%TO.N,DSHOT_I_4*%
X137662500Y-94300000D03*
%TO.P,U50,26*%
%TO.N,NC26_4*%
X137662500Y-93900000D03*
%TO.P,U50,27*%
%TO.N,NC27_4*%
X137662500Y-93500000D03*
%TO.P,U50,28*%
%TO.N,NC28_4*%
X137662500Y-93100000D03*
D36*
%TO.P,U50,29*%
%TO.N,GND*%
X139600000Y-94300000D03*
%TD*%
D43*
%TO.P,U10,1*%
%TO.N,USB_DM*%
X137362500Y-91250000D03*
%TO.P,U10,2*%
%TO.N,GND*%
X137362500Y-90300000D03*
%TO.P,U10,3*%
%TO.N,USB_DP*%
X137362500Y-89350000D03*
%TO.P,U10,4*%
X139637500Y-89350000D03*
%TO.P,U10,5*%
%TO.N,VBUS*%
X139637500Y-90300000D03*
%TO.P,U10,6*%
%TO.N,USB_DM*%
X139637500Y-91250000D03*
%TD*%
%TO.P,U2,1*%
%TO.N,GND*%
X158362500Y-100950000D03*
%TO.P,U2,2*%
%TO.N,SW_GD*%
X158362500Y-100000000D03*
%TO.P,U2,3*%
%TO.N,VBAT*%
X158362500Y-99050000D03*
%TO.P,U2,4*%
%TO.N,FB_GD*%
X160637500Y-99050000D03*
%TO.P,U2,5*%
%TO.N,VBAT*%
X160637500Y-100000000D03*
%TO.P,U2,6*%
%TO.N,BST_GD*%
X160637500Y-100950000D03*
%TD*%
%TO.P,U3,1*%
%TO.N,GND*%
X158362500Y-96750000D03*
%TO.P,U3,2*%
%TO.N,SW_5V*%
X158362500Y-95800000D03*
%TO.P,U3,3*%
%TO.N,VBAT*%
X158362500Y-94850000D03*
%TO.P,U3,4*%
%TO.N,FB_5V*%
X160637500Y-94850000D03*
%TO.P,U3,5*%
%TO.N,VBAT*%
X160637500Y-95800000D03*
%TO.P,U3,6*%
%TO.N,BST_5V*%
X160637500Y-96750000D03*
%TD*%
D44*
%TO.P,J2,1*%
%TO.N,GND*%
X137300000Y-103900000D03*
%TO.P,J2,2*%
%TO.N,VBAT*%
X137300000Y-102900000D03*
%TO.P,J2,3*%
%TO.N,UART1_TX*%
X137300000Y-101900000D03*
%TO.P,J2,4*%
%TO.N,UART1_RX*%
X137300000Y-100900000D03*
%TO.P,J2,5*%
%TO.N,UART2_RX*%
X137300000Y-99900000D03*
%TO.P,J2,6*%
%TO.N,+5V*%
X137300000Y-98900000D03*
D45*
%TO.P,J2,MP*%
%TO.N,N/C*%
X133425000Y-105200000D03*
X133425000Y-97600000D03*
%TD*%
D46*
%TO.P,R23,1*%
%TO.N,CC1*%
X133736000Y-85400000D03*
%TO.P,R23,2*%
%TO.N,GND*%
X134756000Y-85400000D03*
%TD*%
%TO.P,R24,1*%
%TO.N,CC2*%
X137334000Y-106911000D03*
%TO.P,R24,2*%
%TO.N,GND*%
X138354000Y-106911000D03*
%TD*%
M02*
