%TF.GenerationSoftware,KiCad,Pcbnew,7.0.11+dfsg-1build4*%
%TF.CreationDate,2026-08-10T02:10:54+00:00*%
%TF.ProjectId,oa35-aio,6f613335-2d61-4696-9f2e-6b696361645f,rev?*%
%TF.SameCoordinates,Original*%
%TF.FileFunction,Legend,Bot*%
%TF.FilePolarity,Positive*%
%FSLAX46Y46*%
G04 Gerber Fmt 4.6, Leading zero omitted, Abs format (unit mm)*
G04 Created by KiCad (PCBNEW 7.0.11+dfsg-1build4) date 2026-08-10 02:10:54*
%MOMM*%
%LPD*%
G01*
G04 APERTURE LIST*
G04 Aperture macros list*
%AMRoundRect*
0 Rectangle with rounded corners*
0 $1 Rounding radius*
0 $2 $3 $4 $5 $6 $7 $8 $9 X,Y pos of 4 corners*
0 Add a 4 corners polygon primitive as box body*
4,1,4,$2,$3,$4,$5,$6,$7,$8,$9,$2,$3,0*
0 Add four circle primitives for the rounded corners*
1,1,$1+$1,$2,$3*
1,1,$1+$1,$4,$5*
1,1,$1+$1,$6,$7*
1,1,$1+$1,$8,$9*
0 Add four rect primitives between the rounded corners*
20,1,$1+$1,$2,$3,$4,$5,0*
20,1,$1+$1,$4,$5,$6,$7,0*
20,1,$1+$1,$6,$7,$8,$9,0*
20,1,$1+$1,$8,$9,$2,$3,0*%
G04 Aperture macros list end*
%ADD10C,0.120000*%
%ADD11C,0.100000*%
%ADD12C,0.200000*%
%ADD13C,3.000000*%
%ADD14RoundRect,0.050000X-0.150000X-0.300000X0.150000X-0.300000X0.150000X0.300000X-0.150000X0.300000X0*%
%ADD15R,0.350000X0.500000*%
%ADD16RoundRect,0.140000X-0.140000X-0.170000X0.140000X-0.170000X0.140000X0.170000X-0.140000X0.170000X0*%
%ADD17RoundRect,0.140000X0.170000X-0.140000X0.170000X0.140000X-0.170000X0.140000X-0.170000X-0.140000X0*%
%ADD18RoundRect,0.150000X-0.650000X-0.150000X0.650000X-0.150000X0.650000X0.150000X-0.650000X0.150000X0*%
%ADD19RoundRect,0.250000X0.475000X-0.250000X0.475000X0.250000X-0.475000X0.250000X-0.475000X-0.250000X0*%
%ADD20RoundRect,0.250000X-0.250000X-0.475000X0.250000X-0.475000X0.250000X0.475000X-0.250000X0.475000X0*%
%ADD21C,0.650000*%
%ADD22R,0.600000X1.450000*%
%ADD23R,0.300000X1.450000*%
%ADD24O,1.000000X1.600000*%
%ADD25O,1.000000X2.100000*%
%ADD26RoundRect,0.093750X-0.093750X-0.106250X0.093750X-0.106250X0.093750X0.106250X-0.093750X0.106250X0*%
%ADD27R,1.000000X1.600000*%
%ADD28R,1.600000X1.200000*%
%ADD29R,1.200000X1.600000*%
%ADD30R,2.200000X1.600000*%
%ADD31R,1.600000X2.200000*%
%ADD32RoundRect,0.100000X-0.130000X-0.100000X0.130000X-0.100000X0.130000X0.100000X-0.130000X0.100000X0*%
%ADD33RoundRect,0.100000X0.100000X-0.130000X0.100000X0.130000X-0.100000X0.130000X-0.100000X-0.130000X0*%
%ADD34RoundRect,0.087500X-0.207500X-0.087500X0.207500X-0.087500X0.207500X0.087500X-0.207500X0.087500X0*%
%ADD35RoundRect,0.087500X-0.087500X-0.207500X0.087500X-0.207500X0.087500X0.207500X-0.087500X0.207500X0*%
%ADD36R,2.600000X1.100000*%
%ADD37RoundRect,0.075000X-0.700000X-0.075000X0.700000X-0.075000X0.700000X0.075000X-0.700000X0.075000X0*%
%ADD38RoundRect,0.075000X-0.075000X-0.700000X0.075000X-0.700000X0.075000X0.700000X-0.075000X0.700000X0*%
%ADD39RoundRect,0.062500X0.062500X-0.350000X0.062500X0.350000X-0.062500X0.350000X-0.062500X-0.350000X0*%
%ADD40RoundRect,0.062500X0.350000X-0.062500X0.350000X0.062500X-0.350000X0.062500X-0.350000X-0.062500X0*%
%ADD41R,2.400000X2.400000*%
%ADD42RoundRect,0.062500X-0.350000X-0.062500X0.350000X-0.062500X0.350000X0.062500X-0.350000X0.062500X0*%
%ADD43RoundRect,0.062500X-0.062500X-0.350000X0.062500X-0.350000X0.062500X0.350000X-0.062500X0.350000X0*%
%ADD44RoundRect,0.062500X0.350000X0.062500X-0.350000X0.062500X-0.350000X-0.062500X0.350000X-0.062500X0*%
%ADD45RoundRect,0.062500X0.062500X0.350000X-0.062500X0.350000X-0.062500X-0.350000X0.062500X-0.350000X0*%
%ADD46RoundRect,0.062500X-0.062500X0.350000X-0.062500X-0.350000X0.062500X-0.350000X0.062500X0.350000X0*%
%ADD47RoundRect,0.062500X-0.350000X0.062500X-0.350000X-0.062500X0.350000X-0.062500X0.350000X0.062500X0*%
%ADD48RoundRect,0.150000X-0.512500X-0.150000X0.512500X-0.150000X0.512500X0.150000X-0.512500X0.150000X0*%
%ADD49RoundRect,0.150000X0.625000X-0.150000X0.625000X0.150000X-0.625000X0.150000X-0.625000X-0.150000X0*%
%ADD50RoundRect,0.250000X0.650000X-0.350000X0.650000X0.350000X-0.650000X0.350000X-0.650000X-0.350000X0*%
%ADD51RoundRect,0.135000X-0.135000X-0.185000X0.135000X-0.185000X0.135000X0.185000X-0.135000X0.185000X0*%
G04 APERTURE END LIST*
D10*
%TO.C,D3*%
X164805000Y-84865000D02*
X166115000Y-84865000D01*
X164805000Y-86085000D02*
X164805000Y-84865000D01*
X164805000Y-86085000D02*
X166115000Y-86085000D01*
%TO.C,D4*%
X151160000Y-82682000D02*
X152470000Y-82682000D01*
X151160000Y-83902000D02*
X151160000Y-82682000D01*
X151160000Y-83902000D02*
X152470000Y-83902000D01*
D11*
%TO.C,U8*%
X145450000Y-90700000D02*
X145450000Y-91340000D01*
X145450000Y-90700000D02*
X145600000Y-90700000D01*
X145450000Y-92260000D02*
X145450000Y-92700000D01*
X147875000Y-90725000D02*
X148025000Y-90725000D01*
X148000000Y-92900000D02*
X148150000Y-92900000D01*
X148150000Y-90700000D02*
X148150000Y-91340000D01*
X148150000Y-92260000D02*
X148150000Y-92900000D01*
X145450000Y-93260000D02*
X145090000Y-92900000D01*
X145450000Y-92900000D01*
X145450000Y-93260000D01*
G36*
X145450000Y-93260000D02*
G01*
X145090000Y-92900000D01*
X145450000Y-92900000D01*
X145450000Y-93260000D01*
G37*
D10*
%TO.C,C23*%
X154260164Y-110213000D02*
X154475836Y-110213000D01*
X154260164Y-110933000D02*
X154475836Y-110933000D01*
%TO.C,C30*%
X140346164Y-106576000D02*
X140561836Y-106576000D01*
X140346164Y-107296000D02*
X140561836Y-107296000D01*
%TO.C,C31*%
X157895164Y-108848000D02*
X158110836Y-108848000D01*
X157895164Y-109568000D02*
X158110836Y-109568000D01*
%TO.C,C33*%
X156480164Y-110381000D02*
X156695836Y-110381000D01*
X156480164Y-111101000D02*
X156695836Y-111101000D01*
%TO.C,C43*%
X139539000Y-85762836D02*
X139539000Y-85547164D01*
X140259000Y-85762836D02*
X140259000Y-85547164D01*
%TO.C,U9*%
X148275000Y-112175000D02*
X148275000Y-112435000D01*
X148275000Y-117625000D02*
X148275000Y-117365000D01*
X151000000Y-112175000D02*
X148275000Y-112175000D01*
X151000000Y-112175000D02*
X153725000Y-112175000D01*
X151000000Y-117625000D02*
X148275000Y-117625000D01*
X151000000Y-117625000D02*
X153725000Y-117625000D01*
X153725000Y-112175000D02*
X153725000Y-112435000D01*
X153725000Y-117625000D02*
X153725000Y-117365000D01*
X147732500Y-117695000D02*
X147252500Y-117695000D01*
X147492500Y-117365000D01*
X147732500Y-117695000D01*
G36*
X147732500Y-117695000D02*
G01*
X147252500Y-117695000D01*
X147492500Y-117365000D01*
X147732500Y-117695000D01*
G37*
%TO.C,C10*%
X165565000Y-100261252D02*
X165565000Y-99738748D01*
X167035000Y-100261252D02*
X167035000Y-99738748D01*
%TO.C,C13*%
X160037748Y-90535000D02*
X160560252Y-90535000D01*
X160037748Y-92005000D02*
X160560252Y-92005000D01*
%TO.C,C14*%
X162438000Y-92103252D02*
X162438000Y-91580748D01*
X163908000Y-92103252D02*
X163908000Y-91580748D01*
%TO.C,C16*%
X153826748Y-84355000D02*
X154349252Y-84355000D01*
X153826748Y-85825000D02*
X154349252Y-85825000D01*
%TO.C,C9*%
X160640748Y-108762000D02*
X161163252Y-108762000D01*
X160640748Y-110232000D02*
X161163252Y-110232000D01*
%TO.C,J1*%
X150520000Y-92470000D02*
X141120000Y-92470000D01*
X150520000Y-90570000D02*
X150520000Y-92470000D01*
X150520000Y-86670000D02*
X150520000Y-88670000D01*
X141120000Y-90570000D02*
X141120000Y-92470000D01*
X141120000Y-86670000D02*
X141120000Y-88670000D01*
%TO.C,U5*%
X153368000Y-107663000D02*
X155368000Y-107663000D01*
X153368000Y-109883000D02*
X155368000Y-109883000D01*
X153128000Y-110063000D02*
X152848000Y-109783000D01*
X153128000Y-109783000D01*
X153128000Y-110063000D01*
G36*
X153128000Y-110063000D02*
G01*
X152848000Y-109783000D01*
X153128000Y-109783000D01*
X153128000Y-110063000D01*
G37*
D12*
%TO.C,U7*%
X148570000Y-108300000D02*
G75*
G03*
X148330000Y-108300000I-120000J0D01*
G01*
X148330000Y-108300000D02*
G75*
G03*
X148570000Y-108300000I120000J0D01*
G01*
D10*
%TO.C,L2*%
X162000000Y-97400000D02*
X162000000Y-94200000D01*
X165200000Y-97400000D02*
X165200000Y-94200000D01*
%TO.C,L1*%
X162000000Y-101600000D02*
X162000000Y-98400000D01*
X165200000Y-101600000D02*
X165200000Y-98400000D01*
%TO.C,U6*%
X144890000Y-94890000D02*
X144890000Y-95840000D01*
X144890000Y-105110000D02*
X144890000Y-104160000D01*
X145840000Y-94890000D02*
X144890000Y-94890000D01*
X145840000Y-105110000D02*
X144890000Y-105110000D01*
X154160000Y-94890000D02*
X155110000Y-94890000D01*
X154160000Y-105110000D02*
X155110000Y-105110000D01*
X155110000Y-94890000D02*
X155110000Y-95840000D01*
X155110000Y-105110000D02*
X155110000Y-104160000D01*
X144615000Y-104630000D02*
X143935000Y-104630000D01*
X144275000Y-104160000D01*
X144615000Y-104630000D01*
G36*
X144615000Y-104630000D02*
G01*
X143935000Y-104630000D01*
X144275000Y-104160000D01*
X144615000Y-104630000D01*
G37*
%TO.C,U20*%
X158290000Y-107110000D02*
X158815000Y-107110000D01*
X161985000Y-107110000D02*
X162270000Y-107110000D01*
X158290000Y-106585000D02*
X158290000Y-107110000D01*
X162510000Y-106585000D02*
X162510000Y-106810000D01*
X158290000Y-103415000D02*
X158290000Y-102890000D01*
X162510000Y-103415000D02*
X162510000Y-102890000D01*
X158290000Y-102890000D02*
X158815000Y-102890000D01*
X162510000Y-102890000D02*
X161985000Y-102890000D01*
X162840000Y-107350000D02*
X162510000Y-107110000D01*
X162840000Y-106870000D01*
X162840000Y-107350000D01*
G36*
X162840000Y-107350000D02*
G01*
X162510000Y-107110000D01*
X162840000Y-106870000D01*
X162840000Y-107350000D01*
G37*
%TO.C,U30*%
X152890000Y-87490000D02*
X152890000Y-88015000D01*
X152890000Y-91185000D02*
X152890000Y-91470000D01*
X153415000Y-87490000D02*
X152890000Y-87490000D01*
X153415000Y-91710000D02*
X153190000Y-91710000D01*
X156585000Y-87490000D02*
X157110000Y-87490000D01*
X156585000Y-91710000D02*
X157110000Y-91710000D01*
X157110000Y-87490000D02*
X157110000Y-88015000D01*
X157110000Y-91710000D02*
X157110000Y-91185000D01*
X153130000Y-92040000D02*
X152650000Y-92040000D01*
X152890000Y-91710000D01*
X153130000Y-92040000D01*
G36*
X153130000Y-92040000D02*
G01*
X152650000Y-92040000D01*
X152890000Y-91710000D01*
X153130000Y-92040000D01*
G37*
%TO.C,U40*%
X147110000Y-111910000D02*
X147110000Y-111385000D01*
X147110000Y-108215000D02*
X147110000Y-107930000D01*
X146585000Y-111910000D02*
X147110000Y-111910000D01*
X146585000Y-107690000D02*
X146810000Y-107690000D01*
X143415000Y-111910000D02*
X142890000Y-111910000D01*
X143415000Y-107690000D02*
X142890000Y-107690000D01*
X142890000Y-111910000D02*
X142890000Y-111385000D01*
X142890000Y-107690000D02*
X142890000Y-108215000D01*
X147110000Y-107690000D02*
X146870000Y-107360000D01*
X147350000Y-107360000D01*
X147110000Y-107690000D01*
G36*
X147110000Y-107690000D02*
G01*
X146870000Y-107360000D01*
X147350000Y-107360000D01*
X147110000Y-107690000D01*
G37*
%TO.C,U50*%
X141710000Y-92190000D02*
X141185000Y-92190000D01*
X138015000Y-92190000D02*
X137730000Y-92190000D01*
X141710000Y-92715000D02*
X141710000Y-92190000D01*
X137490000Y-92715000D02*
X137490000Y-92490000D01*
X141710000Y-95885000D02*
X141710000Y-96410000D01*
X137490000Y-95885000D02*
X137490000Y-96410000D01*
X141710000Y-96410000D02*
X141185000Y-96410000D01*
X137490000Y-96410000D02*
X138015000Y-96410000D01*
X137490000Y-92190000D02*
X137160000Y-92430000D01*
X137160000Y-91950000D01*
X137490000Y-92190000D01*
G36*
X137490000Y-92190000D02*
G01*
X137160000Y-92430000D01*
X137160000Y-91950000D01*
X137490000Y-92190000D01*
G37*
%TO.C,U10*%
X138500000Y-88740000D02*
X137700000Y-88740000D01*
X138500000Y-88740000D02*
X139300000Y-88740000D01*
X138500000Y-91860000D02*
X137700000Y-91860000D01*
X138500000Y-91860000D02*
X139300000Y-91860000D01*
X137440000Y-92140000D02*
X136960000Y-92140000D01*
X137200000Y-91810000D01*
X137440000Y-92140000D01*
G36*
X137440000Y-92140000D02*
G01*
X136960000Y-92140000D01*
X137200000Y-91810000D01*
X137440000Y-92140000D01*
G37*
%TO.C,U2*%
X159500000Y-98440000D02*
X158700000Y-98440000D01*
X159500000Y-98440000D02*
X160300000Y-98440000D01*
X159500000Y-101560000D02*
X158700000Y-101560000D01*
X159500000Y-101560000D02*
X160300000Y-101560000D01*
X158440000Y-101840000D02*
X157960000Y-101840000D01*
X158200000Y-101510000D01*
X158440000Y-101840000D01*
G36*
X158440000Y-101840000D02*
G01*
X157960000Y-101840000D01*
X158200000Y-101510000D01*
X158440000Y-101840000D01*
G37*
%TO.C,U3*%
X159500000Y-94240000D02*
X158700000Y-94240000D01*
X159500000Y-94240000D02*
X160300000Y-94240000D01*
X159500000Y-97360000D02*
X158700000Y-97360000D01*
X159500000Y-97360000D02*
X160300000Y-97360000D01*
X158440000Y-97640000D02*
X157960000Y-97640000D01*
X158200000Y-97310000D01*
X158440000Y-97640000D01*
G36*
X158440000Y-97640000D02*
G01*
X157960000Y-97640000D01*
X158200000Y-97310000D01*
X158440000Y-97640000D01*
G37*
%TO.C,J2*%
X134585000Y-105510000D02*
X137085000Y-105510000D01*
X137085000Y-105510000D02*
X137085000Y-104460000D01*
X137085000Y-104460000D02*
X138075000Y-104460000D01*
X132615000Y-104340000D02*
X132615000Y-98460000D01*
X134585000Y-97290000D02*
X137085000Y-97290000D01*
X137085000Y-97290000D02*
X137085000Y-98340000D01*
%TO.C,R23*%
X134092359Y-85020000D02*
X134399641Y-85020000D01*
X134092359Y-85780000D02*
X134399641Y-85780000D01*
%TO.C,R24*%
X137690359Y-106531000D02*
X137997641Y-106531000D01*
X137690359Y-107291000D02*
X137997641Y-107291000D01*
%TD*%
%LPC*%
D13*
%TO.C,H3*%
X137250000Y-112750000D03*
%TD*%
%TO.C,H4*%
X137250000Y-87250000D03*
%TD*%
%TO.C,H2*%
X162750000Y-87250000D03*
%TD*%
%TO.C,H1*%
X162750000Y-112750000D03*
%TD*%
D14*
%TO.C,D3*%
X165265000Y-85475000D03*
X165965000Y-85475000D03*
%TD*%
%TO.C,D4*%
X151620000Y-83292000D03*
X152320000Y-83292000D03*
%TD*%
D15*
%TO.C,U8*%
X145825000Y-92600000D03*
X146475000Y-92600000D03*
X147125000Y-92600000D03*
X147775000Y-92600000D03*
X147775000Y-91000000D03*
X147125000Y-91000000D03*
X146475000Y-91000000D03*
X145825000Y-91000000D03*
%TD*%
D16*
%TO.C,C23*%
X153888000Y-110573000D03*
X154848000Y-110573000D03*
%TD*%
%TO.C,C30*%
X139974000Y-106936000D03*
X140934000Y-106936000D03*
%TD*%
%TO.C,C31*%
X157523000Y-109208000D03*
X158483000Y-109208000D03*
%TD*%
%TO.C,C33*%
X156108000Y-110741000D03*
X157068000Y-110741000D03*
%TD*%
D17*
%TO.C,C43*%
X139899000Y-86135000D03*
X139899000Y-85175000D03*
%TD*%
D18*
%TO.C,U9*%
X147400000Y-116805000D03*
X147400000Y-115535000D03*
X147400000Y-114265000D03*
X147400000Y-112995000D03*
X154600000Y-112995000D03*
X154600000Y-114265000D03*
X154600000Y-115535000D03*
X154600000Y-116805000D03*
%TD*%
D19*
%TO.C,C10*%
X166300000Y-100950000D03*
X166300000Y-99050000D03*
%TD*%
D20*
%TO.C,C13*%
X159349000Y-91270000D03*
X161249000Y-91270000D03*
%TD*%
D19*
%TO.C,C14*%
X163173000Y-92792000D03*
X163173000Y-90892000D03*
%TD*%
D20*
%TO.C,C16*%
X153138000Y-85090000D03*
X155038000Y-85090000D03*
%TD*%
%TO.C,C9*%
X159952000Y-109497000D03*
X161852000Y-109497000D03*
%TD*%
D21*
%TO.C,J1*%
X148710000Y-85970000D03*
X142930000Y-85970000D03*
D22*
X149070000Y-84525000D03*
X148270000Y-84525000D03*
D23*
X147070000Y-84525000D03*
X146070000Y-84525000D03*
X145570000Y-84525000D03*
X144570000Y-84525000D03*
D22*
X143370000Y-84525000D03*
X142570000Y-84525000D03*
X142570000Y-84525000D03*
X143370000Y-84525000D03*
D23*
X144070000Y-84525000D03*
X145070000Y-84525000D03*
X146570000Y-84525000D03*
X147570000Y-84525000D03*
D22*
X148270000Y-84525000D03*
X149070000Y-84525000D03*
D24*
X150140000Y-89620000D03*
D25*
X150140000Y-85440000D03*
D24*
X141500000Y-89620000D03*
D25*
X141500000Y-85440000D03*
%TD*%
D26*
%TO.C,U5*%
X153480500Y-109423000D03*
X153480500Y-108773000D03*
X153480500Y-108123000D03*
X155255500Y-108123000D03*
X155255500Y-108773000D03*
X155255500Y-109423000D03*
D27*
X154368000Y-108773000D03*
%TD*%
D28*
%TO.C,TP11*%
X141000000Y-112000000D03*
%TD*%
%TO.C,TP12*%
X141000000Y-113600000D03*
%TD*%
%TO.C,TP13*%
X135500000Y-93600000D03*
%TD*%
%TO.C,TP14*%
X135500000Y-92000000D03*
%TD*%
D29*
%TO.C,TP2*%
X142400000Y-103900000D03*
%TD*%
D28*
%TO.C,TP10*%
X159000000Y-86400000D03*
%TD*%
D29*
%TO.C,TP1*%
X140600000Y-103900000D03*
%TD*%
%TO.C,TP3*%
X140600000Y-101700000D03*
%TD*%
%TO.C,TP4*%
X142400000Y-101700000D03*
%TD*%
%TO.C,TP5*%
X140600000Y-99500000D03*
%TD*%
%TO.C,TP6*%
X142400000Y-99500000D03*
%TD*%
D28*
%TO.C,TP7*%
X164500000Y-104600000D03*
%TD*%
%TO.C,TP8*%
X164500000Y-103000000D03*
%TD*%
%TO.C,TP9*%
X159000000Y-88000000D03*
%TD*%
D30*
%TO.C,P2*%
X137400000Y-83400000D03*
%TD*%
%TO.C,P3*%
X142000000Y-116600000D03*
%TD*%
%TO.C,P4*%
X144600000Y-116600000D03*
%TD*%
%TO.C,P5*%
X157400000Y-83400000D03*
%TD*%
%TO.C,P6*%
X160000000Y-83400000D03*
%TD*%
%TO.C,P7*%
X162600000Y-83400000D03*
%TD*%
%TO.C,P1*%
X134800000Y-83400000D03*
%TD*%
%TO.C,P8*%
X165200000Y-83400000D03*
%TD*%
D31*
%TO.C,P9*%
X166600000Y-87600000D03*
%TD*%
%TO.C,P10*%
X166600000Y-90200000D03*
%TD*%
%TO.C,P11*%
X166600000Y-92800000D03*
%TD*%
%TO.C,P12*%
X166600000Y-95400000D03*
%TD*%
%TO.C,P13*%
X166600000Y-107200000D03*
%TD*%
%TO.C,P14*%
X166600000Y-109800000D03*
%TD*%
%TO.C,P15*%
X166600000Y-112400000D03*
%TD*%
%TO.C,P16*%
X133400000Y-87600000D03*
%TD*%
%TO.C,P17*%
X133400000Y-90200000D03*
%TD*%
%TO.C,P18*%
X133400000Y-92800000D03*
%TD*%
%TO.C,P19*%
X133400000Y-107200000D03*
%TD*%
%TO.C,P20*%
X133400000Y-109800000D03*
%TD*%
%TO.C,P21*%
X133400000Y-112400000D03*
%TD*%
D30*
%TO.C,P22*%
X136800000Y-116600000D03*
%TD*%
D32*
%TO.C,C11*%
X158778000Y-93613000D03*
X159418000Y-93613000D03*
%TD*%
D33*
%TO.C,C12*%
X160595000Y-93543000D03*
X160595000Y-92903000D03*
%TD*%
D32*
%TO.C,C15*%
X159280000Y-89601000D03*
X159920000Y-89601000D03*
%TD*%
D33*
%TO.C,C17*%
X164886000Y-93049000D03*
X164886000Y-92409000D03*
%TD*%
D32*
%TO.C,C18*%
X165790000Y-97397000D03*
X166430000Y-97397000D03*
%TD*%
D33*
%TO.C,C24*%
X156327000Y-109496000D03*
X156327000Y-108856000D03*
%TD*%
D32*
%TO.C,C25*%
X148876000Y-91839000D03*
X149516000Y-91839000D03*
%TD*%
%TO.C,C26*%
X144100000Y-91944000D03*
X144740000Y-91944000D03*
%TD*%
%TO.C,C27*%
X141199000Y-105667000D03*
X141839000Y-105667000D03*
%TD*%
D33*
%TO.C,C28*%
X139029000Y-101123000D03*
X139029000Y-100483000D03*
%TD*%
%TO.C,C29*%
X139066000Y-99117000D03*
X139066000Y-98477000D03*
%TD*%
%TO.C,C32*%
X139103999Y-103671000D03*
X139103999Y-103031000D03*
%TD*%
D32*
%TO.C,C34*%
X139282000Y-105579000D03*
X139922000Y-105579000D03*
%TD*%
%TO.C,C38*%
X145015000Y-113781000D03*
X145655000Y-113781000D03*
%TD*%
D33*
%TO.C,C39*%
X156269000Y-112835000D03*
X156269000Y-112195000D03*
%TD*%
%TO.C,C40*%
X139889000Y-88091000D03*
X139889000Y-87451000D03*
%TD*%
%TO.C,C41*%
X156385000Y-115624000D03*
X156385000Y-114984000D03*
%TD*%
D32*
%TO.C,C42*%
X144209000Y-82914999D03*
X144849000Y-82914999D03*
%TD*%
D33*
%TO.C,C8*%
X166161000Y-103052000D03*
X166161000Y-102412000D03*
%TD*%
%TO.C,CRST1*%
X164352000Y-107255000D03*
X164352000Y-106615000D03*
%TD*%
D32*
%TO.C,CRST2*%
X156624000Y-85431000D03*
X157264000Y-85431000D03*
%TD*%
D33*
%TO.C,CRST3*%
X141021000Y-109715000D03*
X141021000Y-109075000D03*
%TD*%
%TO.C,CRST4*%
X135638000Y-96014000D03*
X135638000Y-95374000D03*
%TD*%
D32*
%TO.C,CVDA1*%
X163447000Y-109222000D03*
X164087000Y-109222000D03*
%TD*%
D33*
%TO.C,CVDA2*%
X151531000Y-85524000D03*
X151531000Y-84884000D03*
%TD*%
D32*
%TO.C,CVDA3*%
X143207000Y-113946000D03*
X143847000Y-113946000D03*
%TD*%
D33*
%TO.C,CVDA4*%
X134335000Y-95822000D03*
X134335000Y-95182000D03*
%TD*%
%TO.C,CVDD1*%
X166186000Y-104920000D03*
X166186000Y-104280000D03*
%TD*%
D32*
%TO.C,CVDD2*%
X153581000Y-83498000D03*
X154221000Y-83498000D03*
%TD*%
D33*
%TO.C,CVDD3*%
X139897000Y-109118000D03*
X139897000Y-108478000D03*
%TD*%
%TO.C,CVDD4*%
X135534000Y-90484000D03*
X135534000Y-89844000D03*
%TD*%
D34*
%TO.C,U7*%
X148835000Y-108650000D03*
X148835000Y-109150000D03*
X148835000Y-109650000D03*
X148835000Y-110150000D03*
D35*
X149500000Y-110315000D03*
X150000000Y-110315000D03*
X150500000Y-110315000D03*
D34*
X151165000Y-110150000D03*
X151165000Y-109650000D03*
X151165000Y-109150000D03*
X151165000Y-108650000D03*
D35*
X150500000Y-108485000D03*
X150000000Y-108485000D03*
X149500000Y-108485000D03*
%TD*%
D36*
%TO.C,L2*%
X163600000Y-96950000D03*
X163600000Y-94650000D03*
%TD*%
%TO.C,L1*%
X163600000Y-101150000D03*
X163600000Y-98850000D03*
%TD*%
D32*
%TO.C,R19*%
X144993000Y-114865000D03*
X145633000Y-114865000D03*
%TD*%
D33*
%TO.C,R2*%
X158398000Y-111064000D03*
X158398000Y-110424000D03*
%TD*%
D32*
%TO.C,R20*%
X147779000Y-82894000D03*
X148419000Y-82894000D03*
%TD*%
%TO.C,R21*%
X149537000Y-82911000D03*
X150177000Y-82911000D03*
%TD*%
%TO.C,R22*%
X156348000Y-116868000D03*
X156988000Y-116868000D03*
%TD*%
D33*
%TO.C,R3*%
X164884000Y-90727000D03*
X164884000Y-90087000D03*
%TD*%
D32*
%TO.C,R4*%
X163724000Y-110305000D03*
X164364000Y-110305000D03*
%TD*%
%TO.C,R5*%
X159682000Y-111192000D03*
X160322000Y-111192000D03*
%TD*%
%TO.C,R8*%
X153435000Y-111818000D03*
X154075000Y-111818000D03*
%TD*%
D33*
%TO.C,R9*%
X138817000Y-108743000D03*
X138817000Y-108103000D03*
%TD*%
D32*
%TO.C,RBT01*%
X159280000Y-112357000D03*
X159920000Y-112357000D03*
%TD*%
%TO.C,RBT02*%
X142408000Y-82862000D03*
X143048000Y-82862000D03*
%TD*%
%TO.C,RBT03*%
X139113000Y-110405000D03*
X139753000Y-110405000D03*
%TD*%
D33*
%TO.C,RBT04*%
X133077000Y-95623000D03*
X133077000Y-94983000D03*
%TD*%
D32*
%TO.C,RRST1*%
X157517000Y-112367000D03*
X158157000Y-112367000D03*
%TD*%
D33*
%TO.C,RRST2*%
X140052000Y-83674000D03*
X140052000Y-83034000D03*
%TD*%
D32*
%TO.C,RRST3*%
X137291000Y-110201000D03*
X137931000Y-110201000D03*
%TD*%
%TO.C,RRST4*%
X135339000Y-106688000D03*
X135979000Y-106688000D03*
%TD*%
%TO.C,RVDA1*%
X159580000Y-113585000D03*
X160220000Y-113585000D03*
%TD*%
%TO.C,RVDA2*%
X157475000Y-113638000D03*
X158115000Y-113638000D03*
%TD*%
D33*
%TO.C,RVDA3*%
X137697000Y-108923000D03*
X137697000Y-108283000D03*
%TD*%
D32*
%TO.C,RVDA4*%
X135236000Y-107912000D03*
X135876000Y-107912000D03*
%TD*%
%TO.C,RBA1*%
X158535000Y-114782000D03*
X159175000Y-114782000D03*
%TD*%
D33*
%TO.C,RBA2*%
X160377000Y-115329000D03*
X160377000Y-114689000D03*
%TD*%
%TO.C,RBA3*%
X136228000Y-110003000D03*
X136228000Y-109363000D03*
%TD*%
%TO.C,RBA4*%
X135130000Y-109713000D03*
X135130000Y-109073000D03*
%TD*%
D32*
%TO.C,RBB1*%
X162138000Y-115301000D03*
X162778000Y-115301000D03*
%TD*%
%TO.C,RBB2*%
X158414000Y-115952000D03*
X159054000Y-115952000D03*
%TD*%
%TO.C,RBB3*%
X139154000Y-115075000D03*
X139794000Y-115075000D03*
%TD*%
%TO.C,RBB4*%
X134071000Y-114482000D03*
X134711000Y-114482000D03*
%TD*%
%TO.C,RBC1*%
X165285000Y-114533000D03*
X165925000Y-114533000D03*
%TD*%
%TO.C,RBC2*%
X160224000Y-116563000D03*
X160864000Y-116563000D03*
%TD*%
D33*
%TO.C,RBC3*%
X139921000Y-116935000D03*
X139921000Y-116295000D03*
%TD*%
D32*
%TO.C,RBC4*%
X133432000Y-115588000D03*
X134072000Y-115588000D03*
%TD*%
%TO.C,RCA1*%
X158104000Y-117099000D03*
X158744000Y-117099000D03*
%TD*%
%TO.C,RCB1*%
X162082000Y-116366000D03*
X162722000Y-116366000D03*
%TD*%
D33*
%TO.C,RCC1*%
X163968000Y-115831000D03*
X163968000Y-115191000D03*
%TD*%
%TO.C,RCA2*%
X165239000Y-116222000D03*
X165239000Y-115582000D03*
%TD*%
%TO.C,RCB2*%
X166477000Y-116252000D03*
X166477000Y-115612000D03*
%TD*%
D32*
%TO.C,RCC2*%
X134074000Y-116776000D03*
X134714000Y-116776000D03*
%TD*%
D33*
%TO.C,RCA4*%
X138777000Y-116853000D03*
X138777000Y-116213000D03*
%TD*%
D37*
%TO.C,U6*%
X144325000Y-103750000D03*
X144325000Y-103250000D03*
X144325000Y-102750000D03*
X144325000Y-102250000D03*
X144325000Y-101750000D03*
X144325000Y-101250000D03*
X144325000Y-100750000D03*
X144325000Y-100250000D03*
X144325000Y-99750000D03*
X144325000Y-99250000D03*
X144325000Y-98750000D03*
X144325000Y-98250000D03*
X144325000Y-97750000D03*
X144325000Y-97250000D03*
X144325000Y-96750000D03*
X144325000Y-96250000D03*
D38*
X146250000Y-94325000D03*
X146750000Y-94325000D03*
X147250000Y-94325000D03*
X147750000Y-94325000D03*
X148250000Y-94325000D03*
X148750000Y-94325000D03*
X149250000Y-94325000D03*
X149750000Y-94325000D03*
X150250000Y-94325000D03*
X150750000Y-94325000D03*
X151250000Y-94325000D03*
X151750000Y-94325000D03*
X152250000Y-94325000D03*
X152750000Y-94325000D03*
X153250000Y-94325000D03*
X153750000Y-94325000D03*
D37*
X155675000Y-96250000D03*
X155675000Y-96750000D03*
X155675000Y-97250000D03*
X155675000Y-97750000D03*
X155675000Y-98250000D03*
X155675000Y-98750000D03*
X155675000Y-99250000D03*
X155675000Y-99750000D03*
X155675000Y-100250000D03*
X155675000Y-100750000D03*
X155675000Y-101250000D03*
X155675000Y-101750000D03*
X155675000Y-102250000D03*
X155675000Y-102750000D03*
X155675000Y-103250000D03*
X155675000Y-103750000D03*
D38*
X153750000Y-105675000D03*
X153250000Y-105675000D03*
X152750000Y-105675000D03*
X152250000Y-105675000D03*
X151750000Y-105675000D03*
X151250000Y-105675000D03*
X150750000Y-105675000D03*
X150250000Y-105675000D03*
X149750000Y-105675000D03*
X149250000Y-105675000D03*
X148750000Y-105675000D03*
X148250000Y-105675000D03*
X147750000Y-105675000D03*
X147250000Y-105675000D03*
X146750000Y-105675000D03*
X146250000Y-105675000D03*
%TD*%
D39*
%TO.C,U20*%
X161600000Y-106937500D03*
X161200000Y-106937500D03*
X160800000Y-106937500D03*
X160400000Y-106937500D03*
X160000000Y-106937500D03*
X159600000Y-106937500D03*
X159200000Y-106937500D03*
D40*
X158462500Y-106200000D03*
X158462500Y-105800000D03*
X158462500Y-105400000D03*
X158462500Y-105000000D03*
X158462500Y-104600000D03*
X158462500Y-104200000D03*
X158462500Y-103800000D03*
D39*
X159200000Y-103062500D03*
X159600000Y-103062500D03*
X160000000Y-103062500D03*
X160400000Y-103062500D03*
X160800000Y-103062500D03*
X161200000Y-103062500D03*
X161600000Y-103062500D03*
D40*
X162337500Y-103800000D03*
X162337500Y-104200000D03*
X162337500Y-104600000D03*
X162337500Y-105000000D03*
X162337500Y-105400000D03*
X162337500Y-105800000D03*
X162337500Y-106200000D03*
D41*
X160400000Y-105000000D03*
%TD*%
D42*
%TO.C,U30*%
X153062500Y-90800000D03*
X153062500Y-90400000D03*
X153062500Y-90000000D03*
X153062500Y-89600000D03*
X153062500Y-89200000D03*
X153062500Y-88800000D03*
X153062500Y-88400000D03*
D43*
X153800000Y-87662500D03*
X154200000Y-87662500D03*
X154600000Y-87662500D03*
X155000000Y-87662500D03*
X155400000Y-87662500D03*
X155800000Y-87662500D03*
X156200000Y-87662500D03*
D42*
X156937500Y-88400000D03*
X156937500Y-88800000D03*
X156937500Y-89200000D03*
X156937500Y-89600000D03*
X156937500Y-90000000D03*
X156937500Y-90400000D03*
X156937500Y-90800000D03*
D43*
X156200000Y-91537500D03*
X155800000Y-91537500D03*
X155400000Y-91537500D03*
X155000000Y-91537500D03*
X154600000Y-91537500D03*
X154200000Y-91537500D03*
X153800000Y-91537500D03*
D41*
X155000000Y-89600000D03*
%TD*%
D44*
%TO.C,U40*%
X146937500Y-108600000D03*
X146937500Y-109000000D03*
X146937500Y-109400000D03*
X146937500Y-109800000D03*
X146937500Y-110200000D03*
X146937500Y-110600000D03*
X146937500Y-111000000D03*
D45*
X146200000Y-111737500D03*
X145800000Y-111737500D03*
X145400000Y-111737500D03*
X145000000Y-111737500D03*
X144600000Y-111737500D03*
X144200000Y-111737500D03*
X143800000Y-111737500D03*
D44*
X143062500Y-111000000D03*
X143062500Y-110600000D03*
X143062500Y-110200000D03*
X143062500Y-109800000D03*
X143062500Y-109400000D03*
X143062500Y-109000000D03*
X143062500Y-108600000D03*
D45*
X143800000Y-107862500D03*
X144200000Y-107862500D03*
X144600000Y-107862500D03*
X145000000Y-107862500D03*
X145400000Y-107862500D03*
X145800000Y-107862500D03*
X146200000Y-107862500D03*
D41*
X145000000Y-109800000D03*
%TD*%
D46*
%TO.C,U50*%
X138400000Y-92362500D03*
X138800000Y-92362500D03*
X139200000Y-92362500D03*
X139600000Y-92362500D03*
X140000000Y-92362500D03*
X140400000Y-92362500D03*
X140800000Y-92362500D03*
D47*
X141537500Y-93100000D03*
X141537500Y-93500000D03*
X141537500Y-93900000D03*
X141537500Y-94300000D03*
X141537500Y-94700000D03*
X141537500Y-95100000D03*
X141537500Y-95500000D03*
D46*
X140800000Y-96237500D03*
X140400000Y-96237500D03*
X140000000Y-96237500D03*
X139600000Y-96237500D03*
X139200000Y-96237500D03*
X138800000Y-96237500D03*
X138400000Y-96237500D03*
D47*
X137662500Y-95500000D03*
X137662500Y-95100000D03*
X137662500Y-94700000D03*
X137662500Y-94300000D03*
X137662500Y-93900000D03*
X137662500Y-93500000D03*
X137662500Y-93100000D03*
D41*
X139600000Y-94300000D03*
%TD*%
D48*
%TO.C,U10*%
X137362500Y-91250000D03*
X137362500Y-90300000D03*
X137362500Y-89350000D03*
X139637500Y-89350000D03*
X139637500Y-90300000D03*
X139637500Y-91250000D03*
%TD*%
%TO.C,U2*%
X158362500Y-100950000D03*
X158362500Y-100000000D03*
X158362500Y-99050000D03*
X160637500Y-99050000D03*
X160637500Y-100000000D03*
X160637500Y-100950000D03*
%TD*%
%TO.C,U3*%
X158362500Y-96750000D03*
X158362500Y-95800000D03*
X158362500Y-94850000D03*
X160637500Y-94850000D03*
X160637500Y-95800000D03*
X160637500Y-96750000D03*
%TD*%
D49*
%TO.C,J2*%
X137300000Y-103900000D03*
X137300000Y-102900000D03*
X137300000Y-101900000D03*
X137300000Y-100900000D03*
X137300000Y-99900000D03*
X137300000Y-98900000D03*
D50*
X133425000Y-105200000D03*
X133425000Y-97600000D03*
%TD*%
D51*
%TO.C,R23*%
X133736000Y-85400000D03*
X134756000Y-85400000D03*
%TD*%
%TO.C,R24*%
X137334000Y-106911000D03*
X138354000Y-106911000D03*
%TD*%
%LPD*%
M02*
