%TF.GenerationSoftware,KiCad,Pcbnew,7.0.11+dfsg-1build4*%
%TF.CreationDate,2026-08-10T02:10:54+00:00*%
%TF.ProjectId,oa35-aio,6f613335-2d61-4696-9f2e-6b696361645f,rev?*%
%TF.SameCoordinates,Original*%
%TF.FileFunction,Paste,Bot*%
%TF.FilePolarity,Positive*%
%FSLAX46Y46*%
G04 Gerber Fmt 4.6, Leading zero omitted, Abs format (unit mm)*
G04 Created by KiCad (PCBNEW 7.0.11+dfsg-1build4) date 2026-08-10 02:10:54*
%MOMM*%
%LPD*%
G01*
G04 APERTURE LIST*
G04 Aperture macros list*
%AMRoundRect*
0 Rectangle with rounded corners*
0 $1 Rounding radius*
0 $2 $3 $4 $5 $6 $7 $8 $9 X,Y pos of 4 corners*
0 Add a 4 corners polygon primitive as box body*
4,1,4,$2,$3,$4,$5,$6,$7,$8,$9,$2,$3,0*
0 Add four circle primitives for the rounded corners*
1,1,$1+$1,$2,$3*
1,1,$1+$1,$4,$5*
1,1,$1+$1,$6,$7*
1,1,$1+$1,$8,$9*
0 Add four rect primitives between the rounded corners*
20,1,$1+$1,$2,$3,$4,$5,0*
20,1,$1+$1,$4,$5,$6,$7,0*
20,1,$1+$1,$6,$7,$8,$9,0*
20,1,$1+$1,$8,$9,$2,$3,0*%
G04 Aperture macros list end*
%ADD10RoundRect,0.050000X-0.100000X-0.250000X0.100000X-0.250000X0.100000X0.250000X-0.100000X0.250000X0*%
%ADD11R,0.350000X0.500000*%
%ADD12RoundRect,0.140000X-0.140000X-0.170000X0.140000X-0.170000X0.140000X0.170000X-0.140000X0.170000X0*%
%ADD13RoundRect,0.140000X0.170000X-0.140000X0.170000X0.140000X-0.170000X0.140000X-0.170000X-0.140000X0*%
%ADD14RoundRect,0.150000X-0.650000X-0.150000X0.650000X-0.150000X0.650000X0.150000X-0.650000X0.150000X0*%
%ADD15RoundRect,0.250000X0.475000X-0.250000X0.475000X0.250000X-0.475000X0.250000X-0.475000X-0.250000X0*%
%ADD16RoundRect,0.250000X-0.250000X-0.475000X0.250000X-0.475000X0.250000X0.475000X-0.250000X0.475000X0*%
%ADD17R,0.600000X1.450000*%
%ADD18R,0.300000X1.450000*%
%ADD19RoundRect,0.160000X-0.245000X-0.160000X0.245000X-0.160000X0.245000X0.160000X-0.245000X0.160000X0*%
%ADD20RoundRect,0.093750X-0.093750X-0.106250X0.093750X-0.106250X0.093750X0.106250X-0.093750X0.106250X0*%
%ADD21RoundRect,0.079500X-0.079500X-0.100500X0.079500X-0.100500X0.079500X0.100500X-0.079500X0.100500X0*%
%ADD22RoundRect,0.079500X0.100500X-0.079500X0.100500X0.079500X-0.100500X0.079500X-0.100500X-0.079500X0*%
%ADD23RoundRect,0.087500X-0.207500X-0.087500X0.207500X-0.087500X0.207500X0.087500X-0.207500X0.087500X0*%
%ADD24RoundRect,0.087500X-0.087500X-0.207500X0.087500X-0.207500X0.087500X0.207500X-0.087500X0.207500X0*%
%ADD25R,2.600000X1.100000*%
%ADD26RoundRect,0.075000X-0.700000X-0.075000X0.700000X-0.075000X0.700000X0.075000X-0.700000X0.075000X0*%
%ADD27RoundRect,0.075000X-0.075000X-0.700000X0.075000X-0.700000X0.075000X0.700000X-0.075000X0.700000X0*%
%ADD28RoundRect,0.242500X0.242500X-0.242500X0.242500X0.242500X-0.242500X0.242500X-0.242500X-0.242500X0*%
%ADD29RoundRect,0.062500X0.062500X-0.350000X0.062500X0.350000X-0.062500X0.350000X-0.062500X-0.350000X0*%
%ADD30RoundRect,0.062500X0.350000X-0.062500X0.350000X0.062500X-0.350000X0.062500X-0.350000X-0.062500X0*%
%ADD31RoundRect,0.242500X-0.242500X-0.242500X0.242500X-0.242500X0.242500X0.242500X-0.242500X0.242500X0*%
%ADD32RoundRect,0.062500X-0.350000X-0.062500X0.350000X-0.062500X0.350000X0.062500X-0.350000X0.062500X0*%
%ADD33RoundRect,0.062500X-0.062500X-0.350000X0.062500X-0.350000X0.062500X0.350000X-0.062500X0.350000X0*%
%ADD34RoundRect,0.242500X0.242500X0.242500X-0.242500X0.242500X-0.242500X-0.242500X0.242500X-0.242500X0*%
%ADD35RoundRect,0.062500X0.350000X0.062500X-0.350000X0.062500X-0.350000X-0.062500X0.350000X-0.062500X0*%
%ADD36RoundRect,0.062500X0.062500X0.350000X-0.062500X0.350000X-0.062500X-0.350000X0.062500X-0.350000X0*%
%ADD37RoundRect,0.242500X-0.242500X0.242500X-0.242500X-0.242500X0.242500X-0.242500X0.242500X0.242500X0*%
%ADD38RoundRect,0.062500X-0.062500X0.350000X-0.062500X-0.350000X0.062500X-0.350000X0.062500X0.350000X0*%
%ADD39RoundRect,0.062500X-0.350000X0.062500X-0.350000X-0.062500X0.350000X-0.062500X0.350000X0.062500X0*%
%ADD40RoundRect,0.150000X-0.512500X-0.150000X0.512500X-0.150000X0.512500X0.150000X-0.512500X0.150000X0*%
%ADD41RoundRect,0.150000X0.625000X-0.150000X0.625000X0.150000X-0.625000X0.150000X-0.625000X-0.150000X0*%
%ADD42RoundRect,0.250000X0.650000X-0.350000X0.650000X0.350000X-0.650000X0.350000X-0.650000X-0.350000X0*%
%ADD43RoundRect,0.135000X-0.135000X-0.185000X0.135000X-0.185000X0.135000X0.185000X-0.135000X0.185000X0*%
G04 APERTURE END LIST*
D10*
%TO.C,D3*%
X165265000Y-85475000D03*
X165965000Y-85475000D03*
%TD*%
%TO.C,D4*%
X151620000Y-83292000D03*
X152320000Y-83292000D03*
%TD*%
D11*
%TO.C,U8*%
X145825000Y-92600000D03*
X146475000Y-92600000D03*
X147125000Y-92600000D03*
X147775000Y-92600000D03*
X147775000Y-91000000D03*
X147125000Y-91000000D03*
X146475000Y-91000000D03*
X145825000Y-91000000D03*
%TD*%
D12*
%TO.C,C23*%
X153888000Y-110573000D03*
X154848000Y-110573000D03*
%TD*%
%TO.C,C30*%
X139974000Y-106936000D03*
X140934000Y-106936000D03*
%TD*%
%TO.C,C31*%
X157523000Y-109208000D03*
X158483000Y-109208000D03*
%TD*%
%TO.C,C33*%
X156108000Y-110741000D03*
X157068000Y-110741000D03*
%TD*%
D13*
%TO.C,C43*%
X139899000Y-86135000D03*
X139899000Y-85175000D03*
%TD*%
D14*
%TO.C,U9*%
X147400000Y-116805000D03*
X147400000Y-115535000D03*
X147400000Y-114265000D03*
X147400000Y-112995000D03*
X154600000Y-112995000D03*
X154600000Y-114265000D03*
X154600000Y-115535000D03*
X154600000Y-116805000D03*
%TD*%
D15*
%TO.C,C10*%
X166300000Y-100950000D03*
X166300000Y-99050000D03*
%TD*%
D16*
%TO.C,C13*%
X159349000Y-91270000D03*
X161249000Y-91270000D03*
%TD*%
D15*
%TO.C,C14*%
X163173000Y-92792000D03*
X163173000Y-90892000D03*
%TD*%
D16*
%TO.C,C16*%
X153138000Y-85090000D03*
X155038000Y-85090000D03*
%TD*%
%TO.C,C9*%
X159952000Y-109497000D03*
X161852000Y-109497000D03*
%TD*%
D17*
%TO.C,J1*%
X149070000Y-84525000D03*
X148270000Y-84525000D03*
D18*
X147070000Y-84525000D03*
X146070000Y-84525000D03*
X145570000Y-84525000D03*
X144570000Y-84525000D03*
D17*
X143370000Y-84525000D03*
X142570000Y-84525000D03*
X142570000Y-84525000D03*
X143370000Y-84525000D03*
D18*
X144070000Y-84525000D03*
X145070000Y-84525000D03*
X146570000Y-84525000D03*
X147570000Y-84525000D03*
D17*
X148270000Y-84525000D03*
X149070000Y-84525000D03*
%TD*%
D19*
%TO.C,U5*%
X154368000Y-108373000D03*
X154368000Y-109173000D03*
D20*
X153480500Y-109423000D03*
X153480500Y-108773000D03*
X153480500Y-108123000D03*
X155255500Y-108123000D03*
X155255500Y-108773000D03*
X155255500Y-109423000D03*
%TD*%
D21*
%TO.C,C11*%
X158753000Y-93613000D03*
X159443000Y-93613000D03*
%TD*%
D22*
%TO.C,C12*%
X160595000Y-93568000D03*
X160595000Y-92878000D03*
%TD*%
D21*
%TO.C,C15*%
X159255000Y-89601000D03*
X159945000Y-89601000D03*
%TD*%
D22*
%TO.C,C17*%
X164886000Y-93074000D03*
X164886000Y-92384000D03*
%TD*%
D21*
%TO.C,C18*%
X165765000Y-97397000D03*
X166455000Y-97397000D03*
%TD*%
D22*
%TO.C,C24*%
X156327000Y-109521000D03*
X156327000Y-108831000D03*
%TD*%
D21*
%TO.C,C25*%
X148851000Y-91839000D03*
X149541000Y-91839000D03*
%TD*%
%TO.C,C26*%
X144075000Y-91944000D03*
X144765000Y-91944000D03*
%TD*%
%TO.C,C27*%
X141174000Y-105667000D03*
X141864000Y-105667000D03*
%TD*%
D22*
%TO.C,C28*%
X139029000Y-101148000D03*
X139029000Y-100458000D03*
%TD*%
%TO.C,C29*%
X139066000Y-99142000D03*
X139066000Y-98452000D03*
%TD*%
%TO.C,C32*%
X139103999Y-103696000D03*
X139103999Y-103006000D03*
%TD*%
D21*
%TO.C,C34*%
X139257000Y-105579000D03*
X139947000Y-105579000D03*
%TD*%
%TO.C,C38*%
X144990000Y-113781000D03*
X145680000Y-113781000D03*
%TD*%
D22*
%TO.C,C39*%
X156269000Y-112860000D03*
X156269000Y-112170000D03*
%TD*%
%TO.C,C40*%
X139889000Y-88116000D03*
X139889000Y-87426000D03*
%TD*%
%TO.C,C41*%
X156385000Y-115649000D03*
X156385000Y-114959000D03*
%TD*%
D21*
%TO.C,C42*%
X144184000Y-82914999D03*
X144874000Y-82914999D03*
%TD*%
D22*
%TO.C,C8*%
X166161000Y-103077000D03*
X166161000Y-102387000D03*
%TD*%
%TO.C,CRST1*%
X164352000Y-107280000D03*
X164352000Y-106590000D03*
%TD*%
D21*
%TO.C,CRST2*%
X156599000Y-85431000D03*
X157289000Y-85431000D03*
%TD*%
D22*
%TO.C,CRST3*%
X141021000Y-109740000D03*
X141021000Y-109050000D03*
%TD*%
%TO.C,CRST4*%
X135638000Y-96039000D03*
X135638000Y-95349000D03*
%TD*%
D21*
%TO.C,CVDA1*%
X163422000Y-109222000D03*
X164112000Y-109222000D03*
%TD*%
D22*
%TO.C,CVDA2*%
X151531000Y-85549000D03*
X151531000Y-84859000D03*
%TD*%
D21*
%TO.C,CVDA3*%
X143182000Y-113946000D03*
X143872000Y-113946000D03*
%TD*%
D22*
%TO.C,CVDA4*%
X134335000Y-95847000D03*
X134335000Y-95157000D03*
%TD*%
%TO.C,CVDD1*%
X166186000Y-104945000D03*
X166186000Y-104255000D03*
%TD*%
D21*
%TO.C,CVDD2*%
X153556000Y-83498000D03*
X154246000Y-83498000D03*
%TD*%
D22*
%TO.C,CVDD3*%
X139897000Y-109143000D03*
X139897000Y-108453000D03*
%TD*%
%TO.C,CVDD4*%
X135534000Y-90509000D03*
X135534000Y-89819000D03*
%TD*%
D23*
%TO.C,U7*%
X148835000Y-108650000D03*
X148835000Y-109150000D03*
X148835000Y-109650000D03*
X148835000Y-110150000D03*
D24*
X149500000Y-110315000D03*
X150000000Y-110315000D03*
X150500000Y-110315000D03*
D23*
X151165000Y-110150000D03*
X151165000Y-109650000D03*
X151165000Y-109150000D03*
X151165000Y-108650000D03*
D24*
X150500000Y-108485000D03*
X150000000Y-108485000D03*
X149500000Y-108485000D03*
%TD*%
D25*
%TO.C,L2*%
X163600000Y-96950000D03*
X163600000Y-94650000D03*
%TD*%
%TO.C,L1*%
X163600000Y-101150000D03*
X163600000Y-98850000D03*
%TD*%
D21*
%TO.C,R19*%
X144968000Y-114865000D03*
X145658000Y-114865000D03*
%TD*%
D22*
%TO.C,R2*%
X158398000Y-111089000D03*
X158398000Y-110399000D03*
%TD*%
D21*
%TO.C,R20*%
X147754000Y-82894000D03*
X148444000Y-82894000D03*
%TD*%
%TO.C,R21*%
X149512000Y-82911000D03*
X150202000Y-82911000D03*
%TD*%
%TO.C,R22*%
X156323000Y-116868000D03*
X157013000Y-116868000D03*
%TD*%
D22*
%TO.C,R3*%
X164884000Y-90752000D03*
X164884000Y-90062000D03*
%TD*%
D21*
%TO.C,R4*%
X163699000Y-110305000D03*
X164389000Y-110305000D03*
%TD*%
%TO.C,R5*%
X159657000Y-111192000D03*
X160347000Y-111192000D03*
%TD*%
%TO.C,R8*%
X153410000Y-111818000D03*
X154100000Y-111818000D03*
%TD*%
D22*
%TO.C,R9*%
X138817000Y-108768000D03*
X138817000Y-108078000D03*
%TD*%
D21*
%TO.C,RBT01*%
X159255000Y-112357000D03*
X159945000Y-112357000D03*
%TD*%
%TO.C,RBT02*%
X142383000Y-82862000D03*
X143073000Y-82862000D03*
%TD*%
%TO.C,RBT03*%
X139088000Y-110405000D03*
X139778000Y-110405000D03*
%TD*%
D22*
%TO.C,RBT04*%
X133077000Y-95648000D03*
X133077000Y-94958000D03*
%TD*%
D21*
%TO.C,RRST1*%
X157492000Y-112367000D03*
X158182000Y-112367000D03*
%TD*%
D22*
%TO.C,RRST2*%
X140052000Y-83699000D03*
X140052000Y-83009000D03*
%TD*%
D21*
%TO.C,RRST3*%
X137266000Y-110201000D03*
X137956000Y-110201000D03*
%TD*%
%TO.C,RRST4*%
X135314000Y-106688000D03*
X136004000Y-106688000D03*
%TD*%
%TO.C,RVDA1*%
X159555000Y-113585000D03*
X160245000Y-113585000D03*
%TD*%
%TO.C,RVDA2*%
X157450000Y-113638000D03*
X158140000Y-113638000D03*
%TD*%
D22*
%TO.C,RVDA3*%
X137697000Y-108948000D03*
X137697000Y-108258000D03*
%TD*%
D21*
%TO.C,RVDA4*%
X135211000Y-107912000D03*
X135901000Y-107912000D03*
%TD*%
%TO.C,RBA1*%
X158510000Y-114782000D03*
X159200000Y-114782000D03*
%TD*%
D22*
%TO.C,RBA2*%
X160377000Y-115354000D03*
X160377000Y-114664000D03*
%TD*%
%TO.C,RBA3*%
X136228000Y-110028000D03*
X136228000Y-109338000D03*
%TD*%
%TO.C,RBA4*%
X135130000Y-109738000D03*
X135130000Y-109048000D03*
%TD*%
D21*
%TO.C,RBB1*%
X162113000Y-115301000D03*
X162803000Y-115301000D03*
%TD*%
%TO.C,RBB2*%
X158389000Y-115952000D03*
X159079000Y-115952000D03*
%TD*%
%TO.C,RBB3*%
X139129000Y-115075000D03*
X139819000Y-115075000D03*
%TD*%
%TO.C,RBB4*%
X134046000Y-114482000D03*
X134736000Y-114482000D03*
%TD*%
%TO.C,RBC1*%
X165260000Y-114533000D03*
X165950000Y-114533000D03*
%TD*%
%TO.C,RBC2*%
X160199000Y-116563000D03*
X160889000Y-116563000D03*
%TD*%
D22*
%TO.C,RBC3*%
X139921000Y-116960000D03*
X139921000Y-116270000D03*
%TD*%
D21*
%TO.C,RBC4*%
X133407000Y-115588000D03*
X134097000Y-115588000D03*
%TD*%
%TO.C,RCA1*%
X158079000Y-117099000D03*
X158769000Y-117099000D03*
%TD*%
%TO.C,RCB1*%
X162057000Y-116366000D03*
X162747000Y-116366000D03*
%TD*%
D22*
%TO.C,RCC1*%
X163968000Y-115856000D03*
X163968000Y-115166000D03*
%TD*%
%TO.C,RCA2*%
X165239000Y-116247000D03*
X165239000Y-115557000D03*
%TD*%
%TO.C,RCB2*%
X166477000Y-116277000D03*
X166477000Y-115587000D03*
%TD*%
D21*
%TO.C,RCC2*%
X134049000Y-116776000D03*
X134739000Y-116776000D03*
%TD*%
D22*
%TO.C,RCA4*%
X138777000Y-116878000D03*
X138777000Y-116188000D03*
%TD*%
D26*
%TO.C,U6*%
X144325000Y-103750000D03*
X144325000Y-103250000D03*
X144325000Y-102750000D03*
X144325000Y-102250000D03*
X144325000Y-101750000D03*
X144325000Y-101250000D03*
X144325000Y-100750000D03*
X144325000Y-100250000D03*
X144325000Y-99750000D03*
X144325000Y-99250000D03*
X144325000Y-98750000D03*
X144325000Y-98250000D03*
X144325000Y-97750000D03*
X144325000Y-97250000D03*
X144325000Y-96750000D03*
X144325000Y-96250000D03*
D27*
X146250000Y-94325000D03*
X146750000Y-94325000D03*
X147250000Y-94325000D03*
X147750000Y-94325000D03*
X148250000Y-94325000D03*
X148750000Y-94325000D03*
X149250000Y-94325000D03*
X149750000Y-94325000D03*
X150250000Y-94325000D03*
X150750000Y-94325000D03*
X151250000Y-94325000D03*
X151750000Y-94325000D03*
X152250000Y-94325000D03*
X152750000Y-94325000D03*
X153250000Y-94325000D03*
X153750000Y-94325000D03*
D26*
X155675000Y-96250000D03*
X155675000Y-96750000D03*
X155675000Y-97250000D03*
X155675000Y-97750000D03*
X155675000Y-98250000D03*
X155675000Y-98750000D03*
X155675000Y-99250000D03*
X155675000Y-99750000D03*
X155675000Y-100250000D03*
X155675000Y-100750000D03*
X155675000Y-101250000D03*
X155675000Y-101750000D03*
X155675000Y-102250000D03*
X155675000Y-102750000D03*
X155675000Y-103250000D03*
X155675000Y-103750000D03*
D27*
X153750000Y-105675000D03*
X153250000Y-105675000D03*
X152750000Y-105675000D03*
X152250000Y-105675000D03*
X151750000Y-105675000D03*
X151250000Y-105675000D03*
X150750000Y-105675000D03*
X150250000Y-105675000D03*
X149750000Y-105675000D03*
X149250000Y-105675000D03*
X148750000Y-105675000D03*
X148250000Y-105675000D03*
X147750000Y-105675000D03*
X147250000Y-105675000D03*
X146750000Y-105675000D03*
X146250000Y-105675000D03*
%TD*%
D28*
%TO.C,U20*%
X159800000Y-105600000D03*
X161000000Y-105600000D03*
X159800000Y-104400000D03*
X161000000Y-104400000D03*
D29*
X161600000Y-106937500D03*
X161200000Y-106937500D03*
X160800000Y-106937500D03*
X160400000Y-106937500D03*
X160000000Y-106937500D03*
X159600000Y-106937500D03*
X159200000Y-106937500D03*
D30*
X158462500Y-106200000D03*
X158462500Y-105800000D03*
X158462500Y-105400000D03*
X158462500Y-105000000D03*
X158462500Y-104600000D03*
X158462500Y-104200000D03*
X158462500Y-103800000D03*
D29*
X159200000Y-103062500D03*
X159600000Y-103062500D03*
X160000000Y-103062500D03*
X160400000Y-103062500D03*
X160800000Y-103062500D03*
X161200000Y-103062500D03*
X161600000Y-103062500D03*
D30*
X162337500Y-103800000D03*
X162337500Y-104200000D03*
X162337500Y-104600000D03*
X162337500Y-105000000D03*
X162337500Y-105400000D03*
X162337500Y-105800000D03*
X162337500Y-106200000D03*
%TD*%
D31*
%TO.C,U30*%
X154400000Y-89000000D03*
X154400000Y-90200000D03*
X155600000Y-89000000D03*
X155600000Y-90200000D03*
D32*
X153062500Y-90800000D03*
X153062500Y-90400000D03*
X153062500Y-90000000D03*
X153062500Y-89600000D03*
X153062500Y-89200000D03*
X153062500Y-88800000D03*
X153062500Y-88400000D03*
D33*
X153800000Y-87662500D03*
X154200000Y-87662500D03*
X154600000Y-87662500D03*
X155000000Y-87662500D03*
X155400000Y-87662500D03*
X155800000Y-87662500D03*
X156200000Y-87662500D03*
D32*
X156937500Y-88400000D03*
X156937500Y-88800000D03*
X156937500Y-89200000D03*
X156937500Y-89600000D03*
X156937500Y-90000000D03*
X156937500Y-90400000D03*
X156937500Y-90800000D03*
D33*
X156200000Y-91537500D03*
X155800000Y-91537500D03*
X155400000Y-91537500D03*
X155000000Y-91537500D03*
X154600000Y-91537500D03*
X154200000Y-91537500D03*
X153800000Y-91537500D03*
%TD*%
D34*
%TO.C,U40*%
X145600000Y-110400000D03*
X145600000Y-109200000D03*
X144400000Y-110400000D03*
X144400000Y-109200000D03*
D35*
X146937500Y-108600000D03*
X146937500Y-109000000D03*
X146937500Y-109400000D03*
X146937500Y-109800000D03*
X146937500Y-110200000D03*
X146937500Y-110600000D03*
X146937500Y-111000000D03*
D36*
X146200000Y-111737500D03*
X145800000Y-111737500D03*
X145400000Y-111737500D03*
X145000000Y-111737500D03*
X144600000Y-111737500D03*
X144200000Y-111737500D03*
X143800000Y-111737500D03*
D35*
X143062500Y-111000000D03*
X143062500Y-110600000D03*
X143062500Y-110200000D03*
X143062500Y-109800000D03*
X143062500Y-109400000D03*
X143062500Y-109000000D03*
X143062500Y-108600000D03*
D36*
X143800000Y-107862500D03*
X144200000Y-107862500D03*
X144600000Y-107862500D03*
X145000000Y-107862500D03*
X145400000Y-107862500D03*
X145800000Y-107862500D03*
X146200000Y-107862500D03*
%TD*%
D37*
%TO.C,U50*%
X140200000Y-93700000D03*
X139000000Y-93700000D03*
X140200000Y-94900000D03*
X139000000Y-94900000D03*
D38*
X138400000Y-92362500D03*
X138800000Y-92362500D03*
X139200000Y-92362500D03*
X139600000Y-92362500D03*
X140000000Y-92362500D03*
X140400000Y-92362500D03*
X140800000Y-92362500D03*
D39*
X141537500Y-93100000D03*
X141537500Y-93500000D03*
X141537500Y-93900000D03*
X141537500Y-94300000D03*
X141537500Y-94700000D03*
X141537500Y-95100000D03*
X141537500Y-95500000D03*
D38*
X140800000Y-96237500D03*
X140400000Y-96237500D03*
X140000000Y-96237500D03*
X139600000Y-96237500D03*
X139200000Y-96237500D03*
X138800000Y-96237500D03*
X138400000Y-96237500D03*
D39*
X137662500Y-95500000D03*
X137662500Y-95100000D03*
X137662500Y-94700000D03*
X137662500Y-94300000D03*
X137662500Y-93900000D03*
X137662500Y-93500000D03*
X137662500Y-93100000D03*
%TD*%
D40*
%TO.C,U10*%
X137362500Y-91250000D03*
X137362500Y-90300000D03*
X137362500Y-89350000D03*
X139637500Y-89350000D03*
X139637500Y-90300000D03*
X139637500Y-91250000D03*
%TD*%
%TO.C,U2*%
X158362500Y-100950000D03*
X158362500Y-100000000D03*
X158362500Y-99050000D03*
X160637500Y-99050000D03*
X160637500Y-100000000D03*
X160637500Y-100950000D03*
%TD*%
%TO.C,U3*%
X158362500Y-96750000D03*
X158362500Y-95800000D03*
X158362500Y-94850000D03*
X160637500Y-94850000D03*
X160637500Y-95800000D03*
X160637500Y-96750000D03*
%TD*%
D41*
%TO.C,J2*%
X137300000Y-103900000D03*
X137300000Y-102900000D03*
X137300000Y-101900000D03*
X137300000Y-100900000D03*
X137300000Y-99900000D03*
X137300000Y-98900000D03*
D42*
X133425000Y-105200000D03*
X133425000Y-97600000D03*
%TD*%
D43*
%TO.C,R23*%
X133736000Y-85400000D03*
X134756000Y-85400000D03*
%TD*%
%TO.C,R24*%
X137334000Y-106911000D03*
X138354000Y-106911000D03*
%TD*%
M02*
